<svg width="59" height="34" viewBox="0 0 59 34" fill="none" xmlns="http://www.w3.org/2000/svg">
<path d="M29.015 12.3969C30.463 12.3969 31.6369 11.9567 31.6369 11.4136C31.6369 10.8706 30.463 10.4304 29.015 10.4304C27.5669 10.4304 26.3931 10.8706 26.3931 11.4136C26.3931 11.9567 27.5669 12.3969 29.015 12.3969Z" fill="#FF0000"/>
<path d="M9.08841 20.5249C9.08841 20.7216 8.99665 20.8527 8.9311 20.9444C8.76068 21.128 8.69513 21.3771 8.72135 21.613L9.46861 27.0273H7.44971L8.32805 21.8097C8.38049 21.5082 8.27561 21.2066 8.03964 21.01C7.89543 20.892 7.81678 20.7085 7.81678 20.5249C7.81678 20.171 8.09209 19.8826 8.44605 19.8826C8.80001 19.8826 9.08841 20.171 9.08841 20.5249Z" fill="#FF0000"/>
<path d="M9.08832 20.5249C9.08832 20.171 8.79992 19.8825 8.44596 19.8825C8.092 19.8825 7.81668 20.171 7.81668 20.5249C7.81668 20.7084 7.89533 20.892 8.03954 21.01C8.27551 21.2066 8.38039 21.5081 8.32795 21.8097L7.44961 27.0273H9.46851L8.72125 21.613C8.69503 21.377 8.76058 21.128 8.93101 20.9444C8.99655 20.8527 9.08832 20.7216 9.08832 20.5249ZM31.6369 11.4137C31.6369 11.0204 30.6144 10.4305 29.015 10.4305C27.4156 10.4305 26.3931 11.0204 26.3931 11.4137C26.3931 11.807 27.4156 12.3969 29.015 12.3969C30.6144 12.3969 31.6369 11.8201 31.6369 11.4137ZM0.855455 9.775C2.34996 9.68323 18.4355 3.77078 28.2415 0.0607435C28.4251 -0.0179144 28.6348 -0.0179134 28.8183 0.0476348L57.4498 9.81433C57.7907 9.93231 58.0135 10.2469 58.0267 10.5878C58.0398 10.9418 57.8431 11.2695 57.5154 11.4137L44.9301 16.8804V30.7898C44.9301 32.4154 43.6192 33.7263 41.9936 33.7263H17.8849C16.2593 33.7263 14.9483 32.4154 14.9483 30.7898V17.6801L9.66514 15.3859V18.5191C10.3468 18.9386 10.7926 19.6728 10.7926 20.5249C10.7926 20.9444 10.6746 21.3639 10.4648 21.7179L11.3039 27.7614C11.3301 28.0105 11.2645 28.2596 11.0941 28.4431C10.9368 28.6267 10.7008 28.7447 10.4517 28.7447H6.44018C6.1911 28.7447 5.95512 28.6267 5.7847 28.43C5.62738 28.2465 5.56181 27.9843 5.60114 27.7483L6.58437 21.9408C6.26974 21.5344 6.09932 21.0362 6.09932 20.5249C6.09932 19.3975 6.899 18.4536 7.96088 18.2307V14.6387L0.514611 11.4137C0.147541 11.2564 -0.0622202 10.85 0.0164377 10.4567C0.0950956 10.0634 0.449055 9.775 0.855455 9.775ZM29.015 23.6974C28.897 23.6974 28.779 23.6712 28.6741 23.6319L16.6657 18.4143V30.7898C16.6657 31.4715 17.2032 32.0221 17.8849 32.0221H41.9936C42.6753 32.0221 43.2127 31.4715 43.2127 30.7898V17.6146L29.3559 23.6319C29.251 23.6712 29.133 23.6974 29.015 23.6974ZM29.015 21.9145L54.8017 10.7189L28.5562 1.765C24.5053 3.29883 9.63892 8.89665 3.45116 10.8238L8.93101 13.1966L25.6196 10.9942C25.9604 10.1683 27.3107 9.57835 29.015 9.57835C30.9945 9.57835 32.4891 10.3649 32.4891 11.4137C32.4891 12.4625 30.9945 13.2491 29.015 13.2491C27.9269 13.2491 26.9961 13.0131 26.3669 12.6198L11.9856 14.5207L29.015 21.9145Z" fill="#272525"/>
</svg>
