<svg width="39" height="37" viewBox="0 0 39 37" fill="none" xmlns="http://www.w3.org/2000/svg">
<path d="M38.9999 12.0768C38.9999 12.1534 38.9903 12.2204 38.9807 12.297V15.1504C38.9903 15.2175 38.9999 15.2845 38.9999 15.3515C38.9999 15.4281 38.9903 15.4951 38.9807 15.5717V18.6837C38.9807 18.6837 38.9807 18.7028 38.9711 18.7028C38.9807 18.7124 38.9807 18.722 38.9807 18.7316C38.9807 18.8369 38.9616 18.9422 38.9328 19.0476C38.9711 19.1625 38.9999 19.2774 38.9999 19.4018C38.9999 19.4689 38.9903 19.5455 38.9807 19.6125V22.4659C38.9903 22.5329 38.9999 22.6 38.9999 22.667C38.9999 22.7436 38.9903 22.8202 38.9807 22.8872V25.4534C38.9903 25.5204 38.9999 25.5875 38.9999 25.6545C38.9999 25.7311 38.9903 25.7981 38.9807 25.8651V28.9867C38.9807 28.9867 38.9807 29.0058 38.9711 29.0058C38.9807 29.0154 38.9807 29.025 38.9807 29.025C38.9807 31.3709 33.4271 31.6199 31.0428 31.6199C30.6502 31.6199 30.1715 31.6103 29.6448 31.5911C28.582 34.6169 25.6998 36.8001 22.3102 36.8001C18.9206 36.8001 15.8661 34.4924 14.8894 31.323C15.033 31.3326 15.2149 31.3326 15.5309 31.3422L15.5501 30.2602C15.0234 30.2506 14.8798 30.241 14.6309 30.2314C14.5734 29.8484 14.5447 29.4463 14.5447 29.0345C14.5447 28.4696 14.6021 27.9238 14.7266 27.3876H14.8415C14.9851 27.3876 15.1288 27.3301 15.2245 27.2248C15.3298 27.1291 15.3873 26.9854 15.3873 26.8418V25.597C16.6608 25.281 17.9535 24.1799 18.1258 22.4946C19.3323 21.7095 20.7782 21.2594 22.3102 21.2594C22.5783 21.2594 22.8464 21.2786 23.1145 21.3073V19.6125C23.0954 19.5455 23.0858 19.4689 23.0858 19.4018C23.0858 19.2774 23.1145 19.1625 23.1528 19.0476C23.1241 18.9422 23.1145 18.8369 23.1145 18.7316V15.5717C23.0954 15.4951 23.0858 15.4281 23.0858 15.3515C23.0858 15.2845 23.0954 15.2175 23.1145 15.1504V14.2887L24.0146 13.695V15.476C24.0625 16.3473 27.1936 17.0463 31.0428 17.0463C34.8921 17.0463 38.0232 16.3473 38.0711 15.476V13.3024C36.1081 14.3844 31.6748 14.4323 31.0428 14.4323C30.4109 14.4323 25.9775 14.3844 24.0146 13.3024V13.695C23.8518 13.4843 23.6795 13.2737 23.5071 13.0726C23.3826 12.929 23.2486 12.7758 23.1145 12.6417V12.297C23.0954 12.2204 23.0858 12.1534 23.0858 12.0768C23.0858 11.9523 23.1145 11.8278 23.1528 11.7129C23.2294 11.4735 23.3731 11.282 23.5741 11.148C25.1924 9.77871 30.363 9.73083 31.0428 9.73083C31.7227 9.73083 36.8933 9.77871 38.5115 11.148C38.7126 11.282 38.8658 11.4831 38.9328 11.7225C38.9711 11.8278 38.9999 11.9523 38.9999 12.0768ZM38.0711 29.0441V27.4355C36.3954 28.4887 32.8334 28.6324 31.0428 28.6324C30.7556 28.6324 30.43 28.6324 30.0662 28.6228C30.0757 28.7569 30.0853 28.8909 30.0853 29.0345C30.0853 29.5708 30.0279 30.0974 29.9225 30.6049C30.2864 30.6145 30.6598 30.624 31.0428 30.624C34.8921 30.624 38.0232 29.9155 38.0711 29.0441ZM38.0711 26.0662V24.1607C36.3954 25.2236 32.8334 25.3576 31.0428 25.3576C30.5258 25.3576 29.8555 25.3481 29.1278 25.3098C29.5204 26.0183 29.798 26.7939 29.9513 27.6174C30.3055 27.6366 30.6694 27.6366 31.0428 27.6366C34.8921 27.6366 38.0232 26.9376 38.0711 26.0662ZM38.0711 22.7915V20.6179C36.1081 21.7095 31.6748 21.7478 31.0428 21.7478C30.4109 21.7478 25.9775 21.7095 24.0146 20.6179V21.4509C25.7956 21.8531 27.3468 22.8585 28.4288 24.2469C29.2427 24.3235 30.1236 24.3618 31.0428 24.3618C34.8921 24.3618 38.0232 23.6628 38.0711 22.7915ZM38.0711 18.7411V16.8452C36.3954 17.8985 32.8334 18.0422 31.0428 18.0422C29.2523 18.0422 25.6903 17.8985 24.0146 16.8452V18.7411C24.0625 19.6125 27.1936 20.3211 31.0428 20.3211C34.8921 20.3211 38.0232 19.6125 38.0711 18.7411ZM37.9179 12.0768C37.5061 11.6172 35.0357 10.8799 31.0428 10.8799C27.05 10.8799 24.5795 11.6172 24.1678 12.0768C24.5795 12.5364 27.05 13.2833 31.0428 13.2833C35.0357 13.2833 37.5061 12.5364 37.9179 12.0768ZM29.0895 29.0345C29.0895 25.3002 26.0446 22.2553 22.3102 22.2553C18.5759 22.2553 15.5405 25.3002 15.5405 29.0345C15.5405 32.7689 18.5759 35.8042 22.3102 35.8042C26.0446 35.8042 29.0895 32.7689 29.0895 29.0345Z" fill="#272525"/>
<path d="M22.3104 23.7969C25.2021 23.7969 27.548 26.1428 27.548 29.025C27.548 31.9071 25.2021 34.2626 22.3104 34.2626C19.4186 34.2626 17.0823 31.9167 17.0823 29.025C17.0823 26.1332 19.4282 23.7969 22.3104 23.7969ZM26.8873 29.025C26.8873 26.5067 24.8382 24.4576 22.3104 24.4576C19.7825 24.4576 17.743 26.5067 17.743 29.025C17.743 31.5433 19.7921 33.6019 22.3104 33.6019C24.8287 33.6019 26.8873 31.5528 26.8873 29.025Z" fill="#272525"/>
<path d="M24.2349 29.4559C24.3019 29.6474 24.3403 29.8581 24.3403 30.0879C24.3403 30.5188 24.187 30.9305 23.8998 31.2465C23.6987 31.4859 23.4402 31.6582 23.1338 31.7731V32.3572C23.1338 32.5391 22.9806 32.6923 22.7986 32.6923H21.9464C21.7645 32.6923 21.6209 32.5391 21.6209 32.3572V31.8689C21.5251 31.8497 21.4294 31.8306 21.3432 31.8018C21.0751 31.7252 20.8549 31.6199 20.6729 31.4859L20.558 31.4093C20.4336 31.3231 20.3857 31.1603 20.4335 31.0262L20.7495 30.1645C20.7783 30.0687 20.8549 29.9921 20.9506 29.9634C21.0464 29.9251 21.1613 29.9442 21.2379 30.0017L21.439 30.1262C21.6113 30.2411 21.9177 30.3847 22.2528 30.3656C22.3869 30.3656 22.5114 30.3368 22.5784 30.2794C22.6263 30.2411 22.6454 30.2028 22.6454 30.1357C22.6454 30.0974 22.6454 30.0687 22.6263 30.0496C22.6167 30.04 22.6071 30.0113 22.5688 29.973C22.521 29.9251 22.3965 29.8293 22.1092 29.7144C21.7454 29.5708 21.4773 29.4272 21.257 29.274C20.9698 29.0729 20.7687 28.8335 20.6538 28.5654C20.5676 28.3643 20.5197 28.1441 20.5197 27.9143C20.5197 27.4738 20.6825 27.0621 20.9793 26.7461C21.1613 26.5546 21.4007 26.3918 21.6783 26.2865V25.7311C21.6783 25.5492 21.822 25.396 22.0039 25.396H22.8465C23.0284 25.396 23.1816 25.5492 23.1816 25.7311V26.2003C23.4402 26.2482 23.6891 26.3439 23.9189 26.478L24.053 26.5546C24.1871 26.6312 24.2445 26.8036 24.1871 26.9568L23.8711 27.809C23.8328 27.8951 23.7657 27.9717 23.67 28.0005C23.5742 28.0388 23.4785 28.0292 23.3923 27.9813L23.2104 27.8664C23.1338 27.8281 23.0572 27.7898 22.9423 27.7515C22.8082 27.7036 22.6646 27.6845 22.5018 27.6845C22.3773 27.6845 22.2816 27.7036 22.2337 27.7515C22.2145 27.7707 22.205 27.7994 22.205 27.8185C22.205 27.8473 22.2145 27.8568 22.2145 27.8664C22.2241 27.876 22.2337 27.8951 22.2528 27.9143C22.3199 27.9622 22.4635 28.0579 22.8178 28.2015C22.8274 28.2111 22.8369 28.2111 22.8561 28.2207C23.2008 28.3643 23.4689 28.5175 23.6891 28.6995C23.9477 28.9101 24.1296 29.1591 24.2349 29.4559ZM23.67 30.0879C23.67 29.9347 23.6508 29.8006 23.6125 29.6761C23.5455 29.5038 23.4306 29.341 23.2678 29.2069C23.0955 29.0729 22.8848 28.9484 22.588 28.8239H22.5784C22.205 28.6707 21.9656 28.5367 21.822 28.4122C21.7262 28.326 21.6592 28.2398 21.6113 28.1441C21.573 28.0483 21.5443 27.943 21.5443 27.8185C21.5443 27.6079 21.6305 27.4164 21.7741 27.2727C21.9464 27.1004 22.1954 27.0142 22.5018 27.0142C22.7316 27.0142 22.9518 27.0525 23.1529 27.1195C23.2391 27.1483 23.3157 27.177 23.3827 27.2153L23.4689 26.9855C23.2774 26.8897 23.0572 26.8323 22.8178 26.8131C22.6454 26.794 22.5114 26.6504 22.5114 26.478V26.0567H22.339V26.5354C22.339 26.6887 22.2337 26.8227 22.0805 26.861C21.8315 26.9185 21.6113 27.0429 21.4581 27.2057C21.2858 27.3876 21.1804 27.6462 21.19 27.9143C21.19 28.0483 21.2091 28.1824 21.257 28.2973C21.3336 28.4601 21.4581 28.6037 21.64 28.7378C21.8124 28.8527 22.0422 28.9676 22.3486 29.092C22.6646 29.2165 22.8944 29.3601 23.0476 29.5134C23.1338 29.5995 23.1912 29.6857 23.2391 29.791C23.287 29.8964 23.3061 30.0113 23.3061 30.1357C23.3061 30.3943 23.2008 30.6241 23.0093 30.7869C22.8082 30.9496 22.5497 31.0358 22.2433 31.0358C21.8986 31.0358 21.5347 30.9401 21.2283 30.7773L21.1517 31.0071C21.257 31.0645 21.3815 31.122 21.5251 31.1603C21.6783 31.2082 21.8315 31.2369 21.9847 31.2465C22.1475 31.2656 22.2816 31.4093 22.2816 31.5816V32.0316H22.4731V31.5337C22.4731 31.3805 22.5688 31.2465 22.722 31.2082C22.9997 31.1411 23.2391 31.0071 23.4019 30.8156C23.5742 30.6145 23.67 30.356 23.67 30.0879Z" fill="#272525"/>
<path d="M23.5071 13.0725C23.6794 13.2736 23.8518 13.4842 24.0146 13.6949L23.1145 14.2885V12.6416C23.2486 12.7757 23.3826 12.9289 23.5071 13.0725Z" fill="#272525"/>
<path d="M23.6127 29.6761C23.651 29.8006 23.6702 29.9346 23.6702 30.0878C23.6702 30.3559 23.5744 30.6145 23.402 30.8155C23.2393 31.007 22.9999 31.1411 22.7222 31.2081C22.569 31.2464 22.4732 31.3805 22.4732 31.5337V32.0316H22.2817V31.5816C22.2817 31.4092 22.1477 31.2656 21.9849 31.2464C21.8317 31.2369 21.6785 31.2081 21.5253 31.1603C21.3817 31.122 21.2572 31.0645 21.1519 31.007L21.2285 30.7772C21.5349 30.94 21.8987 31.0358 22.2434 31.0358C22.5498 31.0358 22.8084 30.9496 23.0095 30.7868C23.201 30.624 23.3063 30.3942 23.3063 30.1357C23.3063 30.0112 23.2871 29.8963 23.2393 29.791C23.1914 29.6857 23.1339 29.5995 23.0478 29.5133C22.8946 29.3601 22.6647 29.2165 22.3488 29.092C22.0424 28.9675 21.8125 28.8526 21.6402 28.7377C21.4583 28.6037 21.3338 28.46 21.2572 28.2972C21.2093 28.1823 21.1902 28.0483 21.1902 27.9142C21.1806 27.6461 21.2859 27.3876 21.4583 27.2057C21.6115 27.0429 21.8317 26.9184 22.0807 26.861C22.2339 26.8227 22.3392 26.6886 22.3392 26.5354V26.0566H22.5115V26.478C22.5115 26.6503 22.6456 26.7939 22.818 26.8131C23.0573 26.8322 23.2776 26.8897 23.4691 26.9854L23.3829 27.2152C23.3159 27.1769 23.2393 27.1482 23.1531 27.1195C22.952 27.0525 22.7318 27.0142 22.502 27.0142C22.1956 27.0142 21.9466 27.1003 21.7742 27.2727C21.6306 27.4163 21.5444 27.6078 21.5444 27.8185C21.5444 27.943 21.5732 28.0483 21.6115 28.144C21.6593 28.2398 21.7264 28.326 21.8221 28.4122C21.9658 28.5366 22.2051 28.6707 22.5786 28.8239H22.5881C22.885 28.9484 23.0956 29.0728 23.268 29.2069C23.4308 29.341 23.5457 29.5037 23.6127 29.6761Z" fill="#FFF200"/>
<path d="M23.1147 12.6417V14.2887C21.8603 12.7183 20.3666 11.4927 18.7579 10.832H9.09649C5.20894 12.4502 1.082 18.4731 1.082 24.9842C1.082 26.8993 1.49374 28.2207 2.35551 29.0537C3.89713 30.5379 6.96121 30.4325 10.5041 30.3081C11.6052 30.2698 12.7447 30.2219 13.9224 30.2219C14.2767 30.2219 14.4778 30.2219 14.631 30.2315C14.698 30.6049 14.7842 30.9688 14.8895 31.323C14.6406 31.3135 14.4969 31.3039 13.9224 31.3039C12.7638 31.3039 11.6339 31.3422 10.5424 31.3805C9.56568 31.4188 8.6273 31.4475 7.7368 31.4475C5.16106 31.4475 2.99705 31.1698 1.59907 29.8293C0.526637 28.7856 0 27.2057 0 24.9842C0 19.3348 3.53327 11.8757 8.79008 9.7883C8.85711 9.76915 8.92413 9.75 8.99116 9.75H18.8632C18.9303 9.75 18.9973 9.76915 19.0643 9.7883C20.5868 10.4011 21.9465 11.3969 23.1147 12.6417Z" fill="#272525"/>
<path d="M20.4624 0.605591C20.7592 0.605591 21.0081 0.854548 21.0081 1.15138C21.0081 3.49732 20.0698 6.92526 18.4899 8.60093C18.3941 8.71583 18.2505 8.77328 18.0973 8.77328H9.64232C9.48912 8.77328 9.34549 8.71583 9.24974 8.60093C7.6794 6.92526 6.73145 3.49732 6.73145 1.15138C6.73145 0.854548 6.9804 0.605591 7.27723 0.605591H20.4624ZM19.907 1.68759H7.8326C7.95708 3.66967 8.71352 6.29329 9.8817 7.69128H17.8579C19.0261 6.29329 19.7825 3.66967 19.907 1.68759Z" fill="#272525"/>
<path d="M18.145 22.0732C18.145 22.1977 18.1354 22.3317 18.1258 22.4754V22.4945C16.4119 23.5861 15.1575 25.3384 14.7266 27.3875H13.1946C12.8978 27.3875 12.6488 27.1481 12.6488 26.8513V25.7693C11.9785 25.6831 10.7816 25.482 9.95816 24.9745C9.7475 24.8405 9.65175 24.5819 9.72835 24.3521L10.3603 22.4179C10.4082 22.2647 10.5231 22.1402 10.6667 22.0828C10.8199 22.0253 10.9827 22.0349 11.1263 22.1115C11.1359 22.1115 11.8158 22.4754 12.5913 22.6382C13.501 22.8201 14.4394 22.6382 14.4968 22.3605C14.5543 22.1019 14.6021 21.92 13.4723 21.5945C12.9361 21.4413 10.2263 20.5699 9.98688 18.5208C9.76665 16.6632 10.705 15.3514 12.6297 14.8056V13.58C12.6297 13.2831 12.869 13.0342 13.1659 13.0342H14.8224C15.1192 13.0342 15.3586 13.2831 15.3586 13.58V14.5375C15.9618 14.6141 16.9194 14.7769 17.4364 15.112C17.6279 15.2365 17.7237 15.4567 17.6758 15.6865L17.2736 17.4579C17.2449 17.6112 17.1492 17.7356 17.0151 17.8122C16.8811 17.8793 16.7279 17.8984 16.5746 17.8505C16.5651 17.8505 15.0618 17.3526 14.0947 17.4196C13.9606 17.4292 13.7404 17.4675 13.6925 17.6399C13.6638 17.7644 13.7404 17.975 13.9606 18.1091C14.516 18.4729 15.3011 18.7793 15.8661 19.0091C16.1916 19.1336 16.4502 19.2389 16.6225 19.3251C16.8906 19.4687 18.145 20.2348 18.145 22.0732ZM17.0534 22.37C17.1875 20.9242 16.297 20.3784 16.115 20.2826C16.0001 20.2156 15.7416 20.1199 15.4735 20.0145C14.8607 19.7656 14.0276 19.4304 13.3765 19.0187C12.7829 18.6453 12.4956 17.975 12.6488 17.3718C12.802 16.7877 13.3191 16.3951 14.0181 16.3472C14.7841 16.2898 15.7512 16.5004 16.3448 16.6632L16.5268 15.878C16.048 15.7153 15.282 15.6003 14.7745 15.562C14.4968 15.5429 14.2766 15.3035 14.2766 15.0258V14.1162H13.7021V15.2269C13.7021 15.4854 13.5297 15.7057 13.2808 15.7536C11.5955 16.1174 10.887 16.9505 11.0593 18.3963C11.1934 19.5262 12.8882 20.3114 13.7691 20.5603C14.5064 20.771 15.8757 21.1636 15.5501 22.5999C15.2724 23.8255 13.501 23.9212 12.3711 23.6914C11.9211 23.5957 11.5093 23.4521 11.1934 23.3276L10.8965 24.2468C11.7008 24.5819 12.802 24.716 13.2233 24.7351C13.5106 24.7447 13.7308 24.9841 13.7308 25.2714V26.3055H14.3053V25.1373C14.2957 24.8596 14.5064 24.6202 14.7937 24.6011C15.7895 24.5149 16.9289 23.7106 17.0534 22.37Z" fill="#272525"/>
<path d="M18.1258 22.4946C17.9534 24.1799 16.6608 25.281 15.3777 25.597V26.8418C15.3777 26.9854 15.3298 27.1291 15.2245 27.2248C15.1287 27.3301 14.9851 27.3876 14.8415 27.3876H14.7266C15.1574 25.3385 16.4118 23.5862 18.1258 22.4946Z" fill="#272525"/>
<path d="M16.115 20.2827C16.2969 20.3784 17.1874 20.9242 17.0534 22.3701C16.9289 23.7106 15.7894 24.5149 14.7936 24.6011C14.5064 24.6203 14.2957 24.8596 14.2957 25.1373V26.3055H13.7308V25.2714C13.7308 24.9841 13.5105 24.7447 13.2233 24.7352C12.802 24.716 11.7008 24.582 10.8965 24.2468L11.1933 23.3276C11.5093 23.4521 11.921 23.5957 12.3711 23.6915C13.501 23.9213 15.2724 23.8255 15.5501 22.5999C15.8756 21.1636 14.5064 20.771 13.7691 20.5604C12.8881 20.3114 11.1933 19.5262 11.0593 18.3963C10.8869 16.9505 11.5955 16.1174 13.2807 15.7536C13.5297 15.7057 13.702 15.4855 13.702 15.2269V14.1162H14.2766V15.0259C14.2766 15.3035 14.4968 15.5429 14.7745 15.5621C15.282 15.6004 16.048 15.7153 16.5267 15.8781L16.3448 16.6632C15.7511 16.5004 14.784 16.2898 14.018 16.3472C13.319 16.3951 12.802 16.7877 12.6488 17.3718C12.4956 17.975 12.7828 18.6453 13.3765 19.0187C14.0276 19.4305 14.8606 19.7656 15.4735 20.0146C15.7416 20.1199 16.0001 20.2156 16.115 20.2827Z" fill="#FFF200"/>
<path d="M15.5503 30.26L15.5312 31.3421C15.2152 31.3325 15.0333 31.3325 14.8896 31.3229C14.7843 30.9686 14.6981 30.6048 14.6311 30.2313C14.8801 30.2313 15.0237 30.2505 15.5503 30.26Z" fill="#272525"/>
</svg>
