<svg width="36" height="35" viewBox="0 0 36 35" fill="none" xmlns="http://www.w3.org/2000/svg">
<path d="M35.0945 22.6689V32.367C35.0945 33.5056 34.172 34.428 33.0335 34.428H2.06096C0.922442 34.428 0 33.5056 0 32.367V22.6689C0 21.5304 0.922442 20.6079 2.06096 20.6079H11.2106V17.3752C11.2106 16.8849 11.3436 16.4195 11.568 16.0373C11.435 15.9957 11.3187 15.9043 11.2522 15.7796C11.1608 15.6051 11.1691 15.3891 11.2771 15.2228L17.4517 5.90698V4.26153C17.4184 4.18674 17.3935 4.10364 17.3935 4.02053V0.538509C17.3935 0.355682 17.4849 0.189475 17.6345 0.0897515C17.7841 -0.00997238 17.9752 -0.026593 18.1414 0.0398895L22.3714 1.77675C22.5708 1.85985 22.7038 2.0593 22.7038 2.28368C22.7038 2.50805 22.5708 2.69919 22.3714 2.7823L18.5403 4.36126V5.85711L24.7398 15.2228C24.8479 15.3891 24.8562 15.6051 24.7648 15.7796C24.6983 15.9043 24.5819 15.9957 24.4573 16.0373C24.6733 16.4195 24.8063 16.8849 24.8063 17.3752V20.6079H33.0335C34.172 20.6079 35.0945 21.5304 35.0945 22.6689ZM34.0058 32.367V22.6689C34.0058 22.1287 33.5737 21.6966 33.0335 21.6966H24.2578C24.1082 21.6966 23.967 21.6301 23.8589 21.5221C23.7592 21.414 23.7093 21.2645 23.7177 21.1149C23.7177 21.0733 23.726 21.0235 23.726 20.9819V17.3752C23.726 16.6688 23.2772 16.0705 22.7537 16.0705H13.2716C12.7397 16.0705 12.2993 16.6688 12.2993 17.3752V21.1149C12.3159 21.2645 12.2577 21.414 12.158 21.5221C12.0583 21.6301 11.917 21.6966 11.7591 21.6966H2.06096C1.52079 21.6966 1.08865 22.1287 1.08865 22.6689V32.367C1.08865 32.9072 1.52079 33.3393 2.06096 33.3393H15.1663V26.6994C15.1663 26.4002 15.4073 26.1592 15.7065 26.1592H19.8201C20.1193 26.1592 20.3603 26.4002 20.3603 26.6994V33.3393H33.0335C33.5737 33.3393 34.0058 32.9072 34.0058 32.367ZM23.2772 14.9818L18.0085 7.02887L12.7397 14.9818H23.2772ZM18.4822 3.21443L20.7426 2.28368L18.4822 1.35292V3.21443ZM19.2716 33.2562V27.2396H16.2467V33.2562H19.2716Z" fill="#272525"/>
<path d="M31.6622 26.2672V28.9763C31.6622 29.1259 31.5375 29.2423 31.3879 29.2423H28.6788C28.5292 29.2423 28.4128 29.1259 28.4128 28.9763V26.2672C28.4128 26.1176 28.5292 25.9929 28.6788 25.9929H31.3879C31.5375 25.9929 31.6622 26.1176 31.6622 26.2672ZM31.122 28.7021V26.5331H28.953V28.7021H31.122Z" fill="#272525"/>
<path d="M27.316 26.2672V28.9763C27.316 29.1259 27.1996 29.2423 27.0501 29.2423H24.3409C24.1913 29.2423 24.0667 29.1259 24.0667 28.9763V26.2672C24.0667 26.1176 24.1913 25.9929 24.3409 25.9929H27.0501C27.1996 25.9929 27.316 26.1176 27.316 26.2672ZM26.7758 28.7021V26.5331H24.6068V28.7021H26.7758Z" fill="#272525"/>
<path d="M21.6732 18.6052V21.3143C21.6732 21.4639 21.5568 21.5886 21.4072 21.5886H18.6981C18.5485 21.5886 18.4238 21.4639 18.4238 21.3143V18.6052C18.4238 18.4556 18.5485 18.3392 18.6981 18.3392H21.4072C21.5568 18.3392 21.6732 18.4556 21.6732 18.6052ZM21.133 21.0484V18.8794H18.964V21.0484H21.133Z" fill="#272525"/>
<path d="M20.7426 2.28378L18.4822 3.21454V1.35303L20.7426 2.28378Z" fill="#F38630"/>
<path d="M17.3353 18.6052V21.3143C17.3353 21.4639 17.2106 21.5886 17.061 21.5886H14.3519C14.2023 21.5886 14.0776 21.4639 14.0776 21.3143V18.6052C14.0776 18.4556 14.2023 18.3392 14.3519 18.3392H17.061C17.2106 18.3392 17.3353 18.4556 17.3353 18.6052ZM16.7868 21.0484V18.8794H14.6261V21.0484H16.7868Z" fill="#272525"/>
<path d="M11.5098 26.2672V28.9763C11.5098 29.1259 11.3935 29.2423 11.2439 29.2423H8.53474C8.38515 29.2423 8.2605 29.1259 8.2605 28.9763V26.2672C8.2605 26.1176 8.38515 25.9929 8.53474 25.9929H11.2439C11.3935 25.9929 11.5098 26.1176 11.5098 26.2672ZM10.9697 28.7021V26.5331H8.80067V28.7021H10.9697Z" fill="#272525"/>
<path d="M7.17171 26.2672V28.9763C7.17171 29.1259 7.04705 29.2423 6.89747 29.2423H4.1883C4.03872 29.2423 3.91406 29.1259 3.91406 28.9763V26.2672C3.91406 26.1176 4.03872 25.9929 4.1883 25.9929H6.89747C7.04705 25.9929 7.17171 26.1176 7.17171 26.2672ZM6.62322 28.7021V26.5331H4.46254V28.7021H6.62322Z" fill="#272525"/>
</svg>
