<svg width="45" height="34" viewBox="0 0 45 34" fill="none" xmlns="http://www.w3.org/2000/svg">
<path d="M44.2046 12.7707C44.2046 18.2962 40.9417 23.074 36.2416 25.2784L36.193 25.1716C36.0473 24.6472 35.824 24.152 35.5521 23.6956C39.6501 21.7534 42.476 17.5873 42.476 12.7707C42.476 8.61438 40.359 4.81739 36.9505 2.61299C37.2127 3.69091 37.3389 4.78825 37.3389 5.91473C37.3389 11.4403 34.076 16.2181 29.3662 18.4225L29.3079 18.2865C29.3079 18.2865 29.3079 18.2768 29.2982 18.2671C29.1623 17.7621 28.9777 17.2766 28.7544 16.8105C32.8136 14.8683 35.6201 10.712 35.6201 5.91473C35.6201 4.27357 35.2996 2.69068 34.6684 1.19519C34.5324 0.874726 34.6004 0.495997 34.8529 0.253223C35.0957 0.000737069 35.4744 -0.0672399 35.7949 0.0687139C40.9028 2.23426 44.2046 7.22571 44.2046 12.7707Z" fill="#272525"/>
<path d="M36.9502 2.61304C40.3587 4.81743 42.4757 8.61443 42.4757 12.7707C42.4757 17.5874 39.6498 21.7534 35.5518 23.6956C34.3768 21.7048 32.1529 20.3647 29.6087 20.355C29.5892 19.6461 29.4921 18.9469 29.3076 18.2866L29.3659 18.4225C34.0757 16.2181 37.3386 11.4403 37.3386 5.91477C37.3386 4.7883 37.2124 3.69096 36.9502 2.61304Z" fill="#E0E4CC"/>
<path d="M36.1929 25.1716C36.3677 25.7446 36.4551 26.3564 36.4551 26.9779C36.4551 30.6098 33.3864 33.5813 29.6282 33.6008H18.6548C18.3441 33.6008 18.0819 33.3968 17.9945 33.1055C17.975 33.0667 17.975 33.0181 17.975 32.9696C17.6157 33.057 17.2467 33.1055 16.868 33.1055H4.83607C2.16555 33.0958 0 30.8914 0 28.1917C0 25.4921 2.3889 23.0838 5.23422 23.2974C5.39931 21.967 6.03052 20.7337 7.02105 19.8112C8.07954 18.8109 9.4585 18.2671 10.9152 18.2671C11.692 18.2671 12.4301 18.4225 13.1098 18.7041C13.9353 14.8877 17.2661 12.1104 21.2574 12.1104C24.5397 12.1104 27.385 14.0331 28.7542 16.8105C28.7348 16.8105 28.7251 16.8202 28.7057 16.8299L29.2981 18.2671L29.3078 18.2865C29.4923 18.9469 29.5894 19.6461 29.6088 20.355C32.1531 20.3647 34.3769 21.7048 35.5519 23.6956C35.5228 23.715 35.484 23.7247 35.4548 23.7441L36.1929 25.1716ZM35.0761 26.9779C35.0761 24.084 32.6095 21.7242 29.5894 21.7242C29.3855 21.7242 29.1815 21.7437 28.9776 21.7631C28.7834 21.7825 28.5794 21.7145 28.4338 21.5689C28.2881 21.4329 28.2104 21.229 28.2201 21.0347C28.2201 20.8697 28.2396 20.7046 28.2396 20.5395C28.2396 16.6551 25.1029 13.4893 21.2574 13.4893C17.7808 13.4893 14.8967 16.0239 14.3626 19.4421C15.6832 20.4521 16.5572 22.0156 16.6349 23.7927C17.4701 23.8898 18.247 24.1714 18.9267 24.5987C20.4513 25.3367 21.5098 26.8613 21.5098 28.619C21.5098 28.8812 21.4807 29.1337 21.4322 29.3862C21.3739 30.4156 21.0049 31.4061 20.3834 32.2218H29.6185C32.6289 32.2024 35.0761 29.8523 35.0761 26.9779ZM20.1309 28.619C20.1309 26.9002 18.6548 25.5018 16.8389 25.5018C16.7126 25.5018 16.5961 25.5115 16.4698 25.5212L15.9843 25.5698C15.7804 25.5989 15.5764 25.5212 15.4308 25.3853C15.2851 25.2396 15.2074 25.0454 15.2171 24.8415L15.256 24.3462C15.2657 24.2394 15.2657 24.1326 15.2657 24.0452C15.2657 21.6174 13.3138 19.6461 10.9152 19.6461C9.81781 19.6461 8.76902 20.0637 7.96301 20.8114C7.157 21.5689 6.66174 22.5885 6.57434 23.6859L6.54521 24.1228C6.52578 24.3171 6.43839 24.4822 6.29272 24.6084C6.13735 24.7249 5.95284 24.7735 5.76833 24.7541L5.33133 24.6958C5.17596 24.6764 5.02058 24.6667 4.86521 24.6667C2.94243 24.6667 1.36925 26.2496 1.36925 28.1917C1.36925 30.1339 2.93272 31.7168 4.84578 31.7265H16.8486C18.6645 31.7168 20.1309 30.3185 20.1309 28.619Z" fill="#272525"/>
<path d="M36.1929 25.1716L35.4548 23.7441C35.4548 23.7441 35.5228 23.715 35.5519 23.6956C35.8239 24.152 36.0472 24.6472 36.1929 25.1716Z" fill="#272525"/>
<path d="M29.2982 18.2672L28.7058 16.83C28.7058 16.83 28.7349 16.8105 28.7544 16.8105C28.9777 17.2767 29.1622 17.7622 29.2982 18.2672Z" fill="#272525"/>
</svg>
