<svg width="55" height="48" viewBox="0 0 55 48" fill="none" xmlns="http://www.w3.org/2000/svg">
<path d="M27.5 39.2366C30.8164 39.2366 33.5672 38.1129 35.7523 35.8656C37.9374 33.6183 39.0299 30.8783 39.0299 27.6456C39.0299 24.4635 37.9374 21.7361 35.7523 19.4635C33.5672 17.1909 30.8164 16.0546 27.5 16.0546C24.1836 16.0546 21.4328 17.1909 19.2477 19.4635C17.0626 21.7361 15.9701 24.4635 15.9701 27.6456C15.9701 30.8783 17.0626 33.6183 19.2477 35.8656C21.4328 38.1129 24.1836 39.2366 27.5 39.2366ZM27.5 35.2873C25.2684 35.2873 23.4435 34.5746 22.0255 33.149C20.6075 31.7235 19.8985 29.9143 19.8985 27.7215C19.8985 25.5793 20.6075 23.7575 22.0255 22.256C23.4435 20.7546 25.2684 20.0038 27.5 20.0038C29.7316 20.0038 31.5565 20.7546 32.9745 22.256C34.3925 23.7575 35.1015 25.5793 35.1015 27.7215C35.1015 29.9143 34.3925 31.7235 32.9745 33.149C31.5565 34.5746 29.7316 35.2873 27.5 35.2873ZM0 48V7.29116H13.6338L19.0733 0H35.9267L41.3662 7.29116H55V48H0Z" fill="#FDFEFE"/>
</svg>
