<svg width="63" height="65" viewBox="0 0 63 65" fill="none" xmlns="http://www.w3.org/2000/svg">
<path d="M7.40209 65V34.4167L2.63185 38.1667L0 34.5833L7.40209 28.8333V19.25H11.8433V25.3333L31.4178 10.25L63 34.4167L60.2859 38.0833L55.4334 34.25V65H7.40209ZM11.8433 60.5H25.4138V43.8333H37.4217V60.5H50.9922V30.8333L31.4178 15.9167L11.8433 31V60.5ZM7.40209 15.0833C7.40209 12.4167 8.25185 10.1111 9.95137 8.16667C11.6509 6.22222 14.075 5.25 17.2235 5.25C19.1198 5.25 20.4928 4.73611 21.3427 3.70833C22.1926 2.68056 22.6175 1.44444 22.6175 0H27.0587C27.0587 2.66667 26.1952 4.97222 24.468 6.91667C22.7409 8.86111 20.3236 9.83333 17.2163 9.83333C15.3341 9.83333 13.968 10.3472 13.1181 11.375C12.2683 12.4028 11.8433 13.6389 11.8433 15.0833H7.40209Z" fill="white"/>
</svg>
