<svg width="64" height="45" viewBox="0 0 64 45" fill="none" xmlns="http://www.w3.org/2000/svg">
<path d="M13.0802 45C10.7601 45 8.7938 44.186 7.1814 42.5581C5.56899 40.9302 4.76279 38.9535 4.76279 36.6279H0V0H46.2884V11.5116H53.8791L64 24.9668V36.6279H58.6419C58.6419 38.9535 57.8298 40.9302 56.2058 42.5581C54.5817 44.186 52.6096 45 50.2895 45C48.0107 45 46.0796 44.186 44.4961 42.5581C42.9127 40.9302 42.1209 38.9535 42.1209 36.6279H21.4326C21.4326 38.9701 20.6205 40.951 18.9965 42.5706C17.3724 44.1902 15.4003 45 13.0802 45ZM13.0951 40.9635C14.2875 40.9635 15.3054 40.5407 16.1488 39.6953C16.9922 38.8499 17.414 37.8283 17.414 36.6305C17.414 35.4328 16.9931 34.4103 16.1514 33.5631C15.3098 32.7159 14.2927 32.2924 13.1003 32.2924C11.9078 32.2924 10.8899 32.7151 10.0465 33.5605C9.2031 34.4059 8.78139 35.4275 8.78139 36.6253C8.78139 37.823 9.20223 38.8455 10.0439 39.6927C10.8856 40.5399 11.9026 40.9635 13.0951 40.9635ZM4.0186 32.5914H6.10233C6.69767 31.3455 7.61627 30.3115 8.85812 29.4892C10.0999 28.6669 11.5139 28.2558 13.1 28.2558C14.5868 28.2558 15.9752 28.6794 17.2651 29.5266C18.555 30.3738 19.4977 31.3953 20.093 32.5914H42.2698V4.03654H4.0186V32.5914ZM50.3044 40.9635C51.4968 40.9635 52.5147 40.5407 53.3581 39.6953C54.2015 38.8499 54.6233 37.8283 54.6233 36.6305C54.6233 35.4328 54.2024 34.4103 53.3607 33.5631C52.5191 32.7159 51.502 32.2924 50.3096 32.2924C49.1171 32.2924 48.0992 32.7151 47.2558 33.5605C46.4124 34.4059 45.9907 35.4275 45.9907 36.6253C45.9907 37.823 46.4115 38.8455 47.2532 39.6927C48.0949 40.5399 49.1119 40.9635 50.3044 40.9635ZM46.2884 26.4618H60.1302L51.7953 15.5482H46.2884V26.4618Z" fill="white"/>
</svg>
