<svg width="54" height="61" viewBox="0 0 54 61" fill="none" xmlns="http://www.w3.org/2000/svg">
<path d="M21.24 48.8724H24.12V37.2878C25.32 37.2878 26.34 36.8655 27.18 36.0208C28.02 35.1761 28.44 34.1503 28.44 32.9436V24.2552H25.56V32.9436H24.12V24.2552H21.24V32.9436H19.8V24.2552H16.92V32.9436C16.92 34.1503 17.34 35.1761 18.18 36.0208C19.02 36.8655 20.04 37.2878 21.24 37.2878V48.8724ZM32.76 48.8724H35.64V24.2552C34.08 24.2552 32.73 24.8224 31.59 25.9567C30.45 27.091 29.88 28.4546 29.88 30.0475V38.7359H32.76V48.8724ZM0 61V20.454L27 0L54 20.454V61H0ZM4.86 56.1128H49.14V22.8071L27 6.1543L4.86 22.8071V56.1128Z" fill="white"/>
</svg>
