<svg width="64" height="58" viewBox="0 0 64 58" fill="none" xmlns="http://www.w3.org/2000/svg">
<path d="M3.39171 58C4.66974 54.3104 5.50538 50.5471 5.89862 46.7099C6.29186 42.8728 6.53763 38.9864 6.63594 35.0509C4.62058 34.3622 3.01075 33.12 1.80645 31.3244C0.60215 29.5288 0 27.352 0 24.7939V20.514C5.60369 18.6446 11.3057 15.8159 17.106 12.028C22.9063 8.24003 27.871 4.2307 32 0C36.129 4.2307 41.0937 8.24003 46.894 12.028C52.6943 15.8159 58.3963 18.6446 64 20.514V24.7939C64 27.352 63.3979 29.5288 62.1936 31.3244C60.9892 33.12 59.3794 34.3622 57.3641 35.0509C57.4624 38.9864 57.7081 42.8728 58.1014 46.7099C58.4946 50.5471 59.3303 54.3104 60.6083 58H3.39171ZM8.70046 20.8092H55.2995C50.8264 18.8414 46.5868 16.5416 42.5806 13.9097C38.5745 11.2778 35.0476 8.41221 32 5.31298C28.9524 8.41221 25.4255 11.2778 21.4194 13.9097C17.4132 16.5416 13.1736 18.8414 8.70046 20.8092ZM39.5945 31.4351C41.2657 31.4351 42.6052 30.771 43.6129 29.4427C44.6206 28.1145 45.1244 26.5649 45.1244 24.7939H34.0645C34.0645 26.5649 34.5684 28.1145 35.576 29.4427C36.5837 30.771 37.9232 31.4351 39.5945 31.4351ZM24.553 31.4351C26.2243 31.4351 27.5637 30.771 28.5714 29.4427C29.5791 28.1145 30.0829 26.5649 30.0829 24.7939H19.023C19.023 26.5649 19.5269 28.1145 20.5346 29.4427C21.5422 30.771 22.8817 31.4351 24.553 31.4351ZM9.51152 31.4351C11.1828 31.4351 12.5223 30.771 13.53 29.4427C14.5376 28.1145 15.0415 26.5649 15.0415 24.7939H3.98157C3.98157 26.5649 4.48541 28.1145 5.49309 29.4427C6.50077 30.771 7.84025 31.4351 9.51152 31.4351ZM8.553 54.0153H18.6544C19.1459 50.7684 19.5515 47.5216 19.871 44.2748C20.1905 41.028 20.3994 37.732 20.4977 34.3868C19.8095 34.1408 19.1459 33.7103 18.5069 33.0954C17.8679 32.4805 17.3518 31.7549 16.9585 30.9186C16.172 32.2468 15.2381 33.2676 14.1567 33.9809C13.0753 34.6942 11.8955 35.1001 10.6175 35.1985C10.5192 38.3469 10.3349 41.4953 10.0645 44.6438C9.79416 47.7922 9.29032 50.916 8.553 54.0153ZM22.6359 54.0153H41.4378C40.9462 50.8668 40.553 47.7553 40.2581 44.6807C39.9631 41.606 39.7174 38.4945 39.5207 35.3461C37.9969 35.3461 36.5469 34.9402 35.1705 34.1285C33.7942 33.3168 32.7373 32.173 32 30.6972C31.2627 32.173 30.2181 33.3168 28.8664 34.1285C27.5146 34.9402 26.0522 35.3461 24.4793 35.3461C24.2826 38.4945 24.0492 41.606 23.7788 44.6807C23.5084 47.7553 23.1275 50.8668 22.6359 54.0153ZM45.3456 54.0153H55.447C54.7097 50.916 54.2058 47.8045 53.9355 44.6807C53.6651 41.5568 53.4808 38.4453 53.3825 35.3461C52.0553 35.2477 50.8141 34.8049 49.659 34.0178C48.5038 33.2307 47.6313 32.1484 47.0415 30.771C46.7465 31.7549 46.2673 32.542 45.6037 33.1323C44.9401 33.7226 44.2396 34.1408 43.5023 34.3868C43.6006 37.732 43.8095 41.0157 44.129 44.2379C44.4485 47.4601 44.8541 50.7193 45.3456 54.0153ZM54.6359 31.4351C56.3072 31.4351 57.6467 30.771 58.6544 29.4427C59.6621 28.1145 60.1659 26.5649 60.1659 24.7939H49.106C49.106 26.5649 49.6098 28.1145 50.6175 29.4427C51.6252 30.771 52.9647 31.4351 54.6359 31.4351Z" fill="white"/>
</svg>
