<svg width="24" height="24" viewBox="0 0 24 24" fill="#fff" xmlns="http://www.w3.org/2000/svg">
<g clip-path="url(#clip0_200_686)">
<path d="M3.25003 9.65002C3.13336 9.56669 3.06253 9.46252 3.03753 9.33752C3.01253 9.21252 3.05003 9.08336 3.15003 8.95002C4.18336 7.53336 5.4792 6.43336 7.03753 5.65002C8.59586 4.86669 10.2584 4.47502 12.025 4.47502C13.7917 4.47502 15.4584 4.85419 17.025 5.61252C18.5917 6.37086 19.9 7.46669 20.95 8.90002C21.0667 9.05002 21.1042 9.18336 21.0625 9.30002C21.0209 9.41669 20.95 9.51669 20.85 9.60002C20.75 9.68336 20.6334 9.72086 20.5 9.71252C20.3667 9.70419 20.25 9.63336 20.15 9.50002C19.2334 8.20002 18.0542 7.20419 16.6125 6.51252C15.1709 5.82086 13.6417 5.47502 12.025 5.47502C10.4084 5.47502 8.8917 5.82086 7.47503 6.51252C6.05836 7.20419 4.88336 8.20002 3.95003 9.50002C3.85003 9.65002 3.73336 9.73336 3.60003 9.75002C3.4667 9.76669 3.35003 9.73336 3.25003 9.65002ZM14.85 21.975C13.1167 21.5417 11.7 20.6792 10.6 19.3875C9.50003 18.0959 8.95003 16.5167 8.95003 14.65C8.95003 13.8167 9.25003 13.1167 9.85003 12.55C10.45 11.9834 11.175 11.7 12.025 11.7C12.875 11.7 13.6 11.9834 14.2 12.55C14.8 13.1167 15.1 13.8167 15.1 14.65C15.1 15.2 15.3084 15.6625 15.725 16.0375C16.1417 16.4125 16.6334 16.6 17.2 16.6C17.7667 16.6 18.25 16.4125 18.65 16.0375C19.05 15.6625 19.25 15.2 19.25 14.65C19.25 12.7167 18.5417 11.0917 17.125 9.77502C15.7084 8.45836 14.0167 7.80002 12.05 7.80002C10.0834 7.80002 8.3917 8.45836 6.97503 9.77502C5.55836 11.0917 4.85003 12.7084 4.85003 14.625C4.85003 15.025 4.88753 15.525 4.96253 16.125C5.03753 16.725 5.2167 17.425 5.50003 18.225C5.55003 18.375 5.54586 18.5084 5.48753 18.625C5.4292 18.7417 5.33336 18.825 5.20003 18.875C5.0667 18.925 4.93753 18.9209 4.81253 18.8625C4.68753 18.8042 4.60003 18.7084 4.55003 18.575C4.30003 17.925 4.12086 17.2792 4.01253 16.6375C3.9042 15.9959 3.85003 15.3334 3.85003 14.65C3.85003 12.4334 4.6542 10.575 6.26253 9.07502C7.87086 7.57502 9.7917 6.82502 12.025 6.82502C14.275 6.82502 16.2084 7.57502 17.825 9.07502C19.4417 10.575 20.25 12.4334 20.25 14.65C20.25 15.4834 19.9542 16.1792 19.3625 16.7375C18.7709 17.2959 18.05 17.575 17.2 17.575C16.35 17.575 15.6209 17.2959 15.0125 16.7375C14.4042 16.1792 14.1 15.4834 14.1 14.65C14.1 14.1 13.8959 13.6375 13.4875 13.2625C13.0792 12.8875 12.5917 12.7 12.025 12.7C11.4584 12.7 10.9709 12.8875 10.5625 13.2625C10.1542 13.6375 9.95003 14.1 9.95003 14.65C9.95003 16.2667 10.4292 17.6167 11.3875 18.7C12.3459 19.7834 13.5834 20.5417 15.1 20.975C15.25 21.025 15.35 21.1084 15.4 21.225C15.45 21.3417 15.4584 21.4667 15.425 21.6C15.3917 21.7167 15.325 21.8167 15.225 21.9C15.125 21.9834 15 22.0084 14.85 21.975ZM6.50003 4.42502C6.3667 4.50836 6.23336 4.52919 6.10003 4.48752C5.9667 4.44586 5.8667 4.35836 5.80003 4.22502C5.73336 4.09169 5.7167 3.97086 5.75003 3.86252C5.78336 3.75419 5.8667 3.65836 6.00003 3.57502C6.93336 3.07502 7.90836 2.69169 8.92503 2.42502C9.9417 2.15836 10.975 2.02502 12.025 2.02502C13.0917 2.02502 14.1334 2.15419 15.15 2.41252C16.1667 2.67086 17.15 3.04169 18.1 3.52502C18.25 3.60836 18.3375 3.70836 18.3625 3.82502C18.3875 3.94169 18.375 4.05836 18.325 4.17502C18.275 4.29169 18.1917 4.38336 18.075 4.45002C17.9584 4.51669 17.8167 4.50836 17.65 4.42502C16.7667 3.97502 15.8542 3.62919 14.9125 3.38752C13.9709 3.14586 13.0084 3.02502 12.025 3.02502C11.0584 3.02502 10.1084 3.13752 9.17503 3.36252C8.2417 3.58752 7.35003 3.94169 6.50003 4.42502ZM9.45003 21.625C8.4667 20.5917 7.71253 19.5375 7.18753 18.4625C6.66253 17.3875 6.40003 16.1167 6.40003 14.65C6.40003 13.1334 6.95003 11.8542 8.05003 10.8125C9.15003 9.77086 10.475 9.25002 12.025 9.25002C13.575 9.25002 14.9084 9.77086 16.025 10.8125C17.1417 11.8542 17.7 13.1334 17.7 14.65C17.7 14.8 17.6542 14.9209 17.5625 15.0125C17.4709 15.1042 17.35 15.15 17.2 15.15C17.0667 15.15 16.95 15.1042 16.85 15.0125C16.75 14.9209 16.7 14.8 16.7 14.65C16.7 13.4 16.2375 12.3542 15.3125 11.5125C14.3875 10.6709 13.2917 10.25 12.025 10.25C10.7584 10.25 9.67086 10.6709 8.76253 11.5125C7.8542 12.3542 7.40003 13.4 7.40003 14.65C7.40003 16 7.63336 17.1459 8.10003 18.0875C8.5667 19.0292 9.25003 19.975 10.15 20.925C10.25 21.025 10.3 21.1417 10.3 21.275C10.3 21.4084 10.25 21.525 10.15 21.625C10.05 21.725 9.93336 21.775 9.80003 21.775C9.6667 21.775 9.55003 21.725 9.45003 21.625ZM17 19.925C15.5167 19.925 14.2292 19.425 13.1375 18.425C12.0459 17.425 11.5 16.1667 11.5 14.65C11.5 14.5167 11.5459 14.4 11.6375 14.3C11.7292 14.2 11.85 14.15 12 14.15C12.15 14.15 12.2709 14.2 12.3625 14.3C12.4542 14.4 12.5 14.5167 12.5 14.65C12.5 15.9 12.95 16.925 13.85 17.725C14.75 18.525 15.8 18.925 17 18.925C17.1 18.925 17.2417 18.9167 17.425 18.9C17.6084 18.8834 17.8 18.8584 18 18.825C18.15 18.7917 18.2792 18.8125 18.3875 18.8875C18.4959 18.9625 18.5667 19.075 18.6 19.225C18.6334 19.3584 18.6084 19.475 18.525 19.575C18.4417 19.675 18.3334 19.7417 18.2 19.775C17.9 19.8584 17.6375 19.9042 17.4125 19.9125C17.1875 19.9209 17.05 19.925 17 19.925Z" fill="#EEEEEE"/>
</g>
<defs>
<clipPath id="clip0_200_686">
<rect width="24" height="24" fill="white"/>
</clipPath>
</defs>
</svg>
