<svg width="24" height="24" viewBox="0 0 24 24" fill="none" xmlns="http://www.w3.org/2000/svg">
<path d="M3.24979 9.6499C3.13312 9.56657 3.06229 9.4624 3.03729 9.3374C3.01229 9.2124 3.04979 9.08324 3.14979 8.9499C4.18312 7.53324 5.47895 6.43324 7.03729 5.6499C8.59562 4.86657 10.2581 4.4749 12.0248 4.4749C13.7915 4.4749 15.4581 4.85407 17.0248 5.6124C18.5915 6.37074 19.8998 7.46657 20.9498 8.8999C21.0665 9.0499 21.104 9.18324 21.0623 9.2999C21.0206 9.41657 20.9498 9.51657 20.8498 9.5999C20.7498 9.68324 20.6331 9.72074 20.4998 9.7124C20.3665 9.70407 20.2498 9.63324 20.1498 9.4999C19.2331 8.1999 18.054 7.20407 16.6123 6.5124C15.1706 5.82074 13.6415 5.4749 12.0248 5.4749C10.4081 5.4749 8.89145 5.82074 7.47479 6.5124C6.05812 7.20407 4.88312 8.1999 3.94979 9.4999C3.84979 9.6499 3.73312 9.73324 3.59979 9.7499C3.46645 9.76657 3.34979 9.73324 3.24979 9.6499ZM14.8498 21.9749C13.1165 21.5416 11.6998 20.6791 10.5998 19.3874C9.49979 18.0957 8.94979 16.5166 8.94979 14.6499C8.94979 13.8166 9.24979 13.1166 9.84979 12.5499C10.4498 11.9832 11.1748 11.6999 12.0248 11.6999C12.8748 11.6999 13.5998 11.9832 14.1998 12.5499C14.7998 13.1166 15.0998 13.8166 15.0998 14.6499C15.0998 15.1999 15.3081 15.6624 15.7248 16.0374C16.1415 16.4124 16.6331 16.5999 17.1998 16.5999C17.7665 16.5999 18.2498 16.4124 18.6498 16.0374C19.0498 15.6624 19.2498 15.1999 19.2498 14.6499C19.2498 12.7166 18.5415 11.0916 17.1248 9.7749C15.7081 8.45824 14.0165 7.7999 12.0498 7.7999C10.0831 7.7999 8.39145 8.45824 6.97479 9.7749C5.55812 11.0916 4.84979 12.7082 4.84979 14.6249C4.84979 15.0249 4.88729 15.5249 4.96229 16.1249C5.03729 16.7249 5.21645 17.4249 5.49979 18.2249C5.54979 18.3749 5.54562 18.5082 5.48729 18.6249C5.42895 18.7416 5.33312 18.8249 5.19979 18.8749C5.06645 18.9249 4.93729 18.9207 4.81229 18.8624C4.68729 18.8041 4.59979 18.7082 4.54979 18.5749C4.29979 17.9249 4.12062 17.2791 4.01229 16.6374C3.90395 15.9957 3.84979 15.3332 3.84979 14.6499C3.84979 12.4332 4.65395 10.5749 6.26229 9.0749C7.87062 7.5749 9.79145 6.8249 12.0248 6.8249C14.2748 6.8249 16.2081 7.5749 17.8248 9.0749C19.4415 10.5749 20.2498 12.4332 20.2498 14.6499C20.2498 15.4832 19.954 16.1791 19.3623 16.7374C18.7706 17.2957 18.0498 17.5749 17.1998 17.5749C16.3498 17.5749 15.6206 17.2957 15.0123 16.7374C14.404 16.1791 14.0998 15.4832 14.0998 14.6499C14.0998 14.0999 13.8956 13.6374 13.4873 13.2624C13.079 12.8874 12.5915 12.6999 12.0248 12.6999C11.4581 12.6999 10.9706 12.8874 10.5623 13.2624C10.154 13.6374 9.94979 14.0999 9.94979 14.6499C9.94979 16.2666 10.429 17.6166 11.3873 18.6999C12.3456 19.7832 13.5831 20.5416 15.0998 20.9749C15.2498 21.0249 15.3498 21.1082 15.3998 21.2249C15.4498 21.3416 15.4581 21.4666 15.4248 21.5999C15.3915 21.7166 15.3248 21.8166 15.2248 21.8999C15.1248 21.9832 14.9998 22.0082 14.8498 21.9749ZM6.49979 4.4249C6.36645 4.50824 6.23312 4.52907 6.09979 4.4874C5.96645 4.44574 5.86645 4.35824 5.79979 4.2249C5.73312 4.09157 5.71645 3.97074 5.74979 3.8624C5.78312 3.75407 5.86645 3.65824 5.99979 3.5749C6.93312 3.0749 7.90812 2.69157 8.92479 2.4249C9.94145 2.15824 10.9748 2.0249 12.0248 2.0249C13.0915 2.0249 14.1331 2.15407 15.1498 2.4124C16.1665 2.67074 17.1498 3.04157 18.0998 3.5249C18.2498 3.60824 18.3373 3.70824 18.3623 3.8249C18.3873 3.94157 18.3748 4.05824 18.3248 4.1749C18.2748 4.29157 18.1915 4.38324 18.0748 4.4499C17.9581 4.51657 17.8165 4.50824 17.6498 4.4249C16.7665 3.9749 15.854 3.62907 14.9123 3.3874C13.9706 3.14574 13.0081 3.0249 12.0248 3.0249C11.0581 3.0249 10.1081 3.1374 9.17479 3.3624C8.24145 3.5874 7.34979 3.94157 6.49979 4.4249ZM9.44979 21.6249C8.46645 20.5916 7.71229 19.5374 7.18729 18.4624C6.66229 17.3874 6.39979 16.1166 6.39979 14.6499C6.39979 13.1332 6.94979 11.8541 8.04979 10.8124C9.14979 9.77074 10.4748 9.2499 12.0248 9.2499C13.5748 9.2499 14.9081 9.77074 16.0248 10.8124C17.1415 11.8541 17.6998 13.1332 17.6998 14.6499C17.6998 14.7999 17.654 14.9207 17.5623 15.0124C17.4706 15.1041 17.3498 15.1499 17.1998 15.1499C17.0665 15.1499 16.9498 15.1041 16.8498 15.0124C16.7498 14.9207 16.6998 14.7999 16.6998 14.6499C16.6998 13.3999 16.2373 12.3541 15.3123 11.5124C14.3873 10.6707 13.2915 10.2499 12.0248 10.2499C10.7581 10.2499 9.67062 10.6707 8.76229 11.5124C7.85395 12.3541 7.39979 13.3999 7.39979 14.6499C7.39979 15.9999 7.63312 17.1457 8.09979 18.0874C8.56645 19.0291 9.24979 19.9749 10.1498 20.9249C10.2498 21.0249 10.2998 21.1416 10.2998 21.2749C10.2998 21.4082 10.2498 21.5249 10.1498 21.6249C10.0498 21.7249 9.93312 21.7749 9.79979 21.7749C9.66645 21.7749 9.54979 21.7249 9.44979 21.6249ZM16.9998 19.9249C15.5165 19.9249 14.229 19.4249 13.1373 18.4249C12.0456 17.4249 11.4998 16.1666 11.4998 14.6499C11.4998 14.5166 11.5456 14.3999 11.6373 14.2999C11.729 14.1999 11.8498 14.1499 11.9998 14.1499C12.1498 14.1499 12.2706 14.1999 12.3623 14.2999C12.454 14.3999 12.4998 14.5166 12.4998 14.6499C12.4998 15.8999 12.9498 16.9249 13.8498 17.7249C14.7498 18.5249 15.7998 18.9249 16.9998 18.9249C17.0998 18.9249 17.2415 18.9166 17.4248 18.8999C17.6081 18.8832 17.7998 18.8582 17.9998 18.8249C18.1498 18.7916 18.279 18.8124 18.3873 18.8874C18.4956 18.9624 18.5665 19.0749 18.5998 19.2249C18.6331 19.3582 18.6081 19.4749 18.5248 19.5749C18.4415 19.6749 18.3331 19.7416 18.1998 19.7749C17.8998 19.8582 17.6373 19.9041 17.4123 19.9124C17.1873 19.9207 17.0498 19.9249 16.9998 19.9249Z" fill="#3D3D3D"/>
</svg>
