<svg width="94" height="37" viewBox="0 0 94 37" fill="none" xmlns="http://www.w3.org/2000/svg">
<g clip-path="url(#clip0_35_919)">
<path d="M19.3524 23.8093C17.6412 23.8116 16.2324 25.1787 16.2324 26.8892C16.2324 28.5997 17.6412 29.9529 19.3524 29.9575C21.0795 29.9506 22.477 28.5836 22.477 26.8892C22.477 25.1948 21.0795 23.8116 19.3524 23.8093ZM19.3095 28.5536C18.4155 28.5536 17.7382 27.8067 17.7382 26.8915C17.7382 25.9763 18.4607 25.2133 19.3502 25.2133C20.2397 25.2133 20.9373 25.9579 20.9373 26.8915C20.9373 27.8252 20.2058 28.5536 19.3073 28.5536H19.3095Z" fill="white"/>
<path d="M5.03013 21.6884C5.50875 22.1703 6.05509 22.5898 6.59014 22.8618L6.64658 22.8918L7.56768 21.7784L7.47964 21.7276C6.60369 21.2435 5.91737 20.6326 5.47037 19.8603C5.02562 19.1019 4.7976 18.2167 4.7976 17.1632V16.1719H3.14955V17.0571C3.14955 18.2005 2.89444 19.0996 2.42034 19.888C1.88754 20.7594 1.09964 21.4625 0.0904881 22.1126L0.00244141 22.168L1.00482 23.2261L1.059 23.1938C1.65275 22.8618 2.28488 22.3524 2.83574 21.7853C3.31209 21.2896 3.72524 20.7548 3.97357 20.2499C4.21514 20.7433 4.58764 21.2481 5.03239 21.6815L5.03013 21.6884Z" fill="white"/>
<path d="M3.24902 29.2313H10.1528V24.4155H3.24902V29.2313ZM4.8 25.7757H8.59955V27.8735H4.8V25.7757Z" fill="white"/>
<path d="M10.1774 15.8882H8.64453V23.8645H10.1774V20.3351H11.9768V18.9173H10.1774V15.8882Z" fill="white"/>
<path d="M49.3287 22.0964C49.8321 22.5436 50.4101 22.9193 50.9519 23.1614L51.0083 23.1891L51.8369 22.0433L51.7488 21.9995C50.9587 21.5846 50.252 21.0728 49.7463 20.4504C49.2294 19.8118 48.9223 19.0441 48.9223 18.1174V17.8454H51.2048V16.4714H45.0031V17.8454H47.2855V18.175C47.2855 19.0165 47.0101 19.8026 46.5586 20.4827C46.0258 21.2987 45.2469 21.958 44.4929 22.3822L44.3936 22.4375L45.4117 23.5141L45.4682 23.4865C46.019 23.1683 46.6241 22.6865 47.1433 22.1471C47.5587 21.7022 47.9312 21.2319 48.1592 20.7639C48.4347 21.218 48.8568 21.6745 49.3287 22.0987V22.0964Z" fill="white"/>
<path d="M60.4316 25.808H66.0124V29.2314H67.5634V24.4456H60.4316V25.808Z" fill="white"/>
<path d="M64.2833 20.3236C64.2833 19.5698 63.9537 18.8759 63.4615 18.3457H64.9944V16.9878H62.0686V15.4917H60.407V16.9878H57.4111V18.3457H58.9757C58.4993 18.8759 58.1652 19.5629 58.1652 20.3236C58.1652 22.0042 59.522 23.3712 61.2197 23.3758C62.9174 23.3712 64.2833 22.0042 64.2855 20.3236H64.2833ZM59.6439 20.2614C59.6439 19.33 60.4138 18.5416 61.2175 18.5416C62.0212 18.5416 62.7888 19.3346 62.791 20.2614C62.791 21.1766 62.0212 21.9673 61.2175 21.9696C60.4115 21.9673 59.6439 21.1766 59.6439 20.2614Z" fill="white"/>
<path d="M67.5637 15.8882H66.0308V23.8922H67.5637V20.8377H69.3652V19.4222H67.5637V15.8882Z" fill="white"/>
<path d="M54.5596 15.8882H53.0244V23.8922H54.5596V20.3351H56.3589V18.9173H54.5596V15.8882Z" fill="white"/>
<path d="M89.4468 21.9236H84.2588V17.8893H88.2119V16.4692H82.7056V23.3021H89.4468V21.9236Z" fill="white"/>
<path d="M21.2283 18.2626H18.8149V19.6666H21.2283V24.1434H22.7635V15.8882H21.2283V18.2626Z" fill="white"/>
<path d="M17.3274 21.8958C17.8061 22.3776 18.3637 22.7972 18.901 23.0807L18.9597 23.1153L19.8831 22.0019L19.7927 21.9488C18.9168 21.4832 18.244 20.8723 17.7948 20.1115C17.3365 19.3577 17.1085 18.4402 17.1085 17.3844V16.1741H15.4559V17.2852C15.4559 18.4287 15.2053 19.3254 14.7402 20.1C14.2074 20.9875 13.4082 21.6929 12.3968 22.3407L12.311 22.3961L13.3157 23.4588L13.3653 23.4265C13.9613 23.0946 14.5777 22.6128 15.1263 22.0618C15.6207 21.5569 16.0361 21.0106 16.2844 20.4804C16.5215 20.9599 16.8849 21.4532 17.3229 21.8958H17.3274Z" fill="white"/>
<path d="M51.2658 23.8093C49.5546 23.8116 48.1458 25.1787 48.1436 26.8892C48.1458 28.5836 49.5546 29.9529 51.2658 29.9575C52.9906 29.9506 54.3904 28.5836 54.3904 26.8892C54.3904 25.1948 52.9906 23.8116 51.2658 23.8093ZM51.2207 28.5536C50.3289 28.5536 49.6494 27.8067 49.6494 26.8915C49.6494 25.9763 50.3696 25.2133 51.2658 25.2133C52.1621 25.2133 52.8507 25.9579 52.8529 26.8915C52.8507 27.8067 52.1192 28.5536 51.2207 28.5536Z" fill="white"/>
<path d="M86.5142 24.9802H84.9609V29.2312H92.2214V27.8296H86.5142V24.9802Z" fill="white"/>
<path d="M92.1853 19.5859V15.8882H90.6523V25.7295H92.1853V20.999H94.0004V19.5859H92.1853Z" fill="white"/>
<path d="M79.1992 19.4937H77.9079V16.1141H76.4585V28.8877H77.9079V21.0313H79.1992V29.2312H80.7051V15.8882H79.1992V19.4937Z" fill="white"/>
<path d="M74.3274 21.2641C73.982 20.4919 73.8397 19.632 73.8397 18.5715V18.0667H75.5803V16.6282H70.5188V18.0667H72.3158V18.5969C72.3158 19.5997 72.1872 20.4181 71.8756 21.1788C71.5166 22.0502 70.9116 22.8386 69.9476 23.6778L69.8799 23.7423L70.8326 24.7059L70.8913 24.6598C71.3699 24.2979 71.8711 23.7746 72.291 23.2352C72.6432 22.7787 72.9412 22.3084 73.1308 21.8935C73.3227 22.2969 73.623 22.7603 73.9729 23.1937C74.3816 23.7008 74.8398 24.1826 75.2801 24.4685L75.341 24.51L76.1425 23.5302L76.0793 23.4703C75.2169 22.7026 74.6818 22.018 74.3296 21.2618L74.3274 21.2641Z" fill="white"/>
<path d="M4.36157 33.8349C3.62559 33.5675 3.48788 33.3877 3.48788 33.0788C3.48788 32.7699 3.70009 32.5255 4.20354 32.5255C4.57153 32.5255 4.81987 32.6477 5.08626 32.8736L5.34815 32.5439C5.03886 32.2927 4.72279 32.1428 4.23063 32.1428C3.54206 32.1428 3.07699 32.5001 3.07699 33.1041C3.07699 33.6459 3.34791 33.9064 4.14033 34.1991C4.81309 34.4458 5.01854 34.6464 5.01854 34.9922C5.01854 35.391 4.71376 35.6353 4.22386 35.6353C3.84458 35.6353 3.524 35.4578 3.24632 35.1858L2.97314 35.497C3.26212 35.7944 3.71138 36.0157 4.21031 36.0157C4.9779 36.0157 5.42942 35.5593 5.42942 34.9714C5.42942 34.3836 5.17883 34.1323 4.36383 33.8303L4.36157 33.8349Z" fill="white"/>
<path d="M7.09778 33.0857C6.73882 33.0857 6.41147 33.1756 6.16991 33.3093L6.31891 33.6367C6.54467 33.503 6.78172 33.42 7.07069 33.42C7.47255 33.42 7.67122 33.6228 7.67122 34.0447V34.379C7.50867 34.2868 7.26033 34.2153 6.98039 34.2153C6.43405 34.2153 5.92383 34.485 5.92383 35.119C5.92383 35.799 6.37761 36.018 6.80655 36.018C7.20163 36.018 7.47255 35.8313 7.66896 35.6169V35.9604H8.06178V33.9963C8.06178 33.3416 7.68928 33.0857 7.09778 33.0857ZM7.67122 35.2688C7.50415 35.5039 7.23324 35.693 6.87654 35.693C6.54015 35.693 6.31214 35.5086 6.31214 35.089C6.31214 34.7363 6.55596 34.5334 6.96007 34.5334C7.29645 34.5334 7.49061 34.5957 7.66896 34.6971V35.2665L7.67122 35.2688Z" fill="white"/>
<path d="M12.024 34.3121V35.9604H12.4191V34.2429C12.4191 33.42 12.0691 33.0857 11.5047 33.0857C11.0577 33.0857 10.832 33.2978 10.6694 33.5675C10.5385 33.2978 10.3014 33.0857 9.91312 33.0857C9.58576 33.0857 9.35323 33.2448 9.21326 33.4891V33.1456H8.81592V35.9627H9.21326V34.3144C9.21326 33.6897 9.45031 33.4338 9.82958 33.4338C10.2089 33.4338 10.4233 33.6689 10.4233 34.3144V35.9627H10.8184V34.3144C10.8184 33.6897 11.0577 33.4338 11.4325 33.4338C11.8321 33.4338 12.0262 33.6689 12.0262 34.3144L12.024 34.3121Z" fill="white"/>
<path d="M13.9994 34.3259C13.5321 34.1092 13.3921 34.0147 13.3921 33.7773C13.3921 33.5744 13.5592 33.4269 13.8504 33.4269C14.1416 33.4269 14.3223 33.5076 14.5367 33.6805L14.758 33.3831C14.548 33.2056 14.2545 33.0857 13.873 33.0857C13.3741 33.0857 13.0128 33.3739 13.0128 33.8026C13.0128 34.2545 13.2431 34.4251 13.7962 34.6671C14.2839 34.8815 14.4487 35.0106 14.4487 35.2411C14.4487 35.5155 14.2703 35.6768 13.8911 35.6768C13.6179 35.6768 13.3605 35.5616 13.1393 35.3656L12.9067 35.6607C13.1709 35.8774 13.5005 36.0203 13.8798 36.0203C14.3584 36.0203 14.8257 35.7806 14.8257 35.2273C14.8257 34.7225 14.5209 34.568 13.9994 34.3282V34.3259Z" fill="white"/>
<path d="M17.1307 34.7894C17.1307 35.4072 16.8282 35.6677 16.4489 35.6677C16.0041 35.6677 15.7942 35.3957 15.7942 34.7894V33.1434H15.4014V34.8586C15.4014 35.6677 15.7829 36.0158 16.3654 36.0158C16.7153 36.0158 16.9704 35.8498 17.1284 35.6147V35.9582H17.5235V33.1411H17.1284V34.7871L17.1307 34.7894Z" fill="white"/>
<path d="M20.3114 35.9604V34.2429C20.3114 33.4315 19.9276 33.0857 19.3429 33.0857C18.9975 33.0857 18.7401 33.2494 18.5844 33.4891V33.1456H18.187V35.9627H18.5844V34.3144C18.5844 33.6989 18.8801 33.4338 19.2661 33.4338C19.7064 33.4338 19.9186 33.7081 19.9186 34.3144V35.9627H20.3137L20.3114 35.9604Z" fill="white"/>
<path d="M21.5533 36.6912L21.6797 36.9978C22.7047 36.9632 23.0772 36.5575 23.0772 35.7091V33.1433H22.6844V33.4592C22.4902 33.2332 22.2554 33.0857 21.9078 33.0857C21.3276 33.0857 20.8647 33.5975 20.8647 34.598C20.8647 35.5985 21.3027 36.018 21.8558 36.018C22.2283 36.018 22.4925 35.8313 22.6866 35.6169V35.7621C22.6866 36.4168 22.4767 36.6635 21.5556 36.6912H21.5533ZM21.9529 35.6699C21.5172 35.6699 21.2531 35.3011 21.2531 34.5934C21.2531 33.8349 21.4788 33.4338 21.9371 33.4338C22.2645 33.4338 22.5309 33.6228 22.6821 33.8557V35.2642C22.488 35.5132 22.2464 35.6699 21.9507 35.6699H21.9529Z" fill="white"/>
<path d="M27.4278 34.0563C27.4278 32.7677 26.7166 32.2029 25.7504 32.2029H24.7773V35.9605H25.6759C26.6602 35.9605 27.4278 35.4188 27.4278 34.054V34.0563ZM25.1882 32.5833H25.7188C26.5654 32.5833 27.0169 33.1112 27.0169 34.0702C27.0169 35.1514 26.5225 35.5801 25.7278 35.5801H25.186V32.5833H25.1882Z" fill="white"/>
<path d="M28.4796 33.4938V33.1457H28.0845V35.9627H28.4796V34.3098C28.4796 33.7704 28.694 33.4592 29.0801 33.4592C29.2629 33.4592 29.3849 33.5007 29.4932 33.5652L29.5926 33.1595C29.5 33.1157 29.3668 33.0903 29.1636 33.0903C28.8679 33.0903 28.6037 33.2701 28.4818 33.4984L28.4796 33.4938Z" fill="white"/>
<path d="M31.9519 35.693L31.769 35.4025C31.5161 35.5754 31.3265 35.6699 31.0037 35.6699C30.5544 35.6699 30.2745 35.2896 30.2361 34.6902H32.076C32.0896 34.6233 32.0941 34.5657 32.0941 34.4689C32.0941 33.6643 31.7035 33.0857 30.9834 33.0857C30.3264 33.0857 29.8433 33.6413 29.8433 34.5357C29.8433 35.6446 30.4573 36.018 30.963 36.018C31.3784 36.018 31.6223 35.9051 31.9541 35.693H31.9519ZM30.9788 33.4315C31.462 33.4315 31.6945 33.8119 31.7261 34.3605H30.2361C30.2812 33.7312 30.568 33.4315 30.9788 33.4315Z" fill="white"/>
<path d="M33.4057 36.018C33.8008 36.018 34.0739 35.8313 34.2681 35.6169V35.9604H34.6632V33.9963C34.6632 33.3416 34.2907 33.0857 33.6946 33.0857C33.3357 33.0857 33.0106 33.1756 32.769 33.3093L32.918 33.6367C33.1438 33.503 33.3808 33.42 33.6698 33.42C34.0739 33.42 34.2681 33.6228 34.2681 34.0447V34.379C34.1078 34.2868 33.8595 34.2153 33.584 34.2153C33.0354 34.2153 32.5229 34.485 32.5229 35.119C32.5229 35.799 32.9767 36.018 33.4057 36.018ZM33.5592 34.5357C33.8933 34.5357 34.0897 34.598 34.2681 34.6994V35.2688C34.101 35.5039 33.8324 35.693 33.4779 35.693C33.1235 35.693 32.9135 35.5086 32.9135 35.089C32.9135 34.7363 33.1573 34.5334 33.5615 34.5334L33.5592 34.5357Z" fill="white"/>
<path d="M38.6228 34.3121V35.9604H39.0156V34.2429C39.0156 33.42 38.6657 33.0857 38.1013 33.0857C37.6543 33.0857 37.4285 33.2978 37.266 33.5675C37.135 33.2978 36.9002 33.0857 36.5097 33.0857C36.1823 33.0857 35.952 33.2448 35.8098 33.4891V33.1456H35.417V35.9627H35.8098V34.3144C35.8098 33.6897 36.0469 33.4338 36.4261 33.4338C36.8054 33.4338 37.0199 33.6689 37.0199 34.3144V35.9627H37.4127V34.3144C37.4127 33.6897 37.6543 33.4338 38.029 33.4338C38.4264 33.4338 38.6228 33.6689 38.6228 34.3144V34.3121Z" fill="white"/>
<path d="M41.9666 33.835C41.2306 33.5676 41.0951 33.3901 41.0951 33.0789C41.0951 32.7677 41.3051 32.5256 41.8085 32.5256C42.1788 32.5256 42.4248 32.6478 42.6912 32.8737L42.9531 32.5464C42.6438 32.2951 42.3278 32.1453 41.8356 32.1453C41.147 32.1453 40.6842 32.5003 40.6842 33.1043C40.6842 33.646 40.9506 33.9088 41.7476 34.197C42.4203 34.4459 42.6258 34.6442 42.6258 34.9923C42.6258 35.3888 42.321 35.6355 41.8311 35.6355C41.4518 35.6355 41.1312 35.4557 40.8513 35.1836L40.5781 35.4926C40.8671 35.7945 41.3164 36.0135 41.813 36.0135C42.5784 36.0135 43.0321 35.5571 43.0321 34.9693C43.0321 34.3814 42.7815 34.1301 41.9666 33.8281V33.835Z" fill="white"/>
<path d="M44.7071 33.4338C44.9848 33.4338 45.1699 33.5352 45.3686 33.7196L45.6056 33.4177C45.3889 33.224 45.1044 33.0857 44.7319 33.0857C44.154 33.0857 43.5444 33.5237 43.5444 34.568C43.5444 35.5501 44.0975 36.0203 44.7071 36.0203C45.0932 36.0203 45.3618 35.8705 45.5943 35.6284L45.3573 35.3725C45.1699 35.5593 44.9893 35.6722 44.7229 35.6722C44.233 35.6722 43.944 35.2273 43.944 34.5334C43.944 33.8395 44.2782 33.4338 44.7094 33.4338H44.7071Z" fill="white"/>
<path d="M47.2946 33.0857C46.9492 33.0857 46.6895 33.2494 46.5315 33.4891V32.1636H46.1387V35.9627H46.5315V34.3144C46.5315 33.6966 46.834 33.4338 47.2156 33.4338C47.658 33.4338 47.8657 33.7058 47.8657 34.3144V35.9627H48.2608V34.2429C48.2608 33.4338 47.877 33.0857 47.2923 33.0857H47.2946Z" fill="white"/>
<path d="M50.0218 33.0857C49.3513 33.0857 48.814 33.5975 48.814 34.5565C48.814 35.5155 49.3287 36.0203 50.0015 36.0203C50.6742 36.0203 51.2115 35.4901 51.2115 34.5334C51.2115 33.5767 50.6923 33.0857 50.0218 33.0857ZM50.0128 35.6722C49.5341 35.6722 49.2113 35.2873 49.2113 34.5449C49.2113 33.8026 49.5341 33.4338 50.0128 33.4338C50.4914 33.4338 50.8142 33.8049 50.8142 34.5449C50.8142 35.2849 50.4891 35.6722 50.0128 35.6722Z" fill="white"/>
<path d="M52.2027 32.1636H51.8076V35.9627H52.2027V32.1636Z" fill="white"/>
<path d="M54.0042 33.0857C53.6475 33.0857 53.3202 33.1779 53.0809 33.3116L53.2276 33.6413C53.4534 33.5053 53.6904 33.4246 53.9794 33.4246C54.3835 33.4246 54.5776 33.6297 54.5776 34.0447V34.3813C54.4151 34.2868 54.1668 34.2176 53.8913 34.2176C53.3427 34.2176 52.8325 34.4873 52.8325 35.1213C52.8325 35.8036 53.284 36.0203 53.7152 36.0203C54.1103 36.0203 54.3835 35.8359 54.5776 35.6192V35.9627H54.9727V33.9986C54.9727 33.3416 54.6002 33.0857 54.0042 33.0857ZM54.5776 35.2688C54.4106 35.5039 54.1397 35.693 53.7852 35.693C53.4511 35.693 53.2231 35.5086 53.2231 35.0913C53.2231 34.7363 53.4669 34.538 53.871 34.538C54.2074 34.538 54.4016 34.598 54.5799 34.6994V35.2688H54.5776Z" fill="white"/>
<path d="M56.1197 33.4937V33.1433H55.7246V35.9627H56.1197V34.3098C56.1197 33.7727 56.3342 33.4568 56.718 33.4568C56.9031 33.4568 57.0227 33.4983 57.1334 33.5629L57.2327 33.1549C57.1401 33.1134 57.0069 33.0857 56.8037 33.0857C56.508 33.0857 56.2439 33.2655 56.1197 33.4937Z" fill="white"/>
<path d="M58.7473 34.3261C58.2778 34.1094 58.1378 34.0125 58.1378 33.7751C58.1378 33.5722 58.3071 33.4247 58.5961 33.4247C58.8851 33.4247 59.0702 33.5077 59.2847 33.6783L59.5059 33.3832C59.2937 33.2057 59.0025 33.0835 58.6232 33.0835C58.122 33.0835 57.7608 33.3717 57.7608 33.8028C57.7608 34.2546 57.9933 34.4252 58.5464 34.6649C59.0341 34.8793 59.1989 35.0084 59.1989 35.2389C59.1989 35.5156 59.0183 35.6747 58.6435 35.6747C58.3681 35.6747 58.1107 35.5594 57.8895 35.3634L57.6592 35.6585C57.9211 35.8752 58.2529 36.0181 58.6322 36.0181C59.1086 36.0181 59.5781 35.7784 59.5781 35.2251C59.5781 34.718 59.2734 34.5658 58.7519 34.3237L58.7473 34.3261Z" fill="white"/>
<path d="M61.3727 33.0857C61.025 33.0857 60.7677 33.2494 60.6096 33.4891V32.1636H60.2168V35.9627H60.6096V34.3144C60.6096 33.6966 60.9099 33.4338 61.2937 33.4338C61.7339 33.4338 61.9439 33.7058 61.9439 34.3144V35.9627H62.3389V34.2429C62.3389 33.4338 61.9552 33.0857 61.3727 33.0857Z" fill="white"/>
<path d="M63.511 33.1433H63.1182V35.9627H63.511V33.1433Z" fill="white"/>
<path d="M63.3236 32.0645C63.1611 32.0645 63.0347 32.1936 63.0347 32.3572C63.0347 32.5117 63.1611 32.6408 63.3236 32.6408C63.4681 32.6408 63.5968 32.5117 63.5968 32.3572C63.5968 32.1936 63.4681 32.0645 63.3236 32.0645Z" fill="white"/>
<path d="M65.5312 33.0857C65.1587 33.0857 64.8946 33.2724 64.7004 33.4891V33.1456H64.3076V37.0001H64.7004V35.6469C64.8946 35.8705 65.1316 36.0203 65.4793 36.0203C66.0573 36.0203 66.5201 35.5039 66.5201 34.5081C66.5201 33.5122 66.0821 33.0857 65.5312 33.0857ZM65.4477 35.6722C65.1226 35.6722 64.854 35.4832 64.7004 35.2481V33.8418C64.8946 33.5975 65.1384 33.4338 65.4319 33.4338C65.8699 33.4338 66.134 33.8049 66.134 34.5127C66.134 35.2688 65.9083 35.6722 65.4477 35.6722Z" fill="white"/>
<path d="M68.6086 32.5855H70.3605V32.2051H68.1978V35.9627H68.6086V34.2107H69.6178V33.8326H68.6086V32.5855Z" fill="white"/>
<path d="M71.5592 33.0857C70.8887 33.0857 70.3491 33.5975 70.3491 34.5565C70.3491 35.5155 70.8661 36.0203 71.5366 36.0203C72.2071 36.0203 72.7467 35.4901 72.7467 34.5334C72.7467 33.5767 72.232 33.0857 71.5592 33.0857ZM71.5479 35.6722C71.0693 35.6722 70.7487 35.2873 70.7487 34.5449C70.7487 33.8026 71.0693 33.4338 71.5479 33.4338C72.0265 33.4338 72.3539 33.8049 72.3539 34.5449C72.3539 35.2849 72.0288 35.6722 71.5479 35.6722Z" fill="white"/>
<path d="M74.9251 34.7893C74.9251 35.4071 74.6271 35.6699 74.2433 35.6699C73.8008 35.6699 73.5909 35.3979 73.5909 34.7893V33.1433H73.1958V34.8608C73.1958 35.6722 73.5796 36.0203 74.1643 36.0203C74.5075 36.0203 74.7648 35.8566 74.9229 35.6192V35.9627H75.318V33.1433H74.9229V34.7893H74.9251Z" fill="white"/>
<path d="M77.1376 33.0857C76.7922 33.0857 76.5349 33.2494 76.3746 33.4891V33.1456H75.9795V35.965H76.3746V34.3167C76.3746 33.6989 76.6748 33.4361 77.0586 33.4361C77.5011 33.4361 77.7111 33.7081 77.7111 34.3167V35.965H78.1039V34.2453C78.1039 33.4361 77.7201 33.088 77.1354 33.088L77.1376 33.0857Z" fill="white"/>
<path d="M80.4788 33.4615C80.2847 33.2355 80.0476 33.0857 79.6999 33.0857C79.122 33.0857 78.6592 33.5975 78.6592 34.6003C78.6592 35.6031 79.0949 36.0203 79.648 36.0203C80.0205 36.0203 80.2824 35.8359 80.4788 35.6192V35.9627H80.8739V32.1636H80.4788V33.4638V33.4615ZM80.4788 35.2619C80.2847 35.5086 80.0408 35.6699 79.7473 35.6699C79.3116 35.6699 79.0475 35.3011 79.0475 34.5911C79.0475 33.8326 79.2732 33.4315 79.7315 33.4315C80.0589 33.4315 80.323 33.6182 80.4788 33.8557V35.2619Z" fill="white"/>
<path d="M82.547 33.0857C82.188 33.0857 81.8629 33.1779 81.6214 33.3116L81.7681 33.6413C81.9961 33.5053 82.2332 33.4246 82.5199 33.4246C82.924 33.4246 83.1182 33.6297 83.1182 34.0447V34.3813C82.9556 34.2868 82.7073 34.2176 82.4296 34.2176C81.8855 34.2176 81.373 34.4873 81.373 35.1213C81.373 35.8036 81.8268 36.0203 82.258 36.0203C82.6531 36.0203 82.924 35.8359 83.1182 35.6192V35.9627H83.5133V33.9986C83.5133 33.3416 83.1408 33.0857 82.547 33.0857ZM83.1182 35.2688C82.9511 35.5039 82.6825 35.693 82.3235 35.693C81.9894 35.693 81.7636 35.5086 81.7636 35.0913C81.7636 34.7363 82.0052 34.538 82.4093 34.538C82.7457 34.538 82.9398 34.598 83.1182 34.6994V35.2688Z" fill="white"/>
<path d="M84.7706 32.1636H84.3756V33.1456H84.0347V33.4845H84.3756V35.3864C84.3756 35.852 84.5607 36.0226 84.9038 36.0226C85.1115 36.0226 85.2583 35.9927 85.4118 35.9258L85.4389 35.5777C85.3125 35.6307 85.2086 35.6584 85.0483 35.6584C84.8384 35.6584 84.7706 35.5731 84.7706 35.3195V33.4845H85.4547V33.1456H84.7706V32.1636Z" fill="white"/>
<path d="M86.3489 32.0645C86.1863 32.0645 86.0576 32.1936 86.0576 32.3572C86.0576 32.5117 86.1863 32.6408 86.3489 32.6408C86.4979 32.6408 86.6243 32.5117 86.6243 32.3572C86.6243 32.1936 86.4979 32.0645 86.3489 32.0645Z" fill="white"/>
<path d="M86.5364 33.1433H86.1436V35.9627H86.5364V33.1433Z" fill="white"/>
<path d="M88.3421 33.0857C87.6716 33.0857 87.1343 33.5975 87.1343 34.5565C87.1343 35.5155 87.649 36.0203 88.3218 36.0203C88.9945 36.0203 89.5296 35.4901 89.5296 34.5334C89.5296 33.5767 89.0149 33.0857 88.3421 33.0857ZM88.3308 35.6722C87.8545 35.6722 87.5339 35.2873 87.5339 34.5449C87.5339 33.8026 87.8545 33.4338 88.3308 33.4338C88.8072 33.4338 89.1368 33.8049 89.1368 34.5449C89.1368 35.2849 88.8117 35.6722 88.3308 35.6722Z" fill="white"/>
<path d="M91.2548 33.0857C90.9072 33.0857 90.6498 33.2494 90.4918 33.4891V33.1456H90.0967V35.965H90.4918V34.3167C90.4918 33.6989 90.792 33.4361 91.1758 33.4361C91.6206 33.4361 91.8283 33.7081 91.8283 34.3167V35.965H92.2211V34.2453C92.2211 33.4361 91.8373 33.088 91.2548 33.088V33.0857Z" fill="white"/>
<path d="M50.5186 6.25427L47.4866 4.97252L50.5186 3.69078L49.979 2.36293L46.9471 3.64467L48.2046 0.54866L46.9042 0L45.649 3.09601L44.3915 0L43.0933 0.54866L44.3486 3.64467L41.3166 2.36293L40.7793 3.69078L43.809 4.97252L40.7793 6.25427L41.3166 7.58212L44.3486 6.29807L43.0933 9.39408L44.3937 9.94505L45.649 6.84903L46.9042 9.94505L48.2046 9.39408L46.9471 6.29807L49.979 7.58212L50.5186 6.25427Z" fill="#75B0FF"/>
<path d="M30.8933 14.8968H32.9116V9.39404H26.0146V11.2475H30.8933V14.8968Z" fill="#75B0FF"/>
<path d="M38.7633 14.8968H40.7793V9.39404H33.8823V11.2475H38.7633V14.8968Z" fill="#75B0FF"/>
<path d="M25.6895 17.7416H38.7633V20.5749H40.7793V15.8882H25.6895V17.7416Z" fill="#75B0FF"/>
<path d="M30.5684 29.231H40.7773V21.5291H30.5684V29.231ZM32.5867 23.3825H38.7635V27.3776H32.5867V23.3825Z" fill="#75B0FF"/>
</g>
<defs>
<clipPath id="clip0_35_919">
<rect width="94" height="37" fill="white"/>
</clipPath>
</defs>
</svg>
