<svg width="190" height="75" viewBox="0 0 190 75" fill="none" xmlns="http://www.w3.org/2000/svg">
<g clip-path="url(#clip0_35_1284)">
<path d="M39.116 48.2617C35.657 48.2664 32.8096 51.0374 32.8096 54.5047C32.8096 57.972 35.657 60.715 39.116 60.7243C42.6069 60.7103 45.4315 57.9393 45.4315 54.5047C45.4315 51.0701 42.6069 48.2664 39.116 48.2617ZM39.0293 57.8785C37.2222 57.8785 35.8533 56.3645 35.8533 54.5094C35.8533 52.6542 37.3135 51.1075 39.1114 51.1075C40.9093 51.1075 42.3194 52.6169 42.3194 54.5094C42.3194 56.4019 40.8409 57.8785 39.0247 57.8785H39.0293Z" fill="#1F69CC"/>
<path d="M10.1668 43.9625C11.1342 44.9392 12.2385 45.7896 13.32 46.341L13.434 46.4018L15.2958 44.1448L15.1179 44.042C13.3473 43.0606 11.9601 41.8223 11.0566 40.2569C10.1576 38.7195 9.69674 36.9251 9.69674 34.7896V32.7803H6.36556V34.5747C6.36556 36.8924 5.84992 38.7149 4.89163 40.313C3.81471 42.0793 2.22213 43.5046 0.182361 44.8223L0.00439453 44.9345L2.03048 47.0793L2.14 47.0139C3.34013 46.341 4.61784 45.3083 5.73127 44.1588C6.69412 43.1541 7.52919 42.07 8.03115 41.0466C8.51942 42.0466 9.27236 43.07 10.1713 43.9485L10.1668 43.9625Z" fill="#1F69CC"/>
<path d="M6.56641 59.2524H20.5208V49.4907H6.56641V59.2524ZM9.70136 52.2477H17.3813V56.5001H9.70136V52.2477Z" fill="#1F69CC"/>
<path d="M20.5711 32.2056H17.4727V48.3738H20.5711V41.2196H24.208V38.3458H20.5711V32.2056Z" fill="#1F69CC"/>
<path d="M99.7067 44.7898C100.724 45.6964 101.893 46.458 102.988 46.9487L103.102 47.0048L104.776 44.6823L104.599 44.5935C103.001 43.7524 101.573 42.715 100.551 41.4534C99.5059 40.159 98.8853 38.6029 98.8853 36.7244V36.173H103.499V33.3879H90.9635V36.173H95.577V36.8412C95.577 38.5468 95.0202 40.1403 94.1076 41.5188C93.0307 43.173 91.4564 44.5094 89.9322 45.3692L89.7314 45.4814L91.7895 47.6636L91.9035 47.6076C93.017 46.9627 94.2399 45.9861 95.2895 44.8926C96.1291 43.9907 96.8821 43.0375 97.3429 42.0889C97.8997 43.0094 98.753 43.9347 99.7067 44.7945V44.7898Z" fill="#1F69CC"/>
<path d="M122.149 52.3129H133.429V59.2522H136.564V49.5513H122.149V52.3129Z" fill="#1F69CC"/>
<path d="M129.934 41.1963C129.934 39.6682 129.268 38.2617 128.273 37.1869H131.371V34.4346H125.457V31.4019H122.099V34.4346H116.043V37.1869H119.206C118.243 38.2617 117.568 39.6542 117.568 41.1963C117.568 44.6028 120.31 47.3738 123.742 47.3832C127.173 47.3738 129.934 44.6028 129.939 41.1963H129.934ZM120.557 41.0701C120.557 39.1822 122.113 37.5841 123.737 37.5841C125.362 37.5841 126.913 39.1916 126.918 41.0701C126.918 42.9252 125.362 44.528 123.737 44.5327C122.108 44.528 120.557 42.9252 120.557 41.0701Z" fill="#1F69CC"/>
<path d="M136.564 32.2056H133.466V48.4299H136.564V42.2383H140.206V39.3691H136.564V32.2056Z" fill="#1F69CC"/>
<path d="M110.28 32.2056H107.177V48.4299H110.28V41.2196H113.917V38.3458H110.28V32.2056Z" fill="#1F69CC"/>
<path d="M180.796 44.4391H170.309V36.2616H178.3V33.3831H167.17V47.2335H180.796V44.4391Z" fill="#1F69CC"/>
<path d="M42.9079 37.0187H38.0298V39.8644H42.9079V48.9392H46.0109V32.2056H42.9079V37.0187Z" fill="#1F69CC"/>
<path d="M35.0228 44.3833C35.9903 45.3599 37.1174 46.2104 38.2034 46.7852L38.3221 46.8552L40.1884 44.5982L40.0059 44.4908C38.2354 43.5468 36.8755 42.3085 35.9674 40.7665C35.0411 39.2384 34.5802 37.3786 34.5802 35.2384V32.7852H31.2399V35.0375C31.2399 37.3552 30.7334 39.173 29.7934 40.7431C28.7164 42.5422 27.101 43.9721 25.0567 45.2852L24.8833 45.3973L26.9139 47.5515L27.0143 47.4861C28.219 46.8132 29.4648 45.8366 30.5737 44.7197C31.573 43.6964 32.4127 42.5889 32.9146 41.5141C33.3938 42.4861 34.1284 43.4861 35.0137 44.3833H35.0228Z" fill="#1F69CC"/>
<path d="M103.622 48.2617C100.163 48.2664 97.3156 51.0374 97.311 54.5047C97.3156 57.9393 100.163 60.715 103.622 60.7243C107.108 60.7103 109.938 57.9393 109.938 54.5047C109.938 51.0701 107.108 48.2664 103.622 48.2617ZM103.531 57.8785C101.728 57.8785 100.355 56.3645 100.355 54.5094C100.355 52.6542 101.81 51.1075 103.622 51.1075C105.434 51.1075 106.825 52.6169 106.83 54.5094C106.825 56.3645 105.347 57.8785 103.531 57.8785Z" fill="#1F69CC"/>
<path d="M174.868 50.6355H171.729V59.2523H186.404V56.4112H174.868V50.6355Z" fill="#1F69CC"/>
<path d="M186.331 39.7009V32.2056H183.232V52.1542H186.331V42.5654H190V39.7009H186.331Z" fill="#1F69CC"/>
<path d="M160.083 39.514H157.473V32.6635H154.543V58.556H157.473V42.6308H160.083V59.2523H163.127V32.2056H160.083V39.514Z" fill="#1F69CC"/>
<path d="M150.236 43.1028C149.538 41.5373 149.25 39.7944 149.25 37.6448V36.6215H152.768V33.7056H142.537V36.6215H146.17V37.6962C146.17 39.7289 145.91 41.3878 145.28 42.9299C144.554 44.6962 143.331 46.2944 141.383 47.9953L141.246 48.1261L143.172 50.0794L143.29 49.9859C144.258 49.2523 145.271 48.1916 146.12 47.0981C146.832 46.1729 147.434 45.2196 147.817 44.3785C148.205 45.1962 148.812 46.1355 149.519 47.014C150.345 48.042 151.272 49.0187 152.161 49.5981L152.285 49.6822L153.905 47.6962L153.777 47.5747C152.034 46.0187 150.952 44.6308 150.24 43.0981L150.236 43.1028Z" fill="#1F69CC"/>
<path d="M8.81616 68.5842C7.32854 68.0422 7.05019 67.6777 7.05019 67.0515C7.05019 66.4253 7.47913 65.93 8.49674 65.93C9.24055 65.93 9.7425 66.1777 10.281 66.6356L10.8103 65.9674C10.1851 65.458 9.54628 65.1543 8.5515 65.1543C7.1597 65.1543 6.21968 65.8786 6.21968 67.1029C6.21968 68.201 6.76726 68.7291 8.36897 69.3225C9.72881 69.8225 10.1441 70.2291 10.1441 70.93C10.1441 71.7384 9.52803 72.2337 8.53781 72.2337C7.77118 72.2337 7.1232 71.8739 6.56192 71.3225L6.00977 71.9534C6.59386 72.5562 7.50195 73.0048 8.51043 73.0048C10.0619 73.0048 10.9746 72.0795 10.9746 70.8879C10.9746 69.6964 10.4681 69.187 8.82073 68.5749L8.81616 68.5842Z" fill="#1F69CC"/>
<path d="M14.347 67.0654C13.6215 67.0654 12.9598 67.2477 12.4715 67.5187L12.7727 68.1823C13.229 67.9112 13.7082 67.743 14.2923 67.743C15.1045 67.743 15.5061 68.1542 15.5061 69.0093V69.6869C15.1775 69.5 14.6756 69.3551 14.1097 69.3551C13.0054 69.3551 11.9741 69.9019 11.9741 71.1869C11.9741 72.5654 12.8913 73.0094 13.7584 73.0094C14.5569 73.0094 15.1045 72.6308 15.5015 72.1963V72.8925H16.2955V68.9112C16.2955 67.5841 15.5426 67.0654 14.347 67.0654ZM15.5061 71.4907C15.1684 71.9673 14.6208 72.3505 13.8998 72.3505C13.2199 72.3505 12.759 71.9766 12.759 71.1262C12.759 70.4112 13.2518 70 14.0687 70C14.7486 70 15.141 70.1262 15.5015 70.3318V71.486L15.5061 71.4907Z" fill="#1F69CC"/>
<path d="M24.3037 69.5514V72.8925H25.1023V69.4112C25.1023 67.743 24.395 67.0654 23.2542 67.0654C22.3506 67.0654 21.8943 67.4953 21.5658 68.0421C21.3011 67.4953 20.822 67.0654 20.0371 67.0654C19.3754 67.0654 18.9054 67.3879 18.6225 67.8832V67.1869H17.8193V72.8972H18.6225V69.5561C18.6225 68.2897 19.1016 67.771 19.8682 67.771C20.6349 67.771 21.0684 68.2477 21.0684 69.5561V72.8972H21.8669V69.5561C21.8669 68.2897 22.3506 67.771 23.1081 67.771C23.9158 67.771 24.3083 68.2477 24.3083 69.5561L24.3037 69.5514Z" fill="#1F69CC"/>
<path d="M28.2965 69.5794C27.3519 69.1402 27.069 68.9486 27.069 68.4673C27.069 68.0561 27.4067 67.757 27.9953 67.757C28.584 67.757 28.949 67.9206 29.3826 68.271L29.8298 67.6682C29.4054 67.3084 28.8122 67.0654 28.041 67.0654C27.0325 67.0654 26.3024 67.6495 26.3024 68.5187C26.3024 69.4346 26.7678 69.7804 27.8858 70.271C28.8715 70.7056 29.2046 70.9673 29.2046 71.4346C29.2046 71.9907 28.8441 72.3178 28.0775 72.3178C27.5253 72.3178 27.0051 72.0841 26.5579 71.6869L26.0879 72.2851C26.6218 72.7243 27.288 73.014 28.0547 73.014C29.0221 73.014 29.9667 72.528 29.9667 71.4065C29.9667 70.3832 29.3506 70.0701 28.2965 69.5841V69.5794Z" fill="#1F69CC"/>
<path d="M34.6258 70.5186C34.6258 71.771 34.0143 72.299 33.2477 72.299C32.3488 72.299 31.9244 71.7476 31.9244 70.5186V67.1822H31.1304V70.6588C31.1304 72.299 31.9016 73.0046 33.0789 73.0046C33.7862 73.0046 34.3018 72.6681 34.6213 72.1915V72.8878H35.4198V67.1775H34.6213V70.5139L34.6258 70.5186Z" fill="#1F69CC"/>
<path d="M41.0557 72.8925V69.4112C41.0557 67.7664 40.28 67.0654 39.0981 67.0654C38.3999 67.0654 37.8797 67.3972 37.5649 67.8832V67.1869H36.7617V72.8972H37.5649V69.5561C37.5649 68.3084 38.1626 67.771 38.943 67.771C39.8328 67.771 40.2617 68.3271 40.2617 69.5561V72.8972H41.0603L41.0557 72.8925Z" fill="#1F69CC"/>
<path d="M43.5651 74.3738L43.8207 74.9953C45.8924 74.9252 46.6453 74.1028 46.6453 72.3832V67.1823H45.8513V67.8224C45.4589 67.3645 44.9843 67.0654 44.2816 67.0654C43.1088 67.0654 42.1733 68.1028 42.1733 70.1308C42.1733 72.1589 43.0586 73.0094 44.1766 73.0094C44.9295 73.0094 45.4634 72.6308 45.8559 72.1963V72.4907C45.8559 73.8178 45.4315 74.3178 43.5697 74.3738H43.5651ZM44.3728 72.3037C43.4921 72.3037 42.9582 71.5561 42.9582 70.1215C42.9582 68.5841 43.4145 67.771 44.3409 67.771C45.0026 67.771 45.541 68.1542 45.8468 68.6262V71.4813C45.4543 71.986 44.9661 72.3037 44.3683 72.3037H44.3728Z" fill="#1F69CC"/>
<path d="M55.4388 69.0326C55.4388 66.4205 54.0014 65.2756 52.0483 65.2756H50.0815V72.8925H51.8977C53.8873 72.8925 55.4388 71.7943 55.4388 69.028V69.0326ZM50.9121 66.0467H51.9844C53.6956 66.0467 54.6083 67.1168 54.6083 69.0607C54.6083 71.2523 53.6089 72.1214 52.0027 72.1214H50.9075V66.0467H50.9121Z" fill="#1F69CC"/>
<path d="M57.5652 67.8925V67.1869H56.7666V72.8971H57.5652V69.5467C57.5652 68.4532 57.9987 67.8224 58.779 67.8224C59.1486 67.8224 59.395 67.9065 59.6141 68.0373L59.8149 67.2149C59.6278 67.1261 59.3585 67.0747 58.9478 67.0747C58.35 67.0747 57.8161 67.4392 57.5697 67.9018L57.5652 67.8925Z" fill="#1F69CC"/>
<path d="M64.5839 72.3505L64.2142 71.7617C63.7031 72.1122 63.3198 72.3037 62.6673 72.3037C61.7592 72.3037 61.1934 71.5327 61.1158 70.3178H64.8348C64.8622 70.1822 64.8713 70.0654 64.8713 69.8692C64.8713 68.2383 64.0819 67.0654 62.6262 67.0654C61.2983 67.0654 60.3218 68.1916 60.3218 70.0047C60.3218 72.2523 61.563 73.0094 62.5851 73.0094C63.4248 73.0094 63.9176 72.7804 64.5884 72.3505H64.5839ZM62.6171 67.7664C63.5936 67.7664 64.0636 68.5374 64.1275 69.6495H61.1158C61.207 68.3738 61.7866 67.7664 62.6171 67.7664Z" fill="#1F69CC"/>
<path d="M67.5225 73.0094C68.3211 73.0094 68.8732 72.6308 69.2657 72.1963V72.8925H70.0642V68.9112C70.0642 67.5841 69.3113 67.0654 68.1066 67.0654C67.3811 67.0654 66.7239 67.2477 66.2357 67.5187L66.5368 68.1823C66.9932 67.9112 67.4723 67.743 68.0564 67.743C68.8732 67.743 69.2657 68.1542 69.2657 69.0093V69.6869C68.9417 69.5 68.4397 69.3551 67.883 69.3551C66.7741 69.3551 65.7383 69.9019 65.7383 71.1869C65.7383 72.5654 66.6555 73.0094 67.5225 73.0094ZM67.8328 70.0047C68.5082 70.0047 68.9052 70.1309 69.2657 70.3365V71.4907C68.928 71.9673 68.385 72.3505 67.6685 72.3505C66.9521 72.3505 66.5277 71.9766 66.5277 71.1262C66.5277 70.4112 67.0206 70 67.8374 70L67.8328 70.0047Z" fill="#1F69CC"/>
<path d="M78.0682 69.5514V72.8925H78.8622V69.4112C78.8622 67.743 78.1549 67.0654 77.0141 67.0654C76.1106 67.0654 75.6542 67.4953 75.3257 68.0421C75.061 67.4953 74.5864 67.0654 73.797 67.0654C73.1353 67.0654 72.6699 67.3879 72.3824 67.8832V67.1869H71.5884V72.8972H72.3824V69.5561C72.3824 68.2897 72.8615 67.771 73.6282 67.771C74.3948 67.771 74.8283 68.2477 74.8283 69.5561V72.8972H75.6223V69.5561C75.6223 68.2897 76.1106 67.771 76.8681 67.771C77.6712 67.771 78.0682 68.2477 78.0682 69.5561V69.5514Z" fill="#1F69CC"/>
<path d="M84.8264 68.5842C83.3388 68.0421 83.065 67.6823 83.065 67.0515C83.065 66.4206 83.4894 65.93 84.507 65.93C85.2554 65.93 85.7528 66.1776 86.2912 66.6356L86.8206 65.972C86.1954 65.4627 85.5565 65.1589 84.5617 65.1589C83.17 65.1589 82.2345 65.8786 82.2345 67.1029C82.2345 68.201 82.773 68.7337 84.3838 69.3178C85.7436 69.8225 86.1589 70.2244 86.1589 70.93C86.1589 71.7337 85.5428 72.2337 84.5526 72.2337C83.786 72.2337 83.138 71.8692 82.5722 71.3178L82.02 71.944C82.6041 72.5561 83.5122 73.0001 84.5161 73.0001C86.0631 73.0001 86.9803 72.0748 86.9803 70.8832C86.9803 69.6916 86.4737 69.1823 84.8264 68.5702V68.5842Z" fill="#1F69CC"/>
<path d="M90.3662 67.771C90.9275 67.771 91.3017 67.9766 91.7032 68.3505L92.1824 67.7383C91.7443 67.3458 91.1693 67.0654 90.4164 67.0654C89.2482 67.0654 88.0161 67.9533 88.0161 70.0701C88.0161 72.0608 89.1341 73.014 90.3662 73.014C91.1465 73.014 91.6895 72.7103 92.1595 72.2196L91.6804 71.7009C91.3017 72.0794 90.9366 72.3084 90.3981 72.3084C89.4079 72.3084 88.8238 71.4066 88.8238 70C88.8238 68.5935 89.4992 67.771 90.3707 67.771H90.3662Z" fill="#1F69CC"/>
<path d="M95.5957 67.0654C94.8975 67.0654 94.3727 67.3972 94.0533 67.8832V65.1963H93.2593V72.8972H94.0533V69.5561C94.0533 68.3038 94.6648 67.7711 95.4359 67.7711C96.3303 67.7711 96.7502 68.3225 96.7502 69.5561V72.8972H97.5487V69.4112C97.5487 67.7711 96.773 67.0654 95.5911 67.0654H95.5957Z" fill="#1F69CC"/>
<path d="M101.108 67.0654C99.7526 67.0654 98.6665 68.1028 98.6665 70.0467C98.6665 71.9907 99.7069 73.014 101.067 73.014C102.427 73.014 103.513 71.9393 103.513 70C103.513 68.0608 102.463 67.0654 101.108 67.0654ZM101.09 72.3084C100.122 72.3084 99.4696 71.528 99.4696 70.0234C99.4696 68.5187 100.122 67.771 101.09 67.771C102.057 67.771 102.71 68.5234 102.71 70.0234C102.71 71.5234 102.052 72.3084 101.09 72.3084Z" fill="#1F69CC"/>
<path d="M105.516 65.1963H104.717V72.8972H105.516V65.1963Z" fill="#1F69CC"/>
<path d="M109.157 67.0654C108.436 67.0654 107.775 67.2523 107.291 67.5234L107.588 68.1916C108.044 67.9159 108.523 67.7523 109.107 67.7523C109.924 67.7523 110.316 68.1682 110.316 69.0093V69.6916C109.988 69.5 109.486 69.3598 108.929 69.3598C107.82 69.3598 106.789 69.9066 106.789 71.1916C106.789 72.5748 107.702 73.014 108.573 73.014C109.372 73.014 109.924 72.6402 110.316 72.2009V72.8972H111.115V68.9159C111.115 67.5841 110.362 67.0654 109.157 67.0654ZM110.316 71.4907C109.979 71.9673 109.431 72.3505 108.715 72.3505C108.039 72.3505 107.579 71.9766 107.579 71.1308C107.579 70.4112 108.071 70.0094 108.888 70.0094C109.568 70.0094 109.961 70.1309 110.321 70.3365V71.4907H110.316Z" fill="#1F69CC"/>
<path d="M113.433 67.8925V67.1823H112.635V72.8972H113.433V69.5467C113.433 68.458 113.867 67.8178 114.643 67.8178C115.017 67.8178 115.259 67.9019 115.482 68.0327L115.683 67.2056C115.496 67.1215 115.227 67.0654 114.816 67.0654C114.218 67.0654 113.684 67.4299 113.433 67.8925Z" fill="#1F69CC"/>
<path d="M118.745 69.5795C117.796 69.1402 117.513 68.944 117.513 68.4627C117.513 68.0514 117.855 67.7524 118.439 67.7524C119.023 67.7524 119.397 67.9206 119.831 68.2664L120.278 67.6683C119.849 67.3085 119.261 67.0608 118.494 67.0608C117.481 67.0608 116.751 67.6449 116.751 68.5187C116.751 69.4346 117.221 69.7804 118.339 70.2664C119.324 70.701 119.658 70.9627 119.658 71.43C119.658 71.9907 119.292 72.3131 118.535 72.3131C117.978 72.3131 117.458 72.0795 117.011 71.6823L116.545 72.2804C117.075 72.7197 117.746 73.0094 118.512 73.0094C119.475 73.0094 120.424 72.5234 120.424 71.4019C120.424 70.3739 119.808 70.0655 118.754 69.5748L118.745 69.5795Z" fill="#1F69CC"/>
<path d="M124.052 67.0654C123.349 67.0654 122.829 67.3972 122.509 67.8832V65.1963H121.715V72.8972H122.509V69.5561C122.509 68.3038 123.116 67.7711 123.892 67.7711C124.782 67.7711 125.206 68.3225 125.206 69.5561V72.8972H126.005V69.4112C126.005 67.7711 125.229 67.0654 124.052 67.0654Z" fill="#1F69CC"/>
<path d="M128.373 67.1824H127.579V72.8973H128.373V67.1824Z" fill="#1F69CC"/>
<path d="M127.995 64.9954C127.666 64.9954 127.411 65.257 127.411 65.5888C127.411 65.9019 127.666 66.1636 127.995 66.1636C128.287 66.1636 128.547 65.9019 128.547 65.5888C128.547 65.257 128.287 64.9954 127.995 64.9954Z" fill="#1F69CC"/>
<path d="M132.457 67.0654C131.704 67.0654 131.17 67.4439 130.778 67.8832V67.1869H129.984V75H130.778V72.257C131.17 72.7103 131.649 73.014 132.352 73.014C133.52 73.014 134.456 71.9673 134.456 69.9486C134.456 67.9299 133.571 67.0654 132.457 67.0654ZM132.288 72.3084C131.631 72.3084 131.088 71.9252 130.778 71.4486V68.5981C131.17 68.1028 131.663 67.771 132.256 67.771C133.142 67.771 133.676 68.5234 133.676 69.958C133.676 71.4907 133.219 72.3084 132.288 72.3084Z" fill="#1F69CC"/>
<path d="M138.677 66.0516H142.218V65.2805H137.847V72.8973H138.677V69.3459H140.717V68.5796H138.677V66.0516Z" fill="#1F69CC"/>
<path d="M144.641 67.0654C143.286 67.0654 142.195 68.1028 142.195 70.0467C142.195 71.9907 143.24 73.014 144.596 73.014C145.951 73.014 147.041 71.9393 147.041 70C147.041 68.0608 146.001 67.0654 144.641 67.0654ZM144.618 72.3084C143.651 72.3084 143.003 71.528 143.003 70.0234C143.003 68.5187 143.651 67.771 144.618 67.771C145.586 67.771 146.247 68.5234 146.247 70.0234C146.247 71.5234 145.59 72.3084 144.618 72.3084Z" fill="#1F69CC"/>
<path d="M151.445 70.5188C151.445 71.7712 150.843 72.3039 150.067 72.3039C149.173 72.3039 148.748 71.7525 148.748 70.5188V67.1824H147.95V70.6637C147.95 72.3085 148.725 73.0141 149.907 73.0141C150.601 73.0141 151.121 72.6824 151.441 72.2011V72.8973H152.239V67.1824H151.441V70.5188H151.445Z" fill="#1F69CC"/>
<path d="M155.917 67.0654C155.219 67.0654 154.699 67.3972 154.375 67.8832V67.1869H153.576V72.9019H154.375V69.5608C154.375 68.3084 154.982 67.7757 155.757 67.7757C156.652 67.7757 157.076 68.3271 157.076 69.5608V72.9019H157.87V69.4159C157.87 67.7757 157.094 67.0701 155.913 67.0701L155.917 67.0654Z" fill="#1F69CC"/>
<path d="M162.671 67.8271C162.278 67.3692 161.799 67.0654 161.096 67.0654C159.928 67.0654 158.993 68.1028 158.993 70.1355C158.993 72.1682 159.873 73.014 160.991 73.014C161.744 73.014 162.274 72.6402 162.671 72.201V72.8972H163.469V65.1963H162.671V67.8318V67.8271ZM162.671 71.4767C162.278 71.9767 161.785 72.3038 161.192 72.3038C160.311 72.3038 159.778 71.5561 159.778 70.1169C159.778 68.5795 160.234 67.7664 161.16 67.7664C161.822 67.7664 162.356 68.1449 162.671 68.6262V71.4767Z" fill="#1F69CC"/>
<path d="M166.85 67.0654C166.125 67.0654 165.468 67.2523 164.979 67.5234L165.276 68.1916C165.737 67.9159 166.216 67.7523 166.796 67.7523C167.612 67.7523 168.005 68.1682 168.005 69.0093V69.6916C167.676 69.5 167.174 69.3598 166.613 69.3598C165.513 69.3598 164.478 69.9066 164.478 71.1916C164.478 72.5748 165.395 73.014 166.266 73.014C167.065 73.014 167.612 72.6402 168.005 72.2009V72.8972H168.804V68.9159C168.804 67.5841 168.051 67.0654 166.85 67.0654ZM168.005 71.4907C167.667 71.9673 167.124 72.3505 166.399 72.3505C165.723 72.3505 165.267 71.9766 165.267 71.1308C165.267 70.4112 165.755 70.0094 166.572 70.0094C167.252 70.0094 167.644 70.1309 168.005 70.3365V71.4907Z" fill="#1F69CC"/>
<path d="M171.346 65.1963H170.547V67.1869H169.858V67.8739H170.547V71.729C170.547 72.6729 170.921 73.0187 171.615 73.0187C172.035 73.0187 172.331 72.958 172.641 72.8225L172.696 72.1168C172.441 72.2243 172.231 72.2804 171.907 72.2804C171.482 72.2804 171.346 72.1075 171.346 71.5935V67.8739H172.728V67.1869H171.346V65.1963Z" fill="#1F69CC"/>
<path d="M174.535 64.9954C174.206 64.9954 173.946 65.257 173.946 65.5888C173.946 65.9019 174.206 66.1636 174.535 66.1636C174.836 66.1636 175.092 65.9019 175.092 65.5888C175.092 65.257 174.836 64.9954 174.535 64.9954Z" fill="#1F69CC"/>
<path d="M174.914 67.1824H174.12V72.8973H174.914V67.1824Z" fill="#1F69CC"/>
<path d="M178.564 67.0654C177.209 67.0654 176.123 68.1028 176.123 70.0467C176.123 71.9907 177.163 73.014 178.523 73.014C179.883 73.014 180.965 71.9393 180.965 70C180.965 68.0608 179.924 67.0654 178.564 67.0654ZM178.542 72.3084C177.579 72.3084 176.931 71.528 176.931 70.0234C176.931 68.5187 177.579 67.771 178.542 67.771C179.504 67.771 180.171 68.5234 180.171 70.0234C180.171 71.5234 179.514 72.3084 178.542 72.3084Z" fill="#1F69CC"/>
<path d="M184.451 67.0654C183.749 67.0654 183.228 67.3972 182.909 67.8832V67.1869H182.11V72.9019H182.909V69.5608C182.909 68.3084 183.516 67.7757 184.292 67.7757C185.191 67.7757 185.61 68.3271 185.61 69.5608V72.9019H186.404V69.4159C186.404 67.7757 185.629 67.0701 184.451 67.0701V67.0654Z" fill="#1F69CC"/>
<path d="M102.112 12.6776L95.9837 10.0794L102.112 7.48131L101.022 4.78972L94.8931 7.38785L97.4348 1.11215L94.8064 0L92.2692 6.2757L89.7275 0L87.1036 1.11215L89.6408 7.38785L83.5123 4.78972L82.4263 7.48131L88.5501 10.0794L82.4263 12.6776L83.5123 15.3692L89.6408 12.7664L87.1036 19.0421L89.732 20.1589L92.2692 13.8832L94.8064 20.1589L97.4348 19.0421L94.8931 12.7664L101.022 15.3692L102.112 12.6776Z" fill="#75B0FF"/>
<path d="M62.4437 30.1962H66.5232V19.042H52.5825V22.799H62.4437V30.1962Z" fill="#75B0FF"/>
<path d="M78.3511 30.1962H82.4261V19.042H68.4854V22.799H78.3511V30.1962Z" fill="#75B0FF"/>
<path d="M51.9253 35.9626H78.3511V41.7056H82.4261V32.2056H51.9253V35.9626Z" fill="#75B0FF"/>
<path d="M61.7866 59.2523H82.4216V43.6401H61.7866V59.2523ZM65.8662 47.3971H78.3512V55.4953H65.8662V47.3971Z" fill="#75B0FF"/>
</g>
<defs>
<clipPath id="clip0_35_1284">
<rect width="190" height="75" fill="white"/>
</clipPath>
</defs>
</svg>
