<svg width="35" height="34" viewBox="0 0 35 34" fill="none" xmlns="http://www.w3.org/2000/svg">
<path d="M25.93 24.78C26.18 23.58 26.39 22.41 26.58 21.32C26.73 20.48 26.87 19.69 27.01 18.98C27.28 18.27 29.66 11.9 29.66 10.42C29.66 4.67 24.99 0 19.24 0C17.65 0 16.18 0.59 14.83 1.26C13.48 0.58 12.01 0 10.42 0C4.67 0 0 4.67 0 10.42C0 11.07 0.660009 12.91 2.04001 16.54C2.39001 17.45 2.72 18.31 2.8 18.59C2.9 19.12 3.01001 19.88 3.12001 20.75C3.56001 24.01 4.22001 28.93 6.24001 32.63C6.33001 32.92 6.55 33.26 6.94 33.44C7.12 33.52 7.32001 33.57 7.54001 33.57C7.99001 33.57 8.50001 33.38 9.10001 33C9.91001 32.49 10.04 31.16 10.27 28.96C10.72 24.54 11.41 20.55 14.77 20.28C18.13 20.54 18.81 24.54 19.27 28.96C19.5 31.16 19.63 32.49 20.44 33C21.32 33.56 22.02 33.7 22.6 33.44C22.99 33.26 23.21 32.92 23.3 32.63C23.91 31.51 24.41 30.3 24.82 29.06L23.27 28.81C22.89 29.92 22.44 30.99 21.9 31.97C21.9 31.97 21.9 31.99 21.89 31.99C21.78 31.96 21.6 31.89 21.32 31.71C21.09 31.38 20.94 29.89 20.83 28.79C20.43 24.91 19.83 19.06 14.84 18.72C14.81 18.72 14.77 18.72 14.74 18.72C9.75001 19.05 9.15 24.91 8.75 28.79C8.64 29.88 8.48001 31.38 8.26001 31.71C7.98001 31.89 7.79 31.96 7.69 31.99C7.69 31.99 7.69001 31.97 7.68001 31.97C5.76001 28.52 5.12 23.72 4.69 20.55C4.57 19.63 4.46001 18.84 4.34001 18.26C4.34001 18.24 4.34001 18.22 4.32001 18.2C4.24001 17.91 3.97001 17.21 3.51001 16C2.89001 14.38 1.60001 11.01 1.57001 10.43C1.57001 5.54 5.55 1.56 10.44 1.56C11.84 1.56 13.22 2.17 14.5 2.83C14.72 2.94 14.99 2.94 15.21 2.83C16.49 2.17 17.86 1.56 19.27 1.56C24.16 1.56 28.14 5.54 28.14 10.43C28.14 11.36 26.32 16.57 25.57 18.5C25.55 18.54 25.54 18.58 25.53 18.62C25.38 19.36 25.23 20.19 25.08 21.06C24.87 22.23 24.65 23.49 24.37 24.78H25.95H25.93Z" fill="#272525"/>
<path d="M22.2301 5.81999C21.4101 5.58999 20.5601 5.68999 19.8201 6.10999C19.0801 6.52999 18.5501 7.19999 18.3201 8.01999C18.0901 8.83999 18.1901 9.68999 18.6101 10.43C19.1901 11.47 20.2701 12.05 21.3801 12.05C21.9101 12.05 22.4401 11.92 22.9301 11.64C23.6701 11.22 24.2001 10.55 24.4301 9.72999C24.6601 8.90999 24.5601 8.05999 24.1401 7.31999C23.7301 6.57999 23.0501 6.04999 22.2301 5.81999ZM19.6901 9.81999C19.4401 9.36999 19.3701 8.84999 19.5101 8.34999C19.6501 7.84999 19.9701 7.43999 20.4301 7.18999C20.7201 7.02999 21.0501 6.93999 21.3701 6.93999C21.5501 6.93999 21.7201 6.95999 21.9001 7.00999C22.4001 7.14999 22.8101 7.46999 23.0601 7.92999C23.5801 8.85999 23.2501 10.04 22.3201 10.57C21.3901 11.09 20.2101 10.76 19.6901 9.82999V9.81999Z" fill="#272525"/>
<path d="M34.0399 25.7099V28.4099H30.9299C30.6699 28.4099 30.4599 28.6199 30.4599 28.8799V31.9899H27.7599V28.8799C27.7599 28.6199 27.55 28.4099 27.3 28.4099H24.1799V25.7099H27.3C27.55 25.7099 27.7599 25.4999 27.7599 25.2399V22.1299H30.4599V25.2399C30.4599 25.4999 30.6699 25.7099 30.9299 25.7099H34.0399Z" fill="#54EA54"/>
<path d="M34.97 25.24V28.8799C34.97 29.1299 34.77 29.34 34.51 29.34H31.39V32.46C31.39 32.71 31.19 32.92 30.93 32.92H27.3C27.04 32.92 26.83 32.71 26.83 32.46V29.34H23.72C23.46 29.34 23.25 29.1299 23.25 28.8799V25.24C23.25 24.99 23.46 24.78 23.72 24.78H26.83V21.66C26.83 21.4 27.04 21.2 27.3 21.2H30.93C31.19 21.2 31.39 21.4 31.39 21.66V24.78H34.51C34.77 24.78 34.97 24.99 34.97 25.24ZM34.04 28.41V25.71H30.93C30.67 25.71 30.46 25.5 30.46 25.24V22.13H27.76V25.24C27.76 25.5 27.55 25.71 27.3 25.71H24.18V28.41H27.3C27.55 28.41 27.76 28.6199 27.76 28.8799V31.99H30.46V28.8799C30.46 28.6199 30.67 28.41 30.93 28.41H34.04Z" fill="#272525"/>
</svg>
