<svg width="38" height="33" viewBox="0 0 38 33" fill="none" xmlns="http://www.w3.org/2000/svg">
<g clip-path="url(#clip0_15_482)">
<path d="M10.219 24.2363L15.2329 16.3928C15.3603 16.1873 15.5787 16.0712 15.8244 16.0712C15.9427 16.0712 16.0519 16.098 16.1611 16.1516C18.3177 17.304 20.4288 17.8489 22.3215 18.3046C22.4489 18.3314 22.5672 18.3671 22.6946 18.3939L22.367 19.725C21.9848 19.6356 21.5844 19.5374 21.175 19.4391C19.6371 19.055 17.89 18.5458 16.1247 17.6792L11.7114 24.6651L10.2281 24.2453L10.219 24.2363ZM8.66298 25.5227L8.80857 23.1911C8.61748 23.1018 8.49919 23.0571 8.38999 22.9857L7.42543 22.405C7.07965 22.1995 6.84306 21.869 6.75206 21.4848C6.66106 21.1007 6.72476 20.7076 6.93405 20.3682C7.20704 19.9304 7.68932 19.6714 8.2171 19.6714C8.47189 19.6714 8.72668 19.7339 8.95417 19.859L9.13616 17.9383L8.208 17.3487C7.86221 17.1432 7.62562 16.8216 7.53463 16.4285C7.44363 16.0444 7.50733 15.6513 7.71662 15.3119C7.92591 14.9724 8.2626 14.7401 8.65388 14.6508C8.76308 14.624 8.87227 14.6151 8.99057 14.6151C9.09976 14.6151 9.19986 14.624 9.29995 14.6419L9.40005 13.8021C3.99488 10.2913 -1.04631 5.30644 0.191236 3.32323C0.482423 2.85869 1.1012 2.61749 2.03846 2.61749C4.45896 2.61749 8.97237 4.28803 13.5404 6.86979L14.0864 6.58392C13.9954 6.36952 13.9226 6.20872 13.8862 6.04792C13.7952 5.66378 13.8589 5.27071 14.0682 4.93124C14.2774 4.59177 14.6141 4.3595 15.0054 4.27017C15.1237 4.24337 15.242 4.2255 15.3603 4.2255C15.6333 4.2255 15.9063 4.29697 16.1429 4.44884L16.9345 4.93124L18.6544 3.97537C18.3905 3.6895 18.2085 3.41256 18.1357 3.09989C18.0447 2.71576 18.1084 2.32269 18.3177 1.98322C18.527 1.64375 18.8545 1.41148 19.2549 1.32214C19.3732 1.29534 19.4915 1.27748 19.6098 1.27748C19.8828 1.27748 20.1558 1.34894 20.3924 1.50081L21.3569 2.08148C21.4388 2.13508 21.5207 2.18868 21.5935 2.26015L25.379 0.0893341C25.4882 0.0268002 25.6065 0 25.7339 0C25.925 0 26.0978 0.0714673 26.2343 0.205468C26.4618 0.428804 26.4982 0.777206 26.3344 1.04521L20.1285 10.9524C22.4853 12.7033 24.3325 14.624 25.6884 16.0355L26.3071 16.6787L31.958 15.3833C32.0126 15.3744 32.0672 15.3655 32.1218 15.3655C32.3948 15.3655 32.6405 15.5263 32.7588 15.7675C32.8043 15.8747 32.8316 15.9819 32.8225 16.098C32.8043 16.3035 32.6951 16.4911 32.5222 16.6072C30.4111 18.0544 29.0916 19.6982 28.2545 21.1811L27.0533 20.4218C27.6721 19.3676 28.4182 18.385 29.31 17.4827L26.2616 18.108C26.207 18.1169 26.1524 18.1259 26.0978 18.1259C25.9068 18.1259 25.7248 18.0544 25.5974 17.9204C25.3153 17.6435 25.0241 17.3308 24.7056 17.0003C23.1496 15.3833 21.2659 13.418 18.7727 11.7296C18.4724 11.5241 18.3814 11.1221 18.5725 10.8094L23.5864 2.80509L22.0576 3.5823C22.003 3.77883 21.9393 3.94857 21.8392 4.0915C21.6299 4.43097 21.2932 4.66324 20.902 4.75257C20.7928 4.77937 20.6745 4.78831 20.5653 4.78831C20.4106 4.78831 20.2559 4.76151 20.1012 4.71684L17.8263 6.01218C17.8263 6.18192 17.8263 6.28912 17.8263 6.38739C17.8081 6.62859 17.7353 6.85192 17.6079 7.04846C17.3986 7.38793 17.071 7.6202 16.6706 7.70953C16.5523 7.73633 16.4341 7.7542 16.3158 7.7542C16.0428 7.7542 15.7698 7.6738 15.5332 7.53086L15.3876 7.44153L13.9317 8.25447C13.8225 8.317 13.7042 8.3438 13.5768 8.3438C13.4494 8.3438 13.3311 8.30807 13.2219 8.24553C7.31624 4.86871 3.367 3.9575 1.96566 3.9575C1.71997 3.9575 1.53798 3.9843 1.41968 4.0379C1.38329 5.12778 4.51355 9.06741 10.5102 12.8552C10.7195 12.9892 10.8469 13.2304 10.8287 13.4716L10.7104 15.3565C11.1108 15.6245 11.3474 15.9461 11.4384 16.3303C11.4748 16.4821 11.4839 16.6251 11.4748 16.7769C11.4566 17.0092 11.3838 17.2415 11.2564 17.4469C11.0926 17.706 10.856 17.9115 10.5648 18.0276L10.3646 20.7791C10.5102 20.9846 10.6103 21.1722 10.6558 21.3776C10.6922 21.5295 10.7013 21.6814 10.6922 21.8332C10.674 22.0655 10.6012 22.2978 10.4738 22.5033C10.4192 22.5926 10.3464 22.6819 10.2463 22.7713L10.1462 24.2006L8.66298 25.5227ZM8.2262 20.7434C8.0806 20.7434 7.95321 20.8148 7.87131 20.931C7.83491 20.9846 7.81672 21.0471 7.81672 21.1096C7.80762 21.2615 7.88041 21.4044 8.00781 21.4848L8.97237 22.0655C9.03606 22.1012 9.10886 22.128 9.19076 22.128H9.29085C9.40005 22.0923 9.49104 22.0298 9.54564 21.9404C9.60024 21.8511 9.61844 21.7439 9.59114 21.6367C9.56384 21.5295 9.50014 21.4402 9.40915 21.3866L8.44459 20.8059C8.38089 20.7702 8.30809 20.7434 8.2262 20.7434ZM8.90867 15.7049C8.79947 15.7317 8.70848 15.7943 8.65388 15.8836C8.61748 15.9372 8.59928 15.9997 8.59928 16.0623C8.59018 16.2141 8.66298 16.3571 8.79037 16.4375L9.75493 17.0181C9.81863 17.0539 9.89143 17.0807 9.97332 17.0807C10.1189 17.0807 10.2463 17.0092 10.3282 16.8931C10.3828 16.8037 10.401 16.6965 10.3737 16.5893C10.3464 16.4821 10.2827 16.3928 10.1917 16.3392L9.22716 15.7585C9.16346 15.7228 9.09066 15.696 9.00876 15.696H8.90867V15.7049ZM15.2511 5.32431C15.1419 5.35111 15.0509 5.41364 14.9963 5.50298C14.9599 5.55658 14.9417 5.61911 14.9326 5.68165C14.9326 5.72631 14.9326 5.76205 14.9417 5.80671C14.969 5.91392 15.0327 6.00325 15.1237 6.05685L16.0883 6.63752C16.152 6.67325 16.2248 6.70005 16.3067 6.70005C16.4523 6.70005 16.5796 6.62859 16.6524 6.51245C16.707 6.42312 16.7252 6.31592 16.6979 6.20872C16.6706 6.10152 16.6069 6.01218 16.5159 5.95858L15.5514 5.37791C15.4877 5.34218 15.4149 5.31538 15.333 5.31538H15.2329L15.2511 5.32431ZM19.4915 2.37629C19.3823 2.40309 19.2913 2.46562 19.2367 2.55495C19.1821 2.64429 19.1639 2.75149 19.1912 2.85869C19.2185 2.96589 19.2822 3.05523 19.3732 3.10883L20.3378 3.6895C20.4015 3.72523 20.4743 3.75203 20.5562 3.75203H20.6563C20.7655 3.7163 20.8565 3.65376 20.9111 3.56443C20.9657 3.4751 20.9839 3.36789 20.9566 3.26069C20.9293 3.15349 20.8656 3.06416 20.7746 3.01056L19.81 2.42989C19.7463 2.39415 19.6735 2.36735 19.5916 2.36735H19.4915V2.37629Z" fill="#272525"/>
<path d="M36.2801 28.7209C36.2801 29.6232 36.0709 30.5165 35.6614 31.3205H8.38072C8.06223 30.722 7.89844 30.0609 7.89844 29.382C7.89844 27.0593 9.81846 25.1743 12.1844 25.1743C12.7303 25.1743 13.2581 25.2726 13.7586 25.4691C13.9497 25.5406 14.1681 25.5317 14.3592 25.4423C14.5412 25.3619 14.6868 25.2011 14.7413 25.0046C15.715 21.8511 18.6269 19.7339 21.9846 19.7339C24.4051 19.7339 26.6255 20.8327 28.0723 22.7444C28.2452 22.9856 28.5546 23.0928 28.8458 23.0214C29.3189 22.9052 29.8103 22.8427 30.3017 22.8427C33.5958 22.8427 36.2801 25.4781 36.2801 28.7209Z" fill="#74B0FF"/>
<path d="M37.7635 28.7209C37.7635 30.0162 37.4177 31.3026 36.7443 32.4193C36.6169 32.6426 36.3712 32.7766 36.1073 32.7766H7.95312C7.69833 32.7766 7.46174 32.6516 7.32524 32.4461C6.73377 31.526 6.41528 30.4718 6.41528 29.3819C6.41528 28.4439 6.65187 27.5595 7.07046 26.7823L7.92582 25.5763C8.98138 24.4418 10.501 23.7182 12.1844 23.7182C12.6576 23.7182 13.1217 23.7718 13.5676 23.879C14.0954 22.5747 14.9143 21.4401 15.9335 20.5468L17.2893 19.5641C18.6634 18.7422 20.274 18.2777 21.9847 18.2777C24.6782 18.2777 27.2534 19.4748 28.9641 21.5027C29.4009 21.4223 29.8468 21.3865 30.3018 21.3865C34.4148 21.3865 37.7635 24.674 37.7635 28.7209ZM35.6615 31.3205C36.0709 30.5165 36.2802 29.6231 36.2802 28.7209C36.2802 25.478 33.5958 22.8427 30.3018 22.8427C29.8104 22.8427 29.319 22.9052 28.8458 23.0213C28.5547 23.0928 28.2453 22.9856 28.0724 22.7444C26.6255 20.8327 24.4052 19.7339 21.9847 19.7339C18.627 19.7339 15.7151 21.8511 14.7414 25.0046C14.6868 25.2011 14.5412 25.3619 14.3592 25.4423C14.1682 25.5316 13.9498 25.5406 13.7587 25.4691C13.2582 25.2726 12.7304 25.1743 12.1844 25.1743C9.81854 25.1743 7.89852 27.0592 7.89852 29.3819C7.89852 30.0609 8.06231 30.7219 8.3808 31.3205H35.6615Z" fill="#272525"/>
</g>
<defs>
<clipPath id="clip0_15_482">
<rect width="38" height="33" fill="white"/>
</clipPath>
</defs>
</svg>
