<svg width="22" height="14" viewBox="0 0 22 14" fill="none" xmlns="http://www.w3.org/2000/svg">
<path d="M3.81875 7.62287C4.28819 7.62287 4.68993 7.51905 5.02396 7.31141C5.35799 7.10377 5.525 6.79231 5.525 6.37703C5.525 5.96176 5.35799 5.64578 5.02396 5.42912C4.68993 5.21245 4.28819 5.10412 3.81875 5.10412C3.34931 5.10412 2.94757 5.21245 2.61354 5.42912C2.27951 5.64578 2.1125 5.96176 2.1125 6.37703C2.1125 6.79231 2.27951 7.10377 2.61354 7.31141C2.94757 7.51905 3.34931 7.62287 3.81875 7.62287ZM0 3.53328V2.34162H3.0875V0.824951H4.49583V2.34162H7.61042V3.53328H0ZM3.81875 8.81453C2.97014 8.81453 2.2434 8.60238 1.63854 8.17808C1.03368 7.75377 0.73125 7.15342 0.73125 6.37703C0.73125 5.58259 1.03368 4.97773 1.63854 4.56245C2.2434 4.14717 2.97014 3.93953 3.81875 3.93953C4.68542 3.93953 5.42118 4.14717 6.02604 4.56245C6.6309 4.97773 6.93333 5.58259 6.93333 6.37703C6.93333 7.17148 6.6309 7.77634 6.02604 8.19162C5.42118 8.6069 4.68542 8.81453 3.81875 8.81453ZM1.84167 13.175V9.38328H3.27708V11.9833H10.4271V13.175H1.84167ZM8.47708 10.3312V0.824951H9.85833V4.88745H11.7271V6.07912H9.88542V10.3312H8.47708ZM16.9813 10.9541C17.4868 10.9541 17.9788 10.8368 18.4573 10.602C18.9358 10.3673 19.3736 10.0333 19.7708 9.59995V6.72912C19.3556 6.78328 18.9719 6.84648 18.6198 6.9187C18.2677 6.99092 17.9382 7.07217 17.6313 7.16245C16.8188 7.41523 16.2094 7.7312 15.8031 8.11037C15.3969 8.48953 15.1938 8.9319 15.1938 9.43745C15.1938 9.9069 15.3562 10.277 15.6813 10.5479C16.0063 10.8187 16.4396 10.9541 16.9813 10.9541ZM16.3583 12.7958C15.3292 12.7958 14.5167 12.5024 13.9208 11.9156C13.325 11.3288 13.0271 10.5298 13.0271 9.5187C13.0271 8.57981 13.325 7.81245 13.9208 7.21662C14.5167 6.62078 15.4736 6.14231 16.7917 5.7812C17.2069 5.67287 17.6628 5.57356 18.1594 5.48328C18.6559 5.39301 19.1931 5.31176 19.7708 5.23953C19.7347 4.39092 19.5361 3.77252 19.175 3.38433C18.8139 2.99613 18.2542 2.80203 17.4958 2.80203C17.0264 2.80203 16.5615 2.8878 16.101 3.05933C15.6406 3.23085 15.0493 3.53328 14.3271 3.96662L13.4604 2.44995C14.0563 1.99856 14.7559 1.63294 15.5594 1.35308C16.3628 1.07322 17.1799 0.933285 18.0104 0.933285C19.2924 0.933285 20.2674 1.33051 20.9354 2.12495C21.6035 2.9194 21.9375 4.07495 21.9375 5.59162V12.552H20.1229L19.9604 11.3333C19.4549 11.7847 18.8997 12.1413 18.2948 12.4031C17.6899 12.6649 17.0444 12.7958 16.3583 12.7958Z" fill="#3D3D3D"/>
</svg>
