<?xml version="1.0" encoding="UTF-8"?>
<svg id="Layer_1" data-name="Layer 1" xmlns="http://www.w3.org/2000/svg" viewBox="0 0 128 128">
  <path d="m84.06,123.35c-.22,0-.45-.04-.67-.12-.97-.37-1.46-1.46-1.1-2.43,2.04-5.39-2.15-11.39-2.19-11.45-.23-.32-.35-.7-.35-1.09v-14.97l-7.54,5.3c-.53.37-1.21.45-1.81.2-3.71-1.55-10.03-.46-12.15.09-.52.13-1.08.04-1.53-.26l-7.99-5.4v14.2c0,.24-.05.49-.14.71-2.33,5.7-1.45,13.03-1.44,13.11.13,1.03-.6,1.97-1.63,2.1-1.03.13-1.97-.6-2.11-1.63-.04-.33-.99-8.1,1.55-14.66v-17.39c0-.7.38-1.34,1-1.66.62-.33,1.36-.29,1.94.1l10.25,6.92c2.19-.47,8.11-1.51,12.69-.08l9.71-6.82c.57-.4,1.33-.46,1.95-.13.62.32,1.02.97,1.02,1.67v18.04c1.16,1.85,4.65,8.2,2.29,14.43-.28.75-1,1.22-1.76,1.22Z"/>
  <circle cx="57.65" cy="112.87" r="2.41"/>
  <circle cx="71.14" cy="112.87" r="2.41"/>
  <path d="m100.42,113.34s-.04,0-.06,0c-1.04-.03-1.86-.9-1.83-1.94,0-.11.09-6.84-4.83-12.23-1.37-1.5-2-3.34-1.82-5.33.48-5.33,6.65-10.58,9.28-12.59.19-.15.35-.32.47-.52,1.25-2.1,2.74-6.19-1.41-9.99-.77-.7-.82-1.9-.12-2.66.7-.77,1.9-.82,2.66-.12,6.52,5.98,3.25,12.76,2.1,14.7-.37.61-.84,1.15-1.42,1.59-3.43,2.62-7.53,6.79-7.82,9.93-.08.94.19,1.72.85,2.45,5.99,6.57,5.82,14.54,5.81,14.88-.03,1.02-.87,1.83-1.88,1.83Z"/>
  <circle cx="67.98" cy="37.73" r="2.41"/>
  <path d="m64.49,96.94h-.03c-1.04-.02-1.87-.87-1.85-1.92l.43-26.2c0-.26.06-.52.17-.76,2.6-5.62,14.48-6.6,16.36-6.73,11.74-2.19,19.43-6.3,22.86-12.2,2.28-3.93,2.02-7.66,1.68-9.52l-23.92-.5c-.66-.01-1.26-.37-1.59-.94l-7.55-13.01h-29.58c-4.98,0-6.64,5.84-6.79,6.41l-6.27,31.9c-.06.31-.2.6-.41.85l-19.38,23.11c-.67.8-1.86.9-2.65.23-.8-.67-.9-1.86-.23-2.65l19.07-22.74,6.19-31.47s.01-.05.02-.08c.78-3.22,3.98-9.32,10.46-9.32h30.67c.67,0,1.29.36,1.63.94l7.56,13.03,24.29.51c.78.02,1.47.51,1.73,1.24.1.28,2.4,6.82-1.61,13.82-3.99,6.97-12.6,11.72-25.59,14.12-.08.01-.15.02-.23.03-4.59.28-11.5,1.77-13.11,4.25l-.42,25.74c-.02,1.03-.86,1.85-1.88,1.85Z"/>
  <path d="m64.93,70.74c-.09,0-.19,0-.28-.02l-38.37-5.75c-1.03-.15-1.74-1.11-1.58-2.14.15-1.03,1.11-1.74,2.14-1.58l38.37,5.75c1.03.15,1.74,1.11,1.58,2.14-.14.93-.94,1.61-1.86,1.61Z"/>
  <path d="m86.18,63.02c-16.11,0-22.26-9.13-22.52-9.53-.57-.87-.32-2.04.55-2.61.87-.57,2.03-.33,2.6.54.25.37,5.93,8.55,21.41,7.78,1.04-.06,1.92.75,1.98,1.79.05,1.04-.75,1.92-1.79,1.98-.76.04-1.51.06-2.23.06Z"/>
  <path d="m101.87,54.95c-.73,0-1.42-.42-1.73-1.13l-6.81-15.53c-.42-.95.02-2.06.97-2.48.95-.42,2.06.02,2.48.97l6.81,15.53c.42.95-.02,2.06-.97,2.48-.25.11-.5.16-.76.16Z"/>
  <path d="m29.58,53.67c-.53,0-.85-.02-.91-.02l.23-3.76c1.03.06,25.4,1.16,30.16-26.92l3.72.63c-2.78,16.4-11.9,23.71-19.06,26.96-6.21,2.81-11.96,3.12-14.13,3.12Z"/>
  <path d="m64.8,71.54c2.96,0,5.35,2.4,5.35,5.35s-2.4,5.35-5.35,5.35"/>
  <g id="circle">
    <path d="m64.15,7.7c30.96,0,56.15,25.19,56.15,56.15s-25.19,56.15-56.15,56.15S8,94.81,8,63.85,33.19,7.7,64.15,7.7m0-7C29.27.7,1,28.98,1,63.85s28.27,63.15,63.15,63.15,63.15-28.27,63.15-63.15S99.02.7,64.15.7h0Z"/>
  </g>
</svg>