<svg width="118" height="52" viewBox="0 0 118 52" fill="none" xmlns="http://www.w3.org/2000/svg">
<path d="M101.58 36.5078C101.08 36.5078 100.57 36.4349 100.08 36.2708C97.7402 35.5143 96.5102 33.1719 97.3402 31.0301L105.18 10.8875L81.5802 18.4979C79.2402 19.2544 76.6702 18.1334 75.8402 16.0006C75.0102 13.8679 76.2402 11.5255 78.5802 10.769L111.08 0.287595C112.72 -0.241034 114.54 0.132652 115.76 1.25371C116.98 2.37477 117.4 4.03357 116.82 5.52831L105.82 33.7826C105.17 35.4596 103.43 36.5169 101.58 36.5169V36.5078Z" fill="#ED2224"/>
<path d="M84.1801 32.4062H81.3501V41.2198H84.1801V32.4062Z" fill="#FDFAF3"/>
<path d="M84.1801 43.2251H81.3501V48.2744H84.1801V43.2251Z" fill="#FDFAF3"/>
<path d="M3.75 48.885C3.75 48.885 3.75 48.9215 3.75 48.9762V49.1858H3.76C3.82 49.9058 4.14 51.6011 5.91 51.6011H17.24V50.1246H17.22V45.2302H17.24V43.7537H3.75V48.9033V48.885ZM6.58 45.2211H14.39V50.1155H6.58V45.2211ZM17.25 32.4975H2.92V33.9741H14.42V40.1627H0V41.6392H21.5V40.1627H17.25V32.4884V32.4975ZM83.81 43.2251H70.06V44.7016H83.81V43.2251ZM59.94 44.8565H62.77V32.3973H59.94V37.5195H55.65V38.996H59.94V44.8474V44.8565ZM83.9 36.0065H78.23V37.4831H83.9V36.0065ZM35.03 45.057C37.9 44.5193 40.05 42.3683 40.05 39.7981C40.05 38.2304 39.24 36.8177 37.96 35.8334H42.11V34.3569H35.03V32.2515H32.2V34.3569H25.12V35.8334H29.27C27.99 36.8177 27.18 38.2304 27.18 39.7981C27.18 42.3683 29.33 44.5102 32.2 45.057V47.7366H22.68V49.2131H44.55V47.7366H35.03V45.057ZM30.03 39.7981C30.03 38.0755 31.63 36.681 33.61 36.681C35.59 36.681 37.19 38.0755 37.19 39.7981C37.19 41.5207 35.59 42.9152 33.61 42.9152C31.63 42.9152 30.03 41.5207 30.03 39.7981ZM51.85 50.4254L51.83 44.1H49L49.02 49.1949C49.02 49.1949 49.02 49.2314 49.02 49.2769V49.4957H49.03C49.09 50.2066 49.42 51.9019 51.19 51.8928L63.19 51.8563V50.3798L51.85 50.4162V50.4254ZM84.27 50.3889L72.93 50.4254V48.2653H83.99V46.7887H70.09V46.8434H70.08L70.1 49.5048H70.11C70.17 50.2248 70.5 51.911 72.27 51.911L84.27 51.8745V50.398V50.3889ZM55.15 32.9624H46.23V34.4389H52.32C52.07 38.5039 45.41 41.9582 45.41 41.9582L46.16 42.9425C55.49 39.2968 55.14 32.9533 55.14 32.9533L55.15 32.9624ZM71.75 34.9766C72.67 35.5053 75.58 38.4674 75.33 41.2837H77.75C77.75 41.2837 76.25 35.1316 72.17 32.9259C72.17 32.9259 70.5 32.2423 69.84 33.1538C69.18 34.0652 66.76 41.2017 66.76 41.2017H69.01C69.01 41.2017 70.84 34.4389 71.76 34.9766H71.75Z" fill="#FDFAF3"/>
</svg>
