<svg width="24" height="24" viewBox="0 0 24 24" fill="none" xmlns="http://www.w3.org/2000/svg">
<path d="M14.9704 20.399V19H21.5915C21.6685 19 21.739 18.9679 21.8031 18.9038C21.8672 18.8397 21.8992 18.7692 21.8992 18.6922V5.40863C21.8992 5.3317 21.8672 5.26118 21.8031 5.19708C21.739 5.13296 21.6685 5.1009 21.5915 5.1009H14.9704V3.7019H21.5938C22.0662 3.7019 22.4684 3.86787 22.8003 4.1998C23.1323 4.53174 23.2982 4.93468 23.2982 5.40863V18.6922C23.2982 19.1662 23.1323 19.5691 22.8003 19.9011C22.4684 20.233 22.0662 20.399 21.5938 20.399H14.9704ZM13.756 16.1355L12.7704 15.1442L15.1647 12.7499H6.70215V11.3509H15.1647L12.7704 8.9567L13.756 7.96058L17.8435 12.048L13.756 16.1355Z" fill="#ECE9E4"/>
</svg>
