<svg width="111" height="37" viewBox="0 0 111 37" fill="none" xmlns="http://www.w3.org/2000/svg">
<rect x="0.5" y="0.5" width="110" height="36" stroke="#ECE9E4"/>
<path d="M30.005 12.28C30.47 12.28 32.075 12.625 32.045 12.835C32.015 13.06 31.985 13.345 31.985 13.645V22.06C31.985 24.145 31.82 25.525 31.715 26.14C31.58 26.29 31.28 26.38 31.1 26.335C31.04 25.915 30.995 24.61 30.995 22.435V18.145H29.27C28.745 18.145 28.415 18.28 28.085 18.445C27.71 18.355 27.185 17.785 27.095 17.695C27.035 17.635 27.125 17.44 27.17 17.44C27.71 17.44 28.1 17.485 29.075 17.485H30.995V13.48C30.995 13.315 30.05 12.79 29.69 12.61C29.6 12.565 29.87 12.28 30.005 12.28ZM29.15 20.53C29.285 20.5 29.24 20.98 29.135 21.055C28.835 21.28 25.52 21.985 23.285 21.985C22.91 21.985 22.37 21.55 22.37 20.98V15.61C22.37 15.445 21.86 15.205 21.56 15.1C21.545 15.01 21.68 14.725 21.815 14.725C22.13 14.725 22.895 14.785 23.36 14.935H25.955C26.255 14.935 27.155 14.41 27.26 14.41C27.44 14.41 28.31 15.175 28.31 15.505C28.31 15.58 28.25 15.625 28.13 15.625H23.36V21.19C25.415 21.205 28.565 20.665 29.15 20.53ZM40.4364 14.185C40.3464 14.14 40.6164 13.855 40.7514 13.855C41.2164 13.855 42.3864 14.095 42.3564 14.305C42.3264 14.53 42.3264 14.815 42.3264 14.98V16.015H47.6514V14.11C47.6514 13.93 47.1714 13.69 46.8114 13.51C46.7214 13.465 46.9914 13.18 47.1264 13.18C47.5914 13.18 48.8064 13.42 48.7764 13.63C48.7464 13.855 48.7314 14.14 48.7164 14.425L48.5964 18.49C48.5814 19.24 48.4464 19.765 48.2964 20.38C48.1614 20.53 47.8764 20.545 47.6814 20.485C47.6814 20.335 47.6664 20.11 47.6664 19.84H42.2064C42.1764 20.02 42.1314 20.2 42.1014 20.395C41.9664 20.545 41.6814 20.59 41.4864 20.53C41.4414 20.125 41.3964 19.3 41.3664 18.355L41.2614 14.785C41.2614 14.605 40.7964 14.365 40.4364 14.185ZM47.6514 19.15V16.705H42.3264L42.3114 18.505C42.3114 18.745 42.2964 18.955 42.2814 19.15H47.6514ZM50.5914 22.585C50.7714 22.585 51.6414 23.35 51.6414 23.68C51.6414 23.755 51.5814 23.8 51.4614 23.8H40.8714C40.4964 23.8 40.1514 23.98 39.8364 24.115C39.2364 24.01 38.4864 23.41 38.4264 23.245C38.4114 23.2 38.4864 23.005 38.5464 23.02C38.8314 23.095 39.8514 23.11 40.8264 23.11H44.6964V21.34C44.6964 21.16 44.2164 20.92 43.8564 20.74C43.7664 20.695 44.0364 20.41 44.1714 20.41C44.6364 20.41 45.7314 20.65 45.7164 20.86L45.6264 23.11H49.2864C49.5864 23.11 50.4864 22.585 50.5914 22.585ZM64.2709 12.835C64.2409 13.06 64.2109 13.345 64.2109 13.645V22.06C64.2109 24.145 64.0459 25.525 63.9409 26.14C63.8059 26.29 63.5059 26.38 63.3259 26.335C63.2659 25.915 63.2209 24.61 63.2209 22.435V13.48C63.2209 13.315 62.2759 12.79 61.9159 12.61C61.8259 12.565 62.0959 12.28 62.2309 12.28C62.6959 12.28 64.3009 12.625 64.2709 12.835ZM59.9209 14.785C60.2659 14.8 61.1209 15.04 61.0309 15.25C59.2159 19.645 55.8559 22.72 53.8459 23.815C53.6659 23.71 53.5309 23.56 53.5159 23.365C55.6459 21.835 58.2409 18.97 59.5609 15.775H56.3509C55.9759 15.775 55.6309 15.955 55.3159 16.09C54.7159 15.985 53.9659 15.385 53.9059 15.22C53.8909 15.175 53.9659 14.98 54.0259 14.995C54.3109 15.07 55.3309 15.085 56.3059 15.085H58.9459C59.4859 15.085 59.7409 14.95 59.9209 14.785Z" fill="#ECE9E4"/>
<path d="M89.9867 19L85.4473 14.4605L86.4203 13.4673L91.953 19L86.4203 24.5326L85.4473 23.5394L89.9867 19Z" fill="#ECE9E4"/>
</svg>
