<svg width="24" height="24" viewBox="0 0 24 24" fill="none" xmlns="http://www.w3.org/2000/svg">
<path d="M22.4416 20.4028L16.2442 14.2028C15.7508 14.6157 15.1816 14.9341 14.5368 15.1581C13.8919 15.3822 13.2317 15.4942 12.5561 15.4942C10.8819 15.4942 9.46704 14.9162 8.31148 13.7601C7.15591 12.6041 6.57812 11.1916 6.57812 9.52264C6.57812 7.85369 7.15527 6.44037 8.30955 5.28267C9.46382 4.12498 10.8763 3.54614 12.547 3.54614C14.2177 3.54614 15.6319 4.12471 16.7896 5.28184C17.9473 6.43896 18.5261 7.85279 18.5261 9.52334C18.5261 10.2219 18.4089 10.8948 18.1743 11.5423C17.9396 12.1897 17.6265 12.7503 17.2348 13.2241L23.4348 19.4096L22.4416 20.4028ZM12.5522 14.0952C13.8323 14.0952 14.9148 13.6533 15.7998 12.7696C16.6847 11.8859 17.1272 10.8026 17.1272 9.51959C17.1272 8.23663 16.6847 7.15348 15.7998 6.27014C14.9148 5.38681 13.8315 4.94514 12.5497 4.94514C11.268 4.94514 10.1855 5.387 9.30215 6.27072C8.41882 7.15444 7.97715 8.23777 7.97715 9.52072C7.97715 10.8037 8.41895 11.8868 9.30255 12.7702C10.1862 13.6535 11.2694 14.0952 12.5522 14.0952Z" fill="#ECE9E4"/>
</svg>
