<svg xmlns="http://www.w3.org/2000/svg" height="24" viewBox="0 -960 960 960" width="24"><path d="m777.654-143.886-247.897-248q-29.603 24.77-68.296 38.212-38.692 13.442-79.226 13.442-100.451 0-169.785-69.361-69.334-69.362-69.334-169.5 0-100.137 69.257-169.599 69.256-69.461 169.499-69.461t169.704 69.428q69.461 69.427 69.461 169.66 0 41.911-14.076 80.757-14.077 38.846-37.577 67.274l248 247.418-39.73 39.73ZM382.077-396.192q76.808 0 129.904-53.023 53.096-53.022 53.096-130 0-76.978-53.096-129.978-53.096-53-130-53T252.077-709.17q-53 53.023-53 130 0 76.978 53.016 129.978 53.016 53 129.984 53Z"/></svg>