<svg xmlns="http://www.w3.org/2000/svg" width="88.22" height="88.788" viewBox="0 0 88.22 88.788">
  <g id="smile_icon" transform="translate(0 0.001)">
    <circle id="타원_11" data-name="타원 11" cx="41.298" cy="41.298" r="41.298" transform="translate(0 6.191)" fill="#f7941d"/>
    <g id="그룹_11" data-name="그룹 11" transform="translate(1.425 -0.001)">
      <path id="패스_79" data-name="패스 79" d="M45.288,0A43.394,43.394,0,1,1,1.709,42.869,43.387,43.387,0,0,1,45.288,0ZM85.175,43.4a28.316,28.316,0,1,1-.008-.008Z" transform="translate(-1.706 0.001)" fill="#231f20"/>
      <path id="패스_80" data-name="패스 80" d="M19.365,48.985c.877.15,1.579.284,2.289.4A4.3,4.3,0,0,1,25.682,53.5a25.561,25.561,0,0,0,.468,2.9,11.89,11.89,0,0,0,1.136,2.9,3.056,3.056,0,0,0,4.846.827,13.051,13.051,0,0,0,1.746-1.846c.576-.71,1.053-1.5,1.621-2.214a10.442,10.442,0,0,1,1.462-1.571,3.2,3.2,0,0,1,3.668-.426A12.463,12.463,0,0,1,42.7,55.51c.46.368.819.852,1.253,1.245,1.019.927,1.646.952,2.765.1.418-.317.777-.7,1.161-1.053.242-.226.468-.46.719-.66,1.83-1.47,3.434-1.3,4.9.568.518.668.919,1.429,1.387,2.139.719,1.094,1.37,2.231,2.172,3.258,1.128,1.445,2.256,1.479,3.384.058a15,15,0,0,0,1.679-2.857c.493-.994.8-2.072,1.3-3.066a12.874,12.874,0,0,1,1.521-2.5,3.355,3.355,0,0,1,4.044-1.12c.852.309,1.671.735,2.5,1.128.409.192.8.434,1.2.652,1.788.969,2.6.008,3.1-1.195a11.972,11.972,0,0,0,.46-2.1,12.121,12.121,0,0,1-.978-1.036,1.294,1.294,0,0,1-.075-1.479,1.244,1.244,0,0,1,1.278-.744,23.222,23.222,0,0,1,3.91,1.186,1.343,1.343,0,0,1,.084,2.3,7.23,7.23,0,0,1-1.228.585c-.125.535-.209,1.044-.359,1.537a8.92,8.92,0,0,1-.652,1.638A4.732,4.732,0,0,1,71.575,56.3c-.593-.267-1.145-.627-1.729-.919a5.617,5.617,0,0,0-2.156-.827,2.856,2.856,0,0,0-1.3,1.688c-.426.952-.744,1.955-1.195,2.9a39.559,39.559,0,0,1-1.938,3.618,5.837,5.837,0,0,1-2.481,2.164,4.354,4.354,0,0,1-4.963-.51,10.572,10.572,0,0,1-1.863-2c-.769-1.053-1.429-2.189-2.139-3.283-.284-.434-.576-.844-.819-1.2-.593-.134-.794.259-1.086.493a21.1,21.1,0,0,1-1.972,1.6,4.671,4.671,0,0,1-5.815-.393c-.6-.5-1.111-1.111-1.7-1.629-.376-.334-.81-.6-1.128-.835-.81.217-1.053.794-1.4,1.245-.677.886-1.278,1.83-2.014,2.657A13.4,13.4,0,0,1,33.6,63.188a6.3,6.3,0,0,1-8.739-1.429,12.477,12.477,0,0,1-2.231-5.589c-.175-.961-.309-1.93-.485-3.033-1.479-.869-3.3-.526-4.863-1.262a10.815,10.815,0,0,1-1.094.852,1.434,1.434,0,0,1-1.788-.292,1.406,1.406,0,0,1-.234-1.638,2.592,2.592,0,0,1,.292-.51c.727-1.011,1.454-2.014,2.2-3.008a1.447,1.447,0,0,1,1.729-.568,1.408,1.408,0,0,1,.961,1.345c.025.259,0,.518,0,.919Z" transform="translate(-3.73 -7.669)" fill="#231f20"/>
      <path id="패스_81" data-name="패스 81" d="M39.327,34.5c-.593.677-1.044,1.22-1.537,1.746a4.492,4.492,0,0,1-.869.777,1.53,1.53,0,0,1-1.955-.267,1.42,1.42,0,0,1-.084-1.8A7.577,7.577,0,0,1,35.5,34.2c.334-.4.677-.794,1.011-1.195a2.025,2.025,0,0,0,.2-.351c-.192-.685-.861-.936-1.312-1.379-.326-.317-.719-.576-1.019-.911a1.452,1.452,0,0,1-.125-1.963,1.384,1.384,0,0,1,1.93-.259c.652.426,1.253.936,1.88,1.4.209.15.426.284.627.418.71-.092.936-.71,1.328-1.111.368-.368.668-.81,1.044-1.161a1.454,1.454,0,0,1,2.2,1.9c-.326.485-.727.919-1.086,1.387-.234.3-.443.618-.727,1.011.434.384.827.71,1.2,1.053a12.541,12.541,0,0,1,1.136,1.069,1.491,1.491,0,0,1-2,2.206c-.585-.409-1.12-.9-1.679-1.337a8.773,8.773,0,0,0-.785-.485Z" transform="translate(-7.007 -4.476)" fill="#231f20"/>
      <path id="패스_82" data-name="패스 82" d="M73.008,32.555c.535.643.952,1.145,1.37,1.646a8.679,8.679,0,0,1,.618.752,1.457,1.457,0,0,1-.192,1.955,1.529,1.529,0,0,1-1.821.142,8,8,0,0,1-1.128-1.069c-.409-.418-.794-.852-1.195-1.278-.042-.042-.117-.042-.326-.109-.635.5-1.337,1.078-2.055,1.621a1.6,1.6,0,0,1-1.445.418,1.476,1.476,0,0,1-.852-2.323,7.584,7.584,0,0,1,1.094-1.1c.426-.384.869-.752,1.387-1.195-.485-.627-.911-1.186-1.328-1.746a5.767,5.767,0,0,1-.66-.961,1.46,1.46,0,0,1,.368-1.771,1.53,1.53,0,0,1,1.821.033,8.128,8.128,0,0,1,.936.994c.434.485.861.969,1.353,1.537.468-.309.894-.576,1.312-.869.535-.376,1.028-.8,1.587-1.136a1.35,1.35,0,0,1,1.763.309,1.5,1.5,0,0,1,.033,1.813,5.9,5.9,0,0,1-.835.81c-.535.468-1.078.919-1.8,1.529Z" transform="translate(-12.231 -4.482)" fill="#231f20"/>
    </g>
  </g>
</svg>
