<svg xmlns="http://www.w3.org/2000/svg" xmlns:xlink="http://www.w3.org/1999/xlink" width="58" height="28" viewBox="0 0 58 28">
  <defs>
    <clipPath id="clip-path">
      <rect id="사각형_82" data-name="사각형 82" width="58" height="28" transform="translate(7292 1107)" fill="#fff" opacity="0.5"/>
    </clipPath>
    <clipPath id="clip-path-2">
      <rect id="사각형_33" data-name="사각형 33" width="122" height="28" transform="translate(0 0.18)" fill="none"/>
    </clipPath>
  </defs>
  <g id="마스크_그룹_4" data-name="마스크 그룹 4" transform="translate(-7292 -1107)" clip-path="url(#clip-path)">
    <g id="그룹_21" data-name="그룹 21" transform="translate(7292 1106.819)">
      <g id="그룹_19" data-name="그룹 19" transform="translate(0 0)" clip-path="url(#clip-path-2)">
        <path id="패스_113" data-name="패스 113" d="M28.782,19.713a9.268,9.268,0,0,1,4.191-7.755V7.569a3.854,3.854,0,0,0-3.854-3.855H23.056A3.854,3.854,0,0,0,19.2,7.569V17.3l4.475,9.031A1.844,1.844,0,0,1,22.2,28.981a3.809,3.809,0,0,0,.857.1h6.062a3.838,3.838,0,0,0,3.349-1.98,9.256,9.256,0,0,1-3.685-7.391" transform="translate(-4.671 -0.904)" fill="#a4bc49"/>
        <path id="패스_114" data-name="패스 114" d="M14.531,27.144V19.213l-3.27-6.6a1.853,1.853,0,0,0-3.321,0L.2,28.244a1.853,1.853,0,0,0,1.66,2.676h15.49a1.807,1.807,0,0,0,.183-.024,3.85,3.85,0,0,1-3-3.751" transform="translate(0 -2.818)" fill="#35763c"/>
        <path id="패스_115" data-name="패스 115" d="M23.677,30.7,19.2,21.666V29.6a3.85,3.85,0,0,0,3,3.751A1.843,1.843,0,0,0,23.677,30.7" transform="translate(-4.671 -5.271)" fill="#205b2d"/>
        <path id="패스_116" data-name="패스 116" d="M59.391,1.167a1.853,1.853,0,0,0-3.443,0l-4.46,11.191A9.266,9.266,0,0,1,47,27.822a1.827,1.827,0,0,0,.948.267H67.388a1.853,1.853,0,0,0,1.722-2.539Z" transform="translate(-11.434 0)" fill="#648943"/>
        <path id="패스_117" data-name="패스 117" d="M43.731,28.614,48.99,15.422a9.259,9.259,0,0,0-11.752-1.3V27.39a3.813,3.813,0,0,1-.506,1.874A9.165,9.165,0,0,0,44.5,30.886a1.848,1.848,0,0,1-.773-2.272" transform="translate(-8.935 -3.064)" fill="#68ac45"/>
        <path id="패스_118" data-name="패스 118" d="M36.053,14.607a9.264,9.264,0,0,0-.506,15.147,3.813,3.813,0,0,0,.506-1.874Z" transform="translate(-7.751 -3.554)" fill="#458c39"/>
        <path id="패스_119" data-name="패스 119" d="M53.814,22.783A9.242,9.242,0,0,0,51.2,16.331L45.938,29.523a1.848,1.848,0,0,0,.773,2.272,9.276,9.276,0,0,0,7.1-9.012" transform="translate(-11.143 -3.973)" fill="#35763c"/>
        <path id="패스_120" data-name="패스 120" d="M84.478,10.23c.007-.017.011-.033.017-.051A5.668,5.668,0,0,0,85.715,12a5.472,5.472,0,0,0,1.951,1.255l.727-1.064a5.242,5.242,0,0,1-1.716-1.047,4.884,4.884,0,0,1-1.126-1.512,4.083,4.083,0,0,1-.4-1.716V5.769h-1.33V7.915a4.537,4.537,0,0,1-.412,1.8,5.677,5.677,0,0,1-1.166,1.69,5.511,5.511,0,0,1-1.774,1.21l.763,1.082a5.779,5.779,0,0,0,1.96-1.405,6.577,6.577,0,0,0,1.29-2.062" transform="translate(-19.574 -1.404)" fill="#00381f"/>
        <path id="패스_121" data-name="패스 121" d="M84.887,19.112a2.055,2.055,0,0,0-.625,1.525,2,2,0,0,0,.625,1.5,4.175,4.175,0,0,0,1.831.962,12,12,0,0,0,5.645,0,4.284,4.284,0,0,0,1.84-.962,2.014,2.014,0,0,0,.648-1.5,2.065,2.065,0,0,0-.648-1.525,4.124,4.124,0,0,0-1.84-.967,12.319,12.319,0,0,0-5.645,0,4.022,4.022,0,0,0-1.831.967m4.66-.231a8.982,8.982,0,0,1,2.075.213,3.338,3.338,0,0,1,1.361.608,1.213,1.213,0,0,1,.484.935,1.192,1.192,0,0,1-.484.922,3.288,3.288,0,0,1-1.361.594,10.685,10.685,0,0,1-4.159,0,3.281,3.281,0,0,1-1.352-.594,1.137,1.137,0,0,1-.465-.922,1.157,1.157,0,0,1,.465-.935,3.332,3.332,0,0,1,1.352-.608,8.964,8.964,0,0,1,2.084-.213" transform="translate(-20.497 -4.335)" fill="#00381f"/>
        <path id="패스_122" data-name="패스 122" d="M93.191,9.872h2.093v4.345h1.33V4.481h-1.33V8.72H93.191V4.782H91.879v8.939h1.312Z" transform="translate(-22.351 -1.09)" fill="#00381f"/>
        <path id="패스_123" data-name="패스 123" d="M109.4,11.32h3.689V13.8h1.4V4.457h-1.4V7.029H109.4V5.663h-7.237v7.006H109.4Zm3.689-1.17H109.4V8.181h3.689Zm-5.055,1.383h-4.487V6.8h4.487Z" transform="translate(-24.853 -1.084)" fill="#00381f"/>
        <path id="패스_124" data-name="패스 124" d="M112.663,17.764a11.689,11.689,0,0,0-5.645,0,3.994,3.994,0,0,0-1.822,1.019,2.267,2.267,0,0,0-.639,1.614,2.21,2.21,0,0,0,.639,1.592A4.066,4.066,0,0,0,107.019,23a11.689,11.689,0,0,0,5.645,0,4.063,4.063,0,0,0,1.827-1.006,2.206,2.206,0,0,0,.639-1.592,2.264,2.264,0,0,0-.639-1.614,3.991,3.991,0,0,0-1.827-1.019m.612,3.618a3.2,3.2,0,0,1-1.352.639,9.884,9.884,0,0,1-4.164,0,3.19,3.19,0,0,1-1.348-.639,1.277,1.277,0,0,1-.47-.984,1.321,1.321,0,0,1,.47-1.011,3.15,3.15,0,0,1,1.348-.652,9.346,9.346,0,0,1,4.168,0,3.155,3.155,0,0,1,1.348.652,1.321,1.321,0,0,1,.47,1.011,1.277,1.277,0,0,1-.47.984" transform="translate(-25.435 -4.238)" fill="#00381f"/>
        <rect id="사각형_31" data-name="사각형 31" width="1.383" height="15.802" transform="translate(103.813 3.373)" fill="#00381f"/>
        <path id="패스_125" data-name="패스 125" d="M125.174,12.924a5.364,5.364,0,0,0,4.394,0,3.637,3.637,0,0,0,1.507-1.312,3.487,3.487,0,0,0,.541-1.924,3.487,3.487,0,0,0-.541-1.924,3.637,3.637,0,0,0-1.507-1.312,5.372,5.372,0,0,0-4.394,0,3.632,3.632,0,0,0-1.512,1.312,3.481,3.481,0,0,0-.541,1.924,3.481,3.481,0,0,0,.541,1.924,3.632,3.632,0,0,0,1.512,1.312M124.859,8.4a2.44,2.44,0,0,1,1.028-.882,3.722,3.722,0,0,1,2.976,0,2.38,2.38,0,0,1,1.025.882,2.355,2.355,0,0,1,.363,1.29,2.3,2.3,0,0,1-.363,1.286,2.475,2.475,0,0,1-1.025.878,3.625,3.625,0,0,1-2.976,0,2.539,2.539,0,0,1-1.028-.878,2.263,2.263,0,0,1-.372-1.286,2.313,2.313,0,0,1,.372-1.29" transform="translate(-29.95 -1.455)" fill="#00381f"/>
        <path id="패스_126" data-name="패스 126" d="M132.56,19.5l-.107-1.028a44.634,44.634,0,0,1-4.886.443q-2.571.1-5.524.089l.194,1.188q1.925,0,3.49-.045t3.365-.19a34.1,34.1,0,0,0,3.467-.457" transform="translate(-29.688 -4.495)" fill="#00381f"/>
        <path id="패스_127" data-name="패스 127" d="M147.369,9.625a7,7,0,0,0,2.346-1.809,4.326,4.326,0,0,0,.412-.6,4.335,4.335,0,0,0,.4.583,7.086,7.086,0,0,0,2.345,1.818,10.263,10.263,0,0,0,3.091.975l.515-1.1a9.236,9.236,0,0,1-2.7-.794,6.8,6.8,0,0,1-2.12-1.476,2.631,2.631,0,0,1-.816-1.809V4.668H149.4v.745a2.658,2.658,0,0,1-.807,1.831,6.6,6.6,0,0,1-2.12,1.463,9.542,9.542,0,0,1-2.731.785l.532,1.1a10.414,10.414,0,0,0,3.091-.966" transform="translate(-34.968 -1.136)" fill="#00381f"/>
        <path id="패스_128" data-name="패스 128" d="M142.668,14.113v1.135h6.491v1.809h-4.877v1.135h2.43v3H144.14v1.135h11.44V21.19h-2.554v-3h2.429V17.057h-4.93V15.248h6.509V14.113Zm8.992,7.077H148.1v-3h3.565Z" transform="translate(-34.705 -3.434)" fill="#00381f"/>
        <path id="패스_129" data-name="패스 129" d="M81.859,34.638h1.089v-2h2.146v-.822H82.948v-1.17h2.375v-.825H81.859Z" transform="translate(-19.913 -7.256)" fill="#00381f"/>
        <path id="패스_130" data-name="패스 130" d="M90.969,30.027a2.87,2.87,0,0,0-2.523,0,2.125,2.125,0,0,0-.876.853,2.929,2.929,0,0,0,0,2.654,2.136,2.136,0,0,0,.876.855,2.85,2.85,0,0,0,2.523,0,2.138,2.138,0,0,0,.875-.853,2.933,2.933,0,0,0,0-2.656,2.124,2.124,0,0,0-.875-.853m-.076,3.041a1.22,1.22,0,0,1-.47.54,1.369,1.369,0,0,1-.715.19,1.355,1.355,0,0,1-.711-.19,1.247,1.247,0,0,1-.471-.54,2.276,2.276,0,0,1,0-1.724A1.23,1.23,0,0,1,89,30.8a1.338,1.338,0,0,1,.711-.185,1.353,1.353,0,0,1,.715.185,1.2,1.2,0,0,1,.47.54,2.324,2.324,0,0,1,0,1.724" transform="translate(-21.225 -7.235)" fill="#00381f"/>
        <path id="패스_131" data-name="패스 131" d="M97.848,32.744a1.416,1.416,0,0,0,.655-.53,1.483,1.483,0,0,0,.223-.821,1.543,1.543,0,0,0-.222-.832,1.435,1.435,0,0,0-.646-.547,2.472,2.472,0,0,0-1.017-.191H94.786v4.815h1.089V32.929h.831l1,1.709h1.213L97.793,32.76c.017-.007.039-.009.055-.016m-1.973-2.1h.767a1.5,1.5,0,0,1,.535.083.628.628,0,0,1,.322.253.771.771,0,0,1,.105.412.711.711,0,0,1-.105.4.639.639,0,0,1-.319.239,1.492,1.492,0,0,1-.534.082h-.77Z" transform="translate(-23.058 -7.256)" fill="#00381f"/>
        <path id="패스_132" data-name="패스 132" d="M102.083,32.639h2.254v-.821h-2.254V30.648h2.44v-.825h-3.529v4.815h3.536v-.825h-2.447Z" transform="translate(-24.568 -7.256)" fill="#00381f"/>
        <path id="패스_133" data-name="패스 133" d="M109.111,31.829l-.472-.1a1.964,1.964,0,0,1-.621-.222.412.412,0,0,1-.218-.384.44.44,0,0,1,.1-.285.661.661,0,0,1,.294-.194,1.361,1.361,0,0,1,.461-.07,1.414,1.414,0,0,1,.467.07.687.687,0,0,1,.31.207.591.591,0,0,1,.131.329h1.049a1.251,1.251,0,0,0-.247-.751,1.563,1.563,0,0,0-.684-.511,2.665,2.665,0,0,0-1.015-.182,2.756,2.756,0,0,0-1.025.18,1.611,1.611,0,0,0-.707.512,1.218,1.218,0,0,0-.254.761,1.043,1.043,0,0,0,.366.836,2.422,2.422,0,0,0,1.061.477l.577.126a3.6,3.6,0,0,1,.5.146.763.763,0,0,1,.3.19.391.391,0,0,1,.1.272.473.473,0,0,1-.117.316.756.756,0,0,1-.331.213,1.479,1.479,0,0,1-.5.076,1.545,1.545,0,0,1-.524-.082.81.81,0,0,1-.362-.246.7.7,0,0,1-.152-.4h-1.059a1.489,1.489,0,0,0,.277.86,1.588,1.588,0,0,0,.726.532,3.012,3.012,0,0,0,1.106.179,3.093,3.093,0,0,0,1.094-.175,1.5,1.5,0,0,0,.7-.5,1.247,1.247,0,0,0,.241-.764,1.123,1.123,0,0,0-.415-.918,2.7,2.7,0,0,0-1.16-.5" transform="translate(-25.917 -7.234)" fill="#00381f"/>
        <path id="패스_134" data-name="패스 134" d="M112.686,30.647H114.3v3.99h1.078v-3.99h1.611v-.825h-4.306Z" transform="translate(-27.412 -7.256)" fill="#00381f"/>
        <path id="패스_135" data-name="패스 135" d="M121.552,34.638h1.089v-2h2.146v-.822h-2.146v-1.17h2.375v-.825h-3.464Z" transform="translate(-29.569 -7.256)" fill="#00381f"/>
        <path id="패스_136" data-name="패스 136" d="M130.661,30.027a2.87,2.87,0,0,0-2.523,0,2.125,2.125,0,0,0-.876.853,2.929,2.929,0,0,0,0,2.654,2.136,2.136,0,0,0,.876.855,2.85,2.85,0,0,0,2.523,0,2.138,2.138,0,0,0,.875-.853,2.933,2.933,0,0,0,0-2.656,2.124,2.124,0,0,0-.875-.853m-.076,3.041a1.22,1.22,0,0,1-.47.54,1.369,1.369,0,0,1-.715.19,1.355,1.355,0,0,1-.711-.19,1.247,1.247,0,0,1-.471-.54,2.276,2.276,0,0,1,0-1.724,1.23,1.23,0,0,1,.471-.54,1.338,1.338,0,0,1,.711-.185,1.353,1.353,0,0,1,.715.185,1.2,1.2,0,0,1,.47.54,2.324,2.324,0,0,1,0,1.724" transform="translate(-30.881 -7.235)" fill="#00381f"/>
        <path id="패스_137" data-name="패스 137" d="M137.539,32.744a1.416,1.416,0,0,0,.655-.53,1.483,1.483,0,0,0,.223-.821,1.543,1.543,0,0,0-.222-.832,1.435,1.435,0,0,0-.646-.547,2.472,2.472,0,0,0-1.017-.191h-2.055v4.815h1.089V32.929h.831l1,1.709h1.213l-1.122-1.878c.017-.007.039-.009.055-.016m-1.973-2.1h.767a1.5,1.5,0,0,1,.535.083.628.628,0,0,1,.322.253.771.771,0,0,1,.105.412.711.711,0,0,1-.105.4.639.639,0,0,1-.319.239,1.492,1.492,0,0,1-.533.082h-.77Z" transform="translate(-32.713 -7.256)" fill="#00381f"/>
        <path id="패스_138" data-name="패스 138" d="M144.045,29.822h-1.089v4.815h3.351v-.825h-2.262Z" transform="translate(-34.775 -7.256)" fill="#00381f"/>
        <rect id="사각형_32" data-name="사각형 32" width="1.089" height="4.815" transform="translate(112.238 22.567)" fill="#00381f"/>
        <path id="패스_139" data-name="패스 139" d="M150.934,34.638h1.089v-2h2.146v-.822h-2.146v-1.17H154.4v-.825h-3.464Z" transform="translate(-36.716 -7.256)" fill="#00381f"/>
        <path id="패스_140" data-name="패스 140" d="M157.55,32.639H159.8v-.821H157.55V30.648h2.44v-.825h-3.529v4.815H160v-.825H157.55Z" transform="translate(-38.061 -7.256)" fill="#00381f"/>
      </g>
    </g>
  </g>
</svg>
