<svg xmlns="http://www.w3.org/2000/svg" xmlns:xlink="http://www.w3.org/1999/xlink" width="191" height="44" viewBox="0 0 191 44">
  <defs>
    <clipPath id="clip-path">
      <rect id="사각형_7" data-name="사각형 7" width="191" height="44" fill="none"/>
    </clipPath>
  </defs>
  <g id="그룹_4" data-name="그룹 4" transform="translate(0 0)">
    <g id="그룹_3" data-name="그룹 3" transform="translate(0 0)" clip-path="url(#clip-path)">
      <path id="패스_29" data-name="패스 29" d="M34.159,28.694A14.471,14.471,0,0,1,40.7,16.585V9.733a6.018,6.018,0,0,0-6.018-6.019H25.22A6.018,6.018,0,0,0,19.2,9.733V24.924l6.987,14.1a2.879,2.879,0,0,1-2.306,4.14,5.946,5.946,0,0,0,1.338.162h9.465a5.992,5.992,0,0,0,5.228-3.092,14.452,14.452,0,0,1-5.754-11.541" transform="translate(3.486 0.674)" fill="#a4bc49"/>
      <path id="패스_30" data-name="패스 30" d="M22.688,35.881V23.5l-5.105-10.3a2.894,2.894,0,0,0-5.186,0L.3,37.6A2.893,2.893,0,0,0,2.9,41.775H27.082a2.822,2.822,0,0,0,.286-.038,6.011,6.011,0,0,1-4.68-5.857" transform="translate(0 2.102)" fill="#35763c"/>
      <path id="패스_31" data-name="패스 31" d="M26.189,35.767,19.2,21.666V34.05a6.011,6.011,0,0,0,4.68,5.857,2.878,2.878,0,0,0,2.306-4.14" transform="translate(3.486 3.932)" fill="#205b2d"/>
      <path id="패스_32" data-name="패스 32" d="M66.345,1.822a2.894,2.894,0,0,0-5.376,0L54.005,19.295A14.467,14.467,0,0,1,47,43.44a2.852,2.852,0,0,0,1.48.417H78.832a2.893,2.893,0,0,0,2.688-3.964Z" transform="translate(8.533 0)" fill="#648943"/>
      <path id="패스_33" data-name="패스 33" d="M47.66,37.608l8.211-20.6a14.457,14.457,0,0,0-18.349-2.036V35.7a5.954,5.954,0,0,1-.789,2.927,14.311,14.311,0,0,0,12.136,2.531,2.885,2.885,0,0,1-1.208-3.547" transform="translate(6.669 2.285)" fill="#68ac45"/>
      <path id="패스_34" data-name="패스 34" d="M38.405,14.607a14.464,14.464,0,0,0-.789,23.65,5.954,5.954,0,0,0,.789-2.927Z" transform="translate(5.785 2.651)" fill="#458c39"/>
      <path id="패스_35" data-name="패스 35" d="M58.31,26.4a14.43,14.43,0,0,0-4.087-10.073l-8.211,20.6a2.885,2.885,0,0,0,1.208,3.547A14.483,14.483,0,0,0,58.31,26.4" transform="translate(8.316 2.964)" fill="#35763c"/>
      <path id="패스_36" data-name="패스 36" d="M93.928,12.9H97.2v6.784h2.076V4.481H97.2V11.1H93.928V4.951H91.879V18.908h2.049Z" transform="translate(16.681 0.813)" fill="#fff"/>
      <path id="패스_37" data-name="패스 37" d="M85.238,19.839a3.208,3.208,0,0,0-.976,2.381,3.128,3.128,0,0,0,.976,2.348,6.518,6.518,0,0,0,2.859,1.5,16.4,16.4,0,0,0,4.417.526,16.274,16.274,0,0,0,4.4-.526,6.69,6.69,0,0,0,2.872-1.5,3.145,3.145,0,0,0,1.011-2.348,3.224,3.224,0,0,0-1.011-2.381,6.439,6.439,0,0,0-2.872-1.51,19.234,19.234,0,0,0-8.813,0,6.28,6.28,0,0,0-2.859,1.51m7.276-.36a14.024,14.024,0,0,1,3.24.332,5.211,5.211,0,0,1,2.126.949,1.894,1.894,0,0,1,.755,1.46,1.862,1.862,0,0,1-.755,1.44,5.133,5.133,0,0,1-2.126.927,16.683,16.683,0,0,1-6.494,0,5.122,5.122,0,0,1-2.111-.927,1.775,1.775,0,0,1-.727-1.44,1.807,1.807,0,0,1,.727-1.46,5.2,5.2,0,0,1,2.111-.949,14,14,0,0,1,3.254-.332" transform="translate(15.298 3.233)" fill="#fff"/>
      <path id="패스_38" data-name="패스 38" d="M84.716,15.953a10.247,10.247,0,0,0,2.015-3.22c.011-.026.017-.052.027-.078a8.844,8.844,0,0,0,1.9,2.84,8.529,8.529,0,0,0,3.046,1.959l1.135-1.661a8.184,8.184,0,0,1-2.68-1.634A7.6,7.6,0,0,1,88.406,11.8a6.374,6.374,0,0,1-.63-2.678V5.77H85.7V9.121a7.094,7.094,0,0,1-.644,2.811,8.858,8.858,0,0,1-1.821,2.637,8.608,8.608,0,0,1-2.77,1.89l1.191,1.688a8.981,8.981,0,0,0,3.06-2.194" transform="translate(14.608 1.047)" fill="#fff"/>
      <path id="패스_39" data-name="패스 39" d="M113.467,15.173h5.76v3.878h2.187V4.457h-2.187V8.473h-5.76V6.34h-11.3V17.279h11.3Zm5.76-1.827h-5.76V10.272h5.76Zm-7.893,2.16h-7.007V8.113h7.007Z" transform="translate(18.549 0.809)" fill="#fff"/>
      <path id="패스_40" data-name="패스 40" d="M117.214,17.958a18.252,18.252,0,0,0-8.813,0,6.236,6.236,0,0,0-2.845,1.591,3.539,3.539,0,0,0-1,2.52,3.45,3.45,0,0,0,1,2.486,6.349,6.349,0,0,0,2.845,1.571,18.251,18.251,0,0,0,8.813,0,6.344,6.344,0,0,0,2.852-1.571,3.445,3.445,0,0,0,1-2.486,3.534,3.534,0,0,0-1-2.52,6.232,6.232,0,0,0-2.852-1.591m.956,5.649a4.991,4.991,0,0,1-2.111,1,15.433,15.433,0,0,1-6.5,0,4.98,4.98,0,0,1-2.1-1,1.993,1.993,0,0,1-.734-1.537,2.063,2.063,0,0,1,.734-1.578,4.919,4.919,0,0,1,2.1-1.017,14.592,14.592,0,0,1,6.508,0,4.926,4.926,0,0,1,2.1,1.017,2.063,2.063,0,0,1,.734,1.578,1.993,1.993,0,0,1-.734,1.537" transform="translate(18.983 3.161)" fill="#fff"/>
      <path id="패스_41" data-name="패스 41" d="M127.8,21.09q2.444-.069,5.254-.3a53.209,53.209,0,0,0,5.414-.712l-.165-1.607a69.426,69.426,0,0,1-7.629.692q-4.016.152-8.627.138l.3,1.856q3,0,5.448-.07" transform="translate(22.157 3.352)" fill="#fff"/>
      <path id="패스_42" data-name="패스 42" d="M126.327,16.821a8.375,8.375,0,0,0,6.861,0,5.68,5.68,0,0,0,2.354-2.049,5.445,5.445,0,0,0,.845-3,5.445,5.445,0,0,0-.845-3,5.68,5.68,0,0,0-2.354-2.049,8.387,8.387,0,0,0-6.861,0,5.671,5.671,0,0,0-2.361,2.049,5.435,5.435,0,0,0-.845,3,5.435,5.435,0,0,0,.845,3,5.671,5.671,0,0,0,2.361,2.049m-.492-7.068a3.809,3.809,0,0,1,1.606-1.378,5.812,5.812,0,0,1,4.646,0,3.716,3.716,0,0,1,1.6,1.378,3.678,3.678,0,0,1,.567,2.014,3.6,3.6,0,0,1-.567,2.007,3.864,3.864,0,0,1-1.6,1.371,5.661,5.661,0,0,1-4.646,0,3.965,3.965,0,0,1-1.606-1.371,3.534,3.534,0,0,1-.581-2.007,3.611,3.611,0,0,1,.581-2.014" transform="translate(22.353 1.085)" fill="#fff"/>
      <rect id="사각형_5" data-name="사각형 5" width="2.16" height="24.673" transform="translate(162.09 5.266)" fill="#fff"/>
      <path id="패스_43" data-name="패스 43" d="M142.668,14.113v1.772H152.8V18.71h-7.615v1.772h3.794v4.68h-4.016v1.772h17.863V25.162h-3.988v-4.68h3.793V18.71h-7.7V15.885H165.1V14.113Zm14.04,11.049h-5.566v-4.68h5.566Z" transform="translate(25.901 2.561)" fill="#fff"/>
      <path id="패스_44" data-name="패스 44" d="M149.4,12.408a10.933,10.933,0,0,0,3.663-2.825,6.753,6.753,0,0,0,.643-.938,6.773,6.773,0,0,0,.631.911A11.064,11.064,0,0,0,158,12.394a16.024,16.024,0,0,0,4.825,1.523l.8-1.717a14.42,14.42,0,0,1-4.223-1.239,10.614,10.614,0,0,1-3.31-2.305,4.107,4.107,0,0,1-1.274-2.824V4.668h-2.244V5.832a4.151,4.151,0,0,1-1.26,2.859,10.3,10.3,0,0,1-3.31,2.284,14.9,14.9,0,0,1-4.264,1.225l.831,1.717a16.26,16.26,0,0,0,4.825-1.509" transform="translate(26.097 0.847)" fill="#fff"/>
      <path id="패스_45" data-name="패스 45" d="M87.268,31.11V29.822H81.86V37.34h1.7V34.22h3.351V32.938H83.56V31.11Z" transform="translate(14.862 5.412)" fill="#fff"/>
      <path id="패스_46" data-name="패스 46" d="M93.056,30.191a4.481,4.481,0,0,0-3.939,0,3.319,3.319,0,0,0-1.367,1.332,4.573,4.573,0,0,0,0,4.144A3.335,3.335,0,0,0,89.116,37a4.45,4.45,0,0,0,3.939,0,3.338,3.338,0,0,0,1.366-1.332,4.58,4.58,0,0,0,0-4.147,3.316,3.316,0,0,0-1.366-1.332m-.119,4.748a1.9,1.9,0,0,1-.734.844,2.138,2.138,0,0,1-1.117.3,2.115,2.115,0,0,1-1.109-.3,1.947,1.947,0,0,1-.736-.844,3.554,3.554,0,0,1,0-2.691,1.92,1.92,0,0,1,.736-.844,2.09,2.09,0,0,1,1.109-.288A2.112,2.112,0,0,1,92.2,31.4a1.88,1.88,0,0,1,.734.844,3.629,3.629,0,0,1,0,2.691" transform="translate(15.841 5.396)" fill="#fff"/>
      <path id="패스_47" data-name="패스 47" d="M99.567,34.384a2.211,2.211,0,0,0,1.022-.828,2.315,2.315,0,0,0,.349-1.282,2.41,2.41,0,0,0-.346-1.3,2.24,2.24,0,0,0-1.009-.854,3.86,3.86,0,0,0-1.588-.3H94.786v7.518h1.7V34.672h1.3l1.554,2.669h1.894L99.48,34.408c.027-.011.06-.014.086-.025M96.486,31.1h1.2a2.345,2.345,0,0,1,.835.13.98.98,0,0,1,.5.395,1.2,1.2,0,0,1,.164.644,1.11,1.11,0,0,1-.164.625,1,1,0,0,1-.5.373,2.33,2.33,0,0,1-.833.128h-1.2Z" transform="translate(17.208 5.412)" fill="#fff"/>
      <path id="패스_48" data-name="패스 48" d="M106.516,36.053h-3.821V34.22h3.52V32.937h-3.52V31.11H106.5V29.823h-5.511v7.518h5.523Z" transform="translate(18.335 5.412)" fill="#fff"/>
      <path id="패스_49" data-name="패스 49" d="M110.593,36.028a2.31,2.31,0,0,1-.776.119,2.424,2.424,0,0,1-.82-.128,1.258,1.258,0,0,1-.564-.384,1.088,1.088,0,0,1-.237-.625H106.54a2.331,2.331,0,0,0,.434,1.341,2.486,2.486,0,0,0,1.133.832,4.712,4.712,0,0,0,1.726.278,4.81,4.81,0,0,0,1.71-.273,2.346,2.346,0,0,0,1.093-.781,1.95,1.95,0,0,0,.378-1.194,1.753,1.753,0,0,0-.649-1.433,4.208,4.208,0,0,0-1.811-.774l-.737-.161a3.087,3.087,0,0,1-.97-.345.649.649,0,0,1-.34-.6.678.678,0,0,1,.16-.443,1.022,1.022,0,0,1,.46-.3,2.1,2.1,0,0,1,.72-.11,2.164,2.164,0,0,1,.728.11,1.068,1.068,0,0,1,.486.321.914.914,0,0,1,.2.514H112.9a1.953,1.953,0,0,0-.385-1.173,2.456,2.456,0,0,0-1.068-.8,4.161,4.161,0,0,0-1.584-.282,4.314,4.314,0,0,0-1.6.28,2.511,2.511,0,0,0-1.1.8,1.9,1.9,0,0,0-.4,1.189,1.629,1.629,0,0,0,.572,1.306,3.776,3.776,0,0,0,1.657.746l.9.2a5.713,5.713,0,0,1,.78.228,1.211,1.211,0,0,1,.462.3.614.614,0,0,1,.16.425.742.742,0,0,1-.182.494,1.176,1.176,0,0,1-.516.332" transform="translate(19.342 5.396)" fill="#fff"/>
      <path id="패스_50" data-name="패스 50" d="M116.893,37.341v-6.23h2.517V29.823h-6.724v1.288h2.524v6.23Z" transform="translate(20.458 5.412)" fill="#fff"/>
      <path id="패스_51" data-name="패스 51" d="M123.253,34.22H126.6V32.938h-3.351V31.111h3.708V29.823h-5.408v7.518h1.7Z" transform="translate(22.068 5.412)" fill="#fff"/>
      <path id="패스_52" data-name="패스 52" d="M128.808,37a4.45,4.45,0,0,0,3.939,0,3.337,3.337,0,0,0,1.366-1.332,4.577,4.577,0,0,0,0-4.146,3.323,3.323,0,0,0-1.366-1.332,4.471,4.471,0,0,0-3.939,0,3.319,3.319,0,0,0-1.367,1.332,4.573,4.573,0,0,0,0,4.143A3.324,3.324,0,0,0,128.808,37m.124-4.753a1.912,1.912,0,0,1,.736-.844,2.09,2.09,0,0,1,1.109-.288,2.112,2.112,0,0,1,1.117.288,1.886,1.886,0,0,1,.734.844,3.2,3.2,0,0,1,.259,1.35,3.16,3.16,0,0,1-.259,1.341,1.9,1.9,0,0,1-.734.845,2.137,2.137,0,0,1-1.117.3,2.115,2.115,0,0,1-1.109-.3,1.928,1.928,0,0,1-.736-.845,3.087,3.087,0,0,1-.265-1.341,3.124,3.124,0,0,1,.265-1.35" transform="translate(23.047 5.396)" fill="#fff"/>
      <path id="패스_53" data-name="패스 53" d="M139.258,34.384a2.211,2.211,0,0,0,1.022-.828,2.315,2.315,0,0,0,.349-1.282,2.41,2.41,0,0,0-.346-1.3,2.24,2.24,0,0,0-1.009-.854,3.86,3.86,0,0,0-1.588-.3h-3.208v7.518h1.7V34.672h1.3l1.554,2.669h1.894l-1.751-2.932c.027-.011.06-.014.086-.025m-3.08-3.279h1.2a2.345,2.345,0,0,1,.835.13.98.98,0,0,1,.5.395,1.2,1.2,0,0,1,.164.644,1.11,1.11,0,0,1-.164.625,1,1,0,0,1-.5.373,2.33,2.33,0,0,1-.833.128h-1.2Z" transform="translate(24.414 5.412)" fill="#fff"/>
      <path id="패스_54" data-name="패스 54" d="M142.955,29.822V37.34h5.233V36.053h-3.533v-6.23Z" transform="translate(25.954 5.412)" fill="#fff"/>
      <rect id="사각형_6" data-name="사각형 6" width="1.7" height="7.518" transform="translate(175.245 35.236)" fill="#fff"/>
      <path id="패스_55" data-name="패스 55" d="M156.342,31.11V29.822h-5.408V37.34h1.7V34.22h3.351V32.938h-3.351V31.11Z" transform="translate(27.402 5.412)" fill="#fff"/>
      <path id="패스_56" data-name="패스 56" d="M161.972,31.11V29.822h-5.511V37.34h5.523V36.053h-3.822V34.22h3.521V32.938h-3.521V31.11Z" transform="translate(28.406 5.412)" fill="#fff"/>
    </g>
  </g>
</svg>
