<svg xmlns="http://www.w3.org/2000/svg" xmlns:xlink="http://www.w3.org/1999/xlink" width="191" height="44" viewBox="0 0 191 44">
  <defs>
    <clipPath id="clip-path">
      <rect id="사각형_53" data-name="사각형 53" width="191" height="44" fill="none"/>
    </clipPath>
  </defs>
  <g id="그룹_55" data-name="그룹 55" transform="translate(0 0)">
    <g id="그룹_54" data-name="그룹 54" transform="translate(0 0)" clip-path="url(#clip-path)">
      <path id="패스_169" data-name="패스 169" d="M34.159,28.694A14.471,14.471,0,0,1,40.7,16.585V9.733a6.018,6.018,0,0,0-6.018-6.019H25.22A6.018,6.018,0,0,0,19.2,9.733V24.924l6.986,14.1a2.879,2.879,0,0,1-2.306,4.14,5.946,5.946,0,0,0,1.338.162h9.465a5.992,5.992,0,0,0,5.228-3.092,14.452,14.452,0,0,1-5.754-11.541" transform="translate(3.486 0.674)" fill="#fff"/>
      <path id="패스_170" data-name="패스 170" d="M22.688,35.881V23.5l-5.105-10.3a2.894,2.894,0,0,0-5.186,0L.3,37.6A2.893,2.893,0,0,0,2.9,41.775H27.082a2.819,2.819,0,0,0,.286-.038,6.011,6.011,0,0,1-4.68-5.857" transform="translate(0 2.102)" fill="#fff"/>
      <path id="패스_171" data-name="패스 171" d="M66.345,1.822a2.894,2.894,0,0,0-5.376,0L54.005,19.295A14.467,14.467,0,0,1,47,43.44a2.852,2.852,0,0,0,1.48.417H78.832a2.893,2.893,0,0,0,2.688-3.964Z" transform="translate(8.533 0)" fill="#fff"/>
      <path id="패스_172" data-name="패스 172" d="M47.66,37.608l8.211-20.6a14.457,14.457,0,0,0-18.349-2.036V35.7a5.954,5.954,0,0,1-.789,2.927,14.31,14.31,0,0,0,12.136,2.531,2.885,2.885,0,0,1-1.208-3.547" transform="translate(6.669 2.285)" fill="#fff"/>
      <path id="패스_173" data-name="패스 173" d="M84.716,15.953a10.248,10.248,0,0,0,2.014-3.22c.011-.026.017-.052.027-.078a8.844,8.844,0,0,0,1.9,2.84,8.528,8.528,0,0,0,3.046,1.959l1.135-1.661a8.185,8.185,0,0,1-2.68-1.634A7.6,7.6,0,0,1,88.406,11.8a6.374,6.374,0,0,1-.63-2.678V5.77H85.7V9.121a7.094,7.094,0,0,1-.644,2.811,8.859,8.859,0,0,1-1.821,2.637,8.608,8.608,0,0,1-2.77,1.89l1.191,1.688a8.981,8.981,0,0,0,3.06-2.194" transform="translate(14.609 1.047)" fill="#fff"/>
      <path id="패스_174" data-name="패스 174" d="M97.2,11.1H93.928V4.952H91.879V18.908h2.049V12.9H97.2v6.785h2.077V4.48H97.2Z" transform="translate(16.681 0.813)" fill="#fff"/>
      <path id="패스_175" data-name="패스 175" d="M99.783,24.567a3.144,3.144,0,0,0,1.011-2.346,3.224,3.224,0,0,0-1.011-2.382,6.438,6.438,0,0,0-2.872-1.509,19.191,19.191,0,0,0-8.813,0,6.279,6.279,0,0,0-2.859,1.509,3.209,3.209,0,0,0-.976,2.382,3.128,3.128,0,0,0,.976,2.346,6.507,6.507,0,0,0,2.859,1.5,16.4,16.4,0,0,0,4.417.527,16.271,16.271,0,0,0,4.4-.527,6.677,6.677,0,0,0,2.872-1.5m-7.269.339a14.522,14.522,0,0,1-3.254-.319,5.123,5.123,0,0,1-2.111-.927,1.773,1.773,0,0,1-.727-1.439,1.807,1.807,0,0,1,.727-1.462,5.2,5.2,0,0,1,2.111-.948,15.987,15.987,0,0,1,6.494,0,5.211,5.211,0,0,1,2.126.948,1.894,1.894,0,0,1,.755,1.462,1.859,1.859,0,0,1-.755,1.439,5.133,5.133,0,0,1-2.126.927,14.55,14.55,0,0,1-3.24.319" transform="translate(15.298 3.233)" fill="#fff"/>
      <path id="패스_176" data-name="패스 176" d="M117.214,17.959a18.252,18.252,0,0,0-8.813,0,6.236,6.236,0,0,0-2.845,1.591,3.539,3.539,0,0,0-1,2.52,3.45,3.45,0,0,0,1,2.486,6.349,6.349,0,0,0,2.845,1.571,18.252,18.252,0,0,0,8.813,0,6.344,6.344,0,0,0,2.852-1.571,3.445,3.445,0,0,0,1-2.486,3.534,3.534,0,0,0-1-2.52,6.232,6.232,0,0,0-2.852-1.591m.956,5.649a4.991,4.991,0,0,1-2.111,1,15.432,15.432,0,0,1-6.5,0,4.98,4.98,0,0,1-2.1-1,1.993,1.993,0,0,1-.734-1.537,2.063,2.063,0,0,1,.734-1.578,4.919,4.919,0,0,1,2.1-1.017,14.592,14.592,0,0,1,6.508,0,4.926,4.926,0,0,1,2.1,1.017,2.063,2.063,0,0,1,.734,1.578,1.993,1.993,0,0,1-.734,1.537" transform="translate(18.983 3.161)" fill="#fff"/>
      <path id="패스_177" data-name="패스 177" d="M102.168,17.279h11.3v-2.1h5.76v3.876h2.187V4.457h-2.187V8.473h-5.76V6.34h-11.3Zm17.059-3.932h-5.76V10.272h5.76Zm-14.9-5.234h7.007v7.394h-7.007Z" transform="translate(18.549 0.809)" fill="#fff"/>
      <path id="패스_178" data-name="패스 178" d="M138.3,18.473a69.4,69.4,0,0,1-7.629.692q-4.016.152-8.627.138l.3,1.855q3,0,5.448-.069t5.255-.3a52.919,52.919,0,0,0,5.414-.714Z" transform="translate(22.157 3.352)" fill="#fff"/>
      <path id="패스_179" data-name="패스 179" d="M133.187,6.715a7.718,7.718,0,0,0-3.419-.734,7.807,7.807,0,0,0-3.442.734,5.689,5.689,0,0,0-2.361,2.05,5.444,5.444,0,0,0-.844,3,5.444,5.444,0,0,0,.844,3,5.678,5.678,0,0,0,2.361,2.049,7.807,7.807,0,0,0,3.442.734,7.718,7.718,0,0,0,3.419-.734,5.665,5.665,0,0,0,2.354-2.049,5.435,5.435,0,0,0,.845-3,5.435,5.435,0,0,0-.845-3,5.676,5.676,0,0,0-2.354-2.05m.5,7.062a3.86,3.86,0,0,1-1.6,1.371,5.658,5.658,0,0,1-4.645,0,3.976,3.976,0,0,1-1.607-1.371,3.536,3.536,0,0,1-.581-2.007,3.611,3.611,0,0,1,.581-2.014,3.82,3.82,0,0,1,1.607-1.378,5.809,5.809,0,0,1,4.645,0,3.637,3.637,0,0,1,2.167,3.392,3.61,3.61,0,0,1-.566,2.007" transform="translate(22.353 1.085)" fill="#fff"/>
      <rect id="사각형_51" data-name="사각형 51" width="2.16" height="24.673" transform="translate(162.09 5.266)" fill="#fff"/>
      <path id="패스_180" data-name="패스 180" d="M142.668,15.886H152.8V18.71h-7.615v1.772h3.794v4.68h-4.016v1.772h17.863V25.162h-3.988v-4.68h3.793V18.71h-7.7V15.886H165.1V14.114h-22.43Zm14.04,9.276h-5.566v-4.68h5.566Z" transform="translate(25.902 2.561)" fill="#fff"/>
      <path id="패스_181" data-name="패스 181" d="M143.746,12.2l.831,1.717a16.3,16.3,0,0,0,4.826-1.509,10.933,10.933,0,0,0,3.663-2.825,6.743,6.743,0,0,0,.643-.938,6.791,6.791,0,0,0,.631.911A11.08,11.08,0,0,0,158,12.394a16.057,16.057,0,0,0,4.825,1.523l.8-1.717a14.455,14.455,0,0,1-4.223-1.239,10.613,10.613,0,0,1-3.31-2.305,4.11,4.11,0,0,1-1.274-2.825V4.668H152.58V5.831A4.148,4.148,0,0,1,151.32,8.69a10.284,10.284,0,0,1-3.309,2.285,14.9,14.9,0,0,1-4.264,1.225" transform="translate(26.097 0.847)" fill="#fff"/>
      <path id="패스_182" data-name="패스 182" d="M87.268,31.11V29.823H81.86V37.34h1.7V34.22h3.351V32.938H83.56V31.11Z" transform="translate(14.862 5.412)" fill="#fff"/>
      <path id="패스_183" data-name="패스 183" d="M93.056,30.191a4.482,4.482,0,0,0-3.939,0,3.319,3.319,0,0,0-1.367,1.332,4.573,4.573,0,0,0,0,4.144A3.334,3.334,0,0,0,89.116,37a4.45,4.45,0,0,0,3.939,0,3.338,3.338,0,0,0,1.366-1.332,4.58,4.58,0,0,0,0-4.147,3.316,3.316,0,0,0-1.366-1.332m-.119,4.748a1.9,1.9,0,0,1-.734.844,2.138,2.138,0,0,1-1.117.3,2.115,2.115,0,0,1-1.109-.3,1.946,1.946,0,0,1-.736-.844,3.554,3.554,0,0,1,0-2.691,1.92,1.92,0,0,1,.736-.844,2.089,2.089,0,0,1,1.109-.288A2.112,2.112,0,0,1,92.2,31.4a1.88,1.88,0,0,1,.734.844,3.628,3.628,0,0,1,0,2.691" transform="translate(15.841 5.396)" fill="#fff"/>
      <path id="패스_184" data-name="패스 184" d="M99.567,34.384a2.211,2.211,0,0,0,1.022-.828,2.315,2.315,0,0,0,.349-1.282,2.41,2.41,0,0,0-.346-1.3,2.241,2.241,0,0,0-1.009-.854,3.859,3.859,0,0,0-1.588-.3H94.786v7.518h1.7V34.672h1.3l1.554,2.669h1.894L99.48,34.408c.027-.011.06-.014.086-.025M96.486,31.1h1.2a2.345,2.345,0,0,1,.835.13.981.981,0,0,1,.5.395,1.2,1.2,0,0,1,.164.644,1.11,1.11,0,0,1-.164.625,1,1,0,0,1-.5.373,2.331,2.331,0,0,1-.833.128h-1.2Z" transform="translate(17.208 5.412)" fill="#fff"/>
      <path id="패스_185" data-name="패스 185" d="M106.516,36.053h-3.821V34.221h3.52V32.938h-3.52V31.11H106.5V29.823h-5.511v7.518h5.523Z" transform="translate(18.335 5.412)" fill="#fff"/>
      <path id="패스_186" data-name="패스 186" d="M110.593,36.028a2.311,2.311,0,0,1-.776.119,2.423,2.423,0,0,1-.82-.128,1.258,1.258,0,0,1-.564-.384,1.088,1.088,0,0,1-.237-.625H106.54a2.331,2.331,0,0,0,.434,1.341,2.485,2.485,0,0,0,1.133.832,4.712,4.712,0,0,0,1.726.278,4.81,4.81,0,0,0,1.71-.273,2.345,2.345,0,0,0,1.093-.781,1.949,1.949,0,0,0,.378-1.194,1.753,1.753,0,0,0-.649-1.433,4.208,4.208,0,0,0-1.811-.774l-.737-.161a3.089,3.089,0,0,1-.97-.345.649.649,0,0,1-.34-.6.678.678,0,0,1,.16-.443,1.023,1.023,0,0,1,.46-.3,2.094,2.094,0,0,1,.719-.11,2.165,2.165,0,0,1,.728.11,1.067,1.067,0,0,1,.486.321.913.913,0,0,1,.2.514H112.9a1.952,1.952,0,0,0-.385-1.173,2.455,2.455,0,0,0-1.068-.8,4.161,4.161,0,0,0-1.584-.282,4.314,4.314,0,0,0-1.6.28,2.512,2.512,0,0,0-1.1.8,1.9,1.9,0,0,0-.4,1.189,1.629,1.629,0,0,0,.572,1.306,3.776,3.776,0,0,0,1.656.746l.9.2a5.718,5.718,0,0,1,.78.228,1.21,1.21,0,0,1,.462.3.614.614,0,0,1,.16.425.742.742,0,0,1-.182.494,1.176,1.176,0,0,1-.516.332" transform="translate(19.342 5.396)" fill="#fff"/>
      <path id="패스_187" data-name="패스 187" d="M116.893,37.341v-6.23h2.517V29.823h-6.724v1.288h2.524v6.23Z" transform="translate(20.458 5.412)" fill="#fff"/>
      <path id="패스_188" data-name="패스 188" d="M123.253,34.22H126.6V32.939h-3.351V31.111h3.708V29.823h-5.408v7.518h1.7Z" transform="translate(22.068 5.412)" fill="#fff"/>
      <path id="패스_189" data-name="패스 189" d="M128.808,37a4.45,4.45,0,0,0,3.939,0,3.338,3.338,0,0,0,1.366-1.332,4.578,4.578,0,0,0,0-4.146,3.324,3.324,0,0,0-1.366-1.332,4.471,4.471,0,0,0-3.939,0,3.318,3.318,0,0,0-1.367,1.332,4.573,4.573,0,0,0,0,4.143A3.323,3.323,0,0,0,128.808,37m.124-4.753a1.913,1.913,0,0,1,.736-.844,2.09,2.09,0,0,1,1.109-.288,2.112,2.112,0,0,1,1.117.288,1.886,1.886,0,0,1,.734.844,3.2,3.2,0,0,1,.259,1.35,3.161,3.161,0,0,1-.259,1.341,1.9,1.9,0,0,1-.734.845,2.137,2.137,0,0,1-1.117.3,2.115,2.115,0,0,1-1.109-.3,1.929,1.929,0,0,1-.736-.845,3.087,3.087,0,0,1-.265-1.341,3.124,3.124,0,0,1,.265-1.35" transform="translate(23.047 5.396)" fill="#fff"/>
      <path id="패스_190" data-name="패스 190" d="M139.258,34.384a2.211,2.211,0,0,0,1.022-.828,2.315,2.315,0,0,0,.349-1.282,2.41,2.41,0,0,0-.346-1.3,2.24,2.24,0,0,0-1.009-.854,3.86,3.86,0,0,0-1.588-.3h-3.208v7.518h1.7V34.672h1.3l1.554,2.669h1.894l-1.751-2.932c.027-.011.06-.014.086-.025m-3.08-3.279h1.2a2.344,2.344,0,0,1,.835.13.98.98,0,0,1,.5.395,1.2,1.2,0,0,1,.164.644,1.109,1.109,0,0,1-.164.625,1,1,0,0,1-.5.373,2.33,2.33,0,0,1-.833.128h-1.2Z" transform="translate(24.414 5.412)" fill="#fff"/>
      <path id="패스_191" data-name="패스 191" d="M142.955,29.823v7.518h5.233V36.053h-3.533v-6.23Z" transform="translate(25.954 5.412)" fill="#fff"/>
      <rect id="사각형_52" data-name="사각형 52" width="1.7" height="7.518" transform="translate(175.245 35.236)" fill="#fff"/>
      <path id="패스_192" data-name="패스 192" d="M156.342,31.11V29.823h-5.408V37.34h1.7V34.22h3.351V32.938h-3.351V31.11Z" transform="translate(27.402 5.412)" fill="#fff"/>
      <path id="패스_193" data-name="패스 193" d="M161.972,31.11V29.823h-5.511V37.34h5.523V36.054h-3.822V34.22h3.521V32.938h-3.521V31.11Z" transform="translate(28.406 5.412)" fill="#fff"/>
    </g>
  </g>
</svg>
