<svg id="cat_icon" xmlns="http://www.w3.org/2000/svg" width="97.087" height="93.823" viewBox="0 0 97.087 93.823">
  <ellipse id="타원_7" data-name="타원 7" cx="45.717" cy="45.717" rx="45.717" ry="45.717" transform="translate(0 2.388)" fill="#b17f49"/>
  <g id="그룹_8" data-name="그룹 8" transform="translate(8.788 0)">
    <path id="패스_29" data-name="패스 29" d="M16.918,1.338q-.555,13.647-1.1,27.3c-.323,8.029-.881,16.077-.827,24.113.04,6.6.612,13.408,3.147,19.567A25.137,25.137,0,0,0,31.079,85.847c6.886,3.147,14.786,4.236,22.217,5.305,7.887,1.136,16.01,1.58,23.8-.363,6.785-1.694,13.186-5.184,17.543-10.752s6.462-12.561,7.06-19.52c.814-9.508-1.17-19-2.918-28.3L93.076,1.862c-.141-.76-1.177-.76-1.54-.2-2.73,4.176-5.668,8.634-10.039,11.256-5.278,3.154-12.251,2.158-18.142,2.138q-9.6-.03-19.2-.182c-3.073-.047-6.186.02-9.252-.215a9.54,9.54,0,0,1-7.013-3.376C24.879,7.705,23.568,2.992,19.641.154c-.881-.632-1.721.827-.847,1.452,3.786,2.73,5.063,7.6,8.049,11.034,3.826,4.391,9.7,3.792,15,3.887q10.429.182,20.858.215c3.476.013,6.966.081,10.443-.013a19.248,19.248,0,0,0,7.914-1.654C86.385,12.527,89.868,7.309,93,2.521l-1.54-.2q2.36,12.537,4.714,25.081c1.56,8.284,3.443,16.609,3.927,25.041.417,7.349-.37,14.948-3.678,21.625A28.039,28.039,0,0,1,81.006,87.817c-7.121,2.717-14.827,3.019-22.344,2.313a110.474,110.474,0,0,1-22.667-4.189c-6.569-2.078-12.13-5.911-15.338-12.13-2.925-5.675-3.745-12.231-3.947-18.532-.269-8.419.383-16.891.726-25.3q.575-14.312,1.157-28.631c.047-1.083-1.641-1.083-1.681,0h0Z" transform="translate(-13.696 0.001)"/>
    <path id="패스_30" data-name="패스 30" d="M109.152,43.915c-6.684-1.567-13.038,2.891-16.945,7.961-2,2.6-3.564,5.81-3.194,9.172.343,3.147,2.394,5.823,4.794,7.753,4.808,3.866,11.68,5.164,17.348,2.468,5.352-2.548,9.037-8.432,8.177-14.41-.955-6.637-6.771-11.814-13.159-13.146-1.056-.222-1.506,1.4-.451,1.621a15.415,15.415,0,0,1,11.31,9.279,12.033,12.033,0,0,1-4.142,13.6c-4.438,3.5-10.584,3.571-15.479.968a13.869,13.869,0,0,1-5.863-5.554c-1.526-2.932-.888-6.126.726-8.869,3.167-5.386,9.831-10.765,16.427-9.219,1.056.249,1.506-1.378.451-1.621h0Z" transform="translate(-37.929 -14.281)"/>
    <path id="패스_31" data-name="패스 31" d="M43.692,43.915c-6.684-1.567-13.038,2.891-16.945,7.961-2,2.6-3.564,5.81-3.194,9.172.343,3.147,2.394,5.823,4.794,7.753,4.808,3.866,11.68,5.164,17.348,2.468,5.352-2.548,9.037-8.432,8.177-14.41-.955-6.637-6.771-11.814-13.159-13.146-1.056-.222-1.506,1.4-.451,1.621a15.415,15.415,0,0,1,11.31,9.279,12.033,12.033,0,0,1-4.142,13.6c-4.438,3.5-10.584,3.571-15.479.968a13.869,13.869,0,0,1-5.863-5.554c-1.526-2.932-.888-6.126.726-8.869,3.167-5.386,9.831-10.765,16.427-9.219,1.056.249,1.506-1.378.451-1.621Z" transform="translate(-16.486 -14.281)"/>
    <path id="패스_32" data-name="패스 32" d="M108.033,58.279a5.593,5.593,0,0,0-.2,6.435.851.851,0,0,0,1.325.168A5.11,5.11,0,0,0,109.533,58a.849.849,0,0,0-1.325.168,7.14,7.14,0,0,0-.82,5.42,1.764,1.764,0,0,0,2.817,1c2.743-1.849,1.446-6.361-.491-8.237a.852.852,0,0,0-1.19,0,6.7,6.7,0,0,0-1.708,5.447c.2,1.405,1.009,3.577,2.824,3.234,1.627-.309,2.212-2.333,2.313-3.739.121-1.755-.336-3.557-1.963-4.472a.855.855,0,0,0-1.022.134,7.527,7.527,0,0,0-1,8.405.852.852,0,0,0,1.452,0,8.941,8.941,0,0,0,1.627-5.89.855.855,0,0,0-1.062-.814,2.124,2.124,0,0,0-.881,3.6c.8.733,1.99-.457,1.19-1.19.047-.262.094-.524.134-.78-.356-.269-.713-.538-1.062-.814a7.493,7.493,0,0,1-1.4,5.043h1.452a5.77,5.77,0,0,1,.74-6.368c-.343.047-.679.087-1.022.134a2.538,2.538,0,0,1,1.143,2.394c.007.5-.094,2.616-.874,2.676-.847.067-1-2.206-.975-2.69a5,5,0,0,1,1.284-3.127h-1.19a4.683,4.683,0,0,1,1.426,4.337c-.061.262-.235,1.015-.471,1.123-.605.276-.605-.538-.619-.888a5.977,5.977,0,0,1,.8-3.086c-.444.054-.881.114-1.325.168a3.393,3.393,0,0,1-.377,4.505c.444.054.881.114,1.325.168a3.988,3.988,0,0,1,.2-4.734c.652-.867-.814-1.708-1.452-.847h0Z" transform="translate(-43.757 -18.377)"/>
    <path id="패스_33" data-name="패스 33" d="M42.687,57.478a22.193,22.193,0,0,0-.565,6.953.855.855,0,0,0,1.264.726c3.49-1.473,3.745-6.65.7-8.694a.851.851,0,0,0-1.15.3c-.935,1.634-2.024,4.3-1.325,6.2a1.958,1.958,0,0,0,3.234.619,4.175,4.175,0,0,0,1.029-2.656,19.62,19.62,0,0,0,.41-3.476c-.061-1.278-1.52-3.14-2.891-1.916-.719.639-.935,2.091-1.311,2.986a6.884,6.884,0,0,0-.659,2.8,3.29,3.29,0,0,0,2.7,3.423,3.81,3.81,0,0,0,3.718-2.468c.767-1.91.161-4.66-.847-6.374-1.076-1.829-2.831-1.5-3.644.289a9.743,9.743,0,0,0-.182,7.43.849.849,0,0,0,1.405.37,5.859,5.859,0,0,0,.921-6.677.847.847,0,0,0-1.452,0,4.48,4.48,0,0,0-.02,4.364c.491.968,1.943.114,1.452-.847a2.774,2.774,0,0,1,.02-2.663H44.039a4.109,4.109,0,0,1-.659,4.64c.471.121.935.249,1.405.37a8.334,8.334,0,0,1-.336-5.07,3.539,3.539,0,0,1,.41-1.157c.074-.5.249-.524.531-.074a.738.738,0,0,1,.457.6,7.189,7.189,0,0,1,.639,3.006,2.657,2.657,0,0,1-1.365,2.441c-1.183.531-1.963-.524-2.017-1.594-.081-1.681,1.136-3.315,1.607-4.9l-.585.585c.719-.3.276,2.387.235,2.669-.054.4-.027,1.782-.329,2.071-1.365,1.271-.713-1.432-.619-1.8a9.14,9.14,0,0,1,.982-2.333l-1.15.3c2.111,1.419,1.526,4.848-.7,5.789.424.242.847.484,1.264.726a20.939,20.939,0,0,1,.5-6.5c.249-1.056-1.372-1.5-1.621-.451h0Z" transform="translate(-22.346 -17.913)"/>
    <path id="패스_34" data-name="패스 34" d="M78.109,79.685c-1.116-2.273-3.92-.027-4.848,1.2-1.325,1.775-1.661,4.532,1.022,5.171,2.172.511,5.144-.262,6.206-2.374.867-1.715.289-4.263-1.721-4.841-2.212-.639-4.788,1.278-5.568,3.281a2.558,2.558,0,0,0,.3,2.7c.834.914,2.246.874,3.376.753,2.084-.229,4.33-1.8,3.584-4.189-.686-2.185-3.893-2.037-5.05-.356-1.331,1.937,1.237,4.882,2.912,2.824.572-.7.706-2.091-.262-2.569-1.062-.524-2.367.639-2.885,1.459a.847.847,0,0,0,.726,1.264,2.8,2.8,0,0,0,2.374-1.325.855.855,0,0,0-.5-1.237,1.857,1.857,0,0,0-2.441,1.842.879.879,0,0,0,.619.814,2.386,2.386,0,0,0,2.474-.464c.854-.666-.35-1.849-1.19-1.19a.741.741,0,0,1-.841.027c.208.269.41.538.619.814.1-.074.208-.148.309-.215-.168-.41-.336-.827-.5-1.237a.93.93,0,0,1-.921.491c.242.424.484.847.726,1.264a1.627,1.627,0,0,1,1.231-.773c-.276-.074-.545-.141-.82-.215l-.249.1a.459.459,0,0,1-.027-.585.9.9,0,0,1,.592-.545c.6-.256,1.432-.2,1.547.545.208,1.352-1.573,1.755-2.548,1.809-.477.027-1.432.141-1.694-.4-.215-.444.256-1.157.511-1.5.625-.854,2.246-2.132,3.362-1.473a1.918,1.918,0,0,1,.37,2.528,3.728,3.728,0,0,1-3.033,1.405c-.572.027-1.621.081-1.943-.518-.249-.464.087-1.13.309-1.526.121-.222,2.037-2.669,2.414-1.91.477.975,1.93.121,1.452-.847h0Z" transform="translate(-32.459 -25.783)"/>
    <path id="패스_35" data-name="패스 35" d="M75.745,86.484c-.054,4.337.034,8.708-.208,13.038-.229,4-1.331,8.331-5.184,10.295-.968.491-.114,1.943.847,1.452,3.53-1.8,5.245-5.507,5.776-9.279.719-5.07.383-10.389.451-15.506a.841.841,0,0,0-1.681,0Z" transform="translate(-31.694 -28.064)"/>
    <path id="패스_36" data-name="패스 36" d="M78.572,114.439a11.38,11.38,0,0,0,7.464,6.845.842.842,0,0,0,.451-1.621A9.582,9.582,0,0,1,80.2,114c-.4-1-2.024-.565-1.621.451h0Z" transform="translate(-34.508 -37.158)"/>
    <path id="패스_37" data-name="패스 37" d="M69.21,65.3a11.5,11.5,0,0,1,13.361.2c.874.639,1.715-.82.847-1.452a13.139,13.139,0,0,0-15.062-.2c-.888.612-.047,2.071.847,1.452h0Z" transform="translate(-31.057 -20.169)"/>
    <path id="패스_38" data-name="패스 38" d="M95.576,71.183A15.6,15.6,0,0,1,87.9,54.232,17.326,17.326,0,0,1,101.386,40.8c6.744-1.217,12.453,2.952,15.405,8.768,2.824,5.568,4.021,14.06-1.1,18.713-2.434,2.212-5.736,3.187-8.856,3.987a14.272,14.272,0,0,1-6.193.666A15.377,15.377,0,0,1,95.415,70.6c-3.093-1.95-5.964-4.357-6.7-8.116a17.8,17.8,0,0,1,.921-9.421C91.8,47.232,96.975,42.6,103.4,42.579a14.13,14.13,0,0,1,7.881,2.306c2.885,1.923,4.27,4.747,5.211,8,1,3.463,2.1,7.336,1.264,10.947-.962,4.149-4.673,5.917-8.493,6.8-4.3,1-8.661,1.405-12.621-.874-3.275-1.889-5.8-4.841-8.217-7.686l-1.19,1.19c5.063,5.305,12.527,9.131,20.018,8.089,6.233-.861,11.761-5.789,11.989-12.305.04-1.083-1.647-1.083-1.681,0-.222,6.2-5.958,10.463-11.814,10.772-6.583.343-12.877-3.093-17.321-7.746-.76-.793-1.883.377-1.19,1.19,2.562,3.019,5.272,6.126,8.782,8.076,3.927,2.185,8.116,2.044,12.413,1.19,3.544-.7,7.329-1.856,9.5-4.962,2.091-2.986,1.99-6.825,1.372-10.261-.659-3.658-1.594-7.8-3.88-10.806a14.426,14.426,0,0,0-7.881-5.083,15.994,15.994,0,0,0-17.268,6.744C86.331,53.889,84.872,63.06,90,68.507c2.609,2.77,6.664,5.46,10.456,6.1,3.813.646,8.446-.881,11.935-2.367a13.046,13.046,0,0,0,7.491-7.269,18.812,18.812,0,0,0,.282-11c-1.627-6.691-6.395-13.448-13.536-14.8C98.112,37.556,89.908,43.446,87,51.266A17.427,17.427,0,0,0,94.7,72.649c.955.518,1.8-.935.847-1.452h0Z" transform="translate(-36.921 -12.743)"/>
    <path id="패스_39" data-name="패스 39" d="M51.163,58.68l.646.767a.846.846,0,0,0,1.405-.37c.208-1.284.41-2.569.619-3.853L52.179,55c.43,4.66.457,9.232-2.932,12.863a14.745,14.745,0,0,1-10.4,4.579c-7.672.188-15.3-5.05-16.6-12.863-1.439-8.6,5.783-16.192,14.2-16.387C45.118,43,52.259,49.9,53.308,58.357c.572,4.593-.955,8.849-5.131,11.142-4.055,2.232-8.842,1.99-13.287,1.466-2.232-.262-4.949-.3-6.643-1.984-1.56-1.553-2.165-3.954-2.8-6-1.439-4.673-1.869-9.239,1.116-13.408,5.043-7.047,15.654-8.681,22.331-3.033a14.272,14.272,0,0,1,.35,21.094A15.388,15.388,0,0,1,26.055,64.6a12.995,12.995,0,0,1,8.889-20.065c1.062-.121,1.076-1.809,0-1.681A14.763,14.763,0,0,0,22.888,61.847,16.981,16.981,0,0,0,44.379,72.4c8.735-2.986,13.583-13,9.79-21.611-3.967-9.01-15.344-11.727-23.575-7.013-4,2.293-7.282,6.294-7.928,10.954a19.325,19.325,0,0,0,.975,8.1c.672,2.253,1.338,4.727,2.8,6.623,1.553,2.017,3.718,2.582,6.153,2.912a47.226,47.226,0,0,0,8.869.612c4.5-.262,9.232-1.937,11.821-5.843,2.669-4.021,2.138-9.575.41-13.852a18.934,18.934,0,0,0-9.064-9.979C35.906,39.079,25,42.737,21.443,51.935c-3.483,9.024,2.367,18.4,11.142,21.268,8.15,2.669,18.747-.881,21.053-9.864a24.369,24.369,0,0,0,.215-8.324c-.081-.867-1.493-1.231-1.654-.222-.208,1.284-.41,2.569-.619,3.853l1.405-.37-.646-.767c-.7-.827-1.883.363-1.19,1.19h0Z" transform="translate(-15.477 -13.594)"/>
    <path id="패스_40" data-name="패스 40" d="M141.238,56.815a2.7,2.7,0,0,0-3.819.128.85.85,0,0,0,.37,1.405,6.18,6.18,0,0,0,3.853-.444l-.847-1.452a3.759,3.759,0,0,1-2.461.827.841.841,0,0,0,0,1.681,5.23,5.23,0,0,0,3.308-1.056.841.841,0,0,0-.847-1.452,4.218,4.218,0,0,1-2.555.276c.121.471.249.935.37,1.405a1,1,0,0,1,1.439-.128c.793.733,1.99-.457,1.19-1.19h0Z" transform="translate(-53.729 -18.372)"/>
    <path id="패스_41" data-name="패스 41" d="M14.394,57.1a26.155,26.155,0,0,1,5.171,1.21l.222-1.654a19.264,19.264,0,0,1-4.619-.787l-.222,1.654,3.766.343c.941.087,1.143-1.452.222-1.654a19.943,19.943,0,0,1-4.586-1.594c-.215.511-.43,1.029-.646,1.54l1.439.242c1.062.175,1.513-1.446.451-1.621l-1.439-.242c-.867-.141-1.573,1.083-.646,1.54a21.861,21.861,0,0,0,4.983,1.762l.222-1.654-3.766-.343c-.968-.087-1.1,1.392-.222,1.654a21.213,21.213,0,0,0,5.063.847c.988.047,1.089-1.358.222-1.654a28.237,28.237,0,0,0-5.621-1.271c-1.069-.134-1.062,1.553,0,1.681h0Z" transform="translate(-13.069 -17.86)"/>
  </g>
</svg>
