<svg id="cat_icon2" xmlns="http://www.w3.org/2000/svg" width="96.626" height="98.977" viewBox="0 0 96.626 98.977">
  <ellipse id="타원_8" data-name="타원 8" cx="44.46" cy="44.46" rx="44.46" ry="44.46" transform="translate(7.706 2.129)" fill="#c99d66"/>
  <ellipse id="타원_9" data-name="타원 9" cx="25.458" cy="25.458" rx="25.458" ry="25.458" transform="translate(0 48.062)" fill="#caba9f"/>
  <g id="그룹_9" data-name="그룹 9" transform="translate(5.14 0)">
    <path id="패스_42" data-name="패스 42" d="M8.381,72.82c.175,4.283.558,8.822,2.824,12.574,2.589,4.29,7.175,6.213,11.908,7.128a117.832,117.832,0,0,0,17.664,1.742,159.356,159.356,0,0,0,18.794-.377c5.151-.41,11.162-.578,15.439-3.86,3.288-2.522,4.673-6.469,5.083-10.463.545-5.292-.188-10.765-.491-16.051q-.545-9.622-1.083-19.238Q77.29,22.49,76.066.711a.72.72,0,0,0-1.21-.5q-4.983,5.618-9.965,11.243Q62.4,14.263,59.908,17.07a8.752,8.752,0,0,1-2.185,2.011,9,9,0,0,1-3.772.713q-15.1,1.039-30.191,2.051c.229.175.457.35.686.518A46.647,46.647,0,0,0,10.163.65c-.679-.6-1.654.343-1,1,.4.4.215,1.943.188,2.528-.061,1.594-.235,3.187-.424,4.774C8.536,12.236,8,15.5,7.7,18.785a26.388,26.388,0,0,0,.1,4.371c.235,3.147.377,6.307.457,9.461.161,6.327.087,12.655.013,18.982-.081,7.074-.148,14.148.108,21.221.034.908,1.452.914,1.419,0-.484-13.025.182-26.063-.094-39.087-.067-3.16-.195-6.314-.4-9.468A34.128,34.128,0,0,1,9.114,18.9c.3-3.376.854-6.731,1.251-10.1a48.224,48.224,0,0,0,.424-5.3c0-.9.061-2.152-.625-2.851l-1,1a45.285,45.285,0,0,1,13.919,21.1.706.706,0,0,0,.686.518q8.109-.555,16.212-1.1c5.151-.35,10.342-.538,15.479-1.062a7.125,7.125,0,0,0,4.727-2.212c1.728-1.8,3.322-3.739,4.976-5.6q5.346-6.042,10.7-12.077l-1.21-.5Q76.675,36.638,78.7,72.558c.229,4.122.4,8.58-1.412,12.406-2.273,4.808-7.215,6.334-12.137,6.953a151.99,151.99,0,0,1-34.831.168c-5.534-.585-12.2-1.076-16.3-5.332-3.53-3.678-4.014-9.1-4.209-13.939-.034-.908-1.452-.914-1.419,0Z" transform="translate(-7.644 0.006)"/>
    <path id="패스_43" data-name="패스 43" d="M61.238,77.84c-1.9-.565-4.579.195-5.1,2.353-.578,2.38,2.441,2.918,4.142,2.575,1.742-.35,4.424-2.246,3.187-4.317C62.355,76.6,59.5,77.207,58.112,78.3s-2.427,3.839.1,4.25c1.466.242,4.317-1.452,3.752-3.214-.585-1.829-3.5-1.109-3.967.437-.5,1.715,1.641,3.281,2.878,1.735,1.426-1.768-1.621-3.335-2.387-1.439a1.38,1.38,0,0,0,1.163,1.816c1.089.188,1.809-.646,2.374-1.446a.732.732,0,0,0-.108-.861,1.63,1.63,0,0,0-2.535-.034.732.732,0,0,0-.108.861,1.167,1.167,0,0,0,1.358.585c.9-.134.518-1.506-.377-1.365.081.02.168.04.249.067-.034.289-.074.572-.108.861.175.013.35.02.524.034-.034-.289-.074-.572-.108-.861-.222.316-.9,1.083-1.385.881-.437-.182.477-1.1.861-.914.773.377-1.089,1.358-1.439,1.432-.854.175-.793-.693-.37-1.21a3.251,3.251,0,0,1,.793-.693,2.887,2.887,0,0,1,2.414-.417c1.177.437.289,1.661-.437,2.1a3.935,3.935,0,0,1-2.394.545c-.558-.054-1.533-.215-1.231-1.177a1.95,1.95,0,0,1,.935-.881,2.981,2.981,0,0,1,2.327-.182.708.708,0,0,0,.377-1.365h0Z" transform="translate(-23.505 -25.306)"/>
    <path id="패스_44" data-name="패스 44" d="M55.2,84.255c.672,1.957.518,4.391-1.473,5.527-1.9,1.089-4.619-.256-3.967-2.643a.708.708,0,0,0-1.365-.377A3.928,3.928,0,0,0,53.2,91.51c3.409-.834,4.391-4.646,3.362-7.639-.3-.861-1.668-.491-1.365.377h0Z" transform="translate(-20.947 -27.311)"/>
    <path id="패스_45" data-name="패스 45" d="M59.528,86.319c.377,2.367,1.224,5.137,3.873,5.789,2.522.619,4.055-1.681,4.962-3.644.383-.82-.841-1.547-1.224-.713-.7,1.513-1.876,3.786-3.92,2.8-1.694-.82-2.058-2.925-2.32-4.6-.141-.9-1.513-.518-1.365.377h0Z" transform="translate(-24.639 -27.983)"/>
    <path id="패스_46" data-name="패스 46" d="M82.612,51.764a8.92,8.92,0,0,0,1.15,6.65.72.72,0,0,0,1.224,0,8.556,8.556,0,0,0,.061-9.508.715.715,0,0,0-1.116-.141,7.667,7.667,0,0,0-.457,9.118.717.717,0,0,0,1.224,0c.894-1.93,2.582-6.8-.377-7.84a.715.715,0,0,0-.874.5,11.316,11.316,0,0,0,.276,4.7.714.714,0,0,0,1.183.316,2.813,2.813,0,0,0,.242-3.429.715.715,0,0,0-1.224,0,4.355,4.355,0,0,0-.262,3.107.708.708,0,0,0,1.365-.377,2.737,2.737,0,0,1,.121-2.011H83.923a1.393,1.393,0,0,1-.02,1.708c.4.108.793.208,1.183.316a9.439,9.439,0,0,1-.276-3.947c-.289.168-.585.329-.874.5,1.587.558-.067,4.875-.471,5.756h1.224a6.237,6.237,0,0,1,.235-7.4l-1.116-.141a7.156,7.156,0,0,1-.061,8.076h1.224a7.409,7.409,0,0,1-1-5.554c.188-.894-1.183-1.271-1.365-.377h0Z" transform="translate(-32.062 -15.9)"/>
    <path id="패스_47" data-name="패스 47" d="M33.162,52.356a6.407,6.407,0,0,0-1.036,4.667c.182,1.083.8,2.912,2.239,2.636,1.271-.242,1.567-2.232,1.694-3.254a8.622,8.622,0,0,0-.894-4.962.715.715,0,0,0-1.224,0A9.867,9.867,0,0,0,32.4,59.355a.713.713,0,0,0,1.042.424,4.518,4.518,0,0,0,1.392-6.22.721.721,0,0,0-1.116-.141,2.838,2.838,0,0,0-.894,3.214.721.721,0,0,0,1.3.168,3.011,3.011,0,0,0,.646-1.863c.027-.572-.827-1-1.21-.5a3.04,3.04,0,0,0-.545,3.154c.329.841,1.7.477,1.365-.377a1.673,1.673,0,0,1,.182-1.768l-1.21-.5a1.525,1.525,0,0,1-.451,1.143c.43.054.867.114,1.3.168a1.516,1.516,0,0,1,.524-1.836L33.6,54.272a3.088,3.088,0,0,1-.881,4.277l1.042.424a8.491,8.491,0,0,1,1.405-6.818H33.942a7.257,7.257,0,0,1,.76,2.7c.047.672.148,2.2-.35,2.737-.713.767-.908-1.251-.888-1.755a5.134,5.134,0,0,1,.935-2.75c.5-.76-.719-1.473-1.224-.713h0Z" transform="translate(-15.635 -16.734)"/>
    <path id="패스_48" data-name="패스 48" d="M41.672,31.619c1.9.847,1.446,3.618,2.367,5.211a6.127,6.127,0,0,0,3.389,2.69,5.748,5.748,0,0,0,4.2-.229c2.118-.968,3.53-2.622,6.058-2.118,1.8.356,3.382.861,5.218.39a7.879,7.879,0,0,0,3.913-2.448c1.338-1.54,3.194-6.321-.256-6.637a.674.674,0,0,0-.612.35,20.871,20.871,0,0,1-4.088,6.227c.37.289.74.572,1.116.861a21.156,21.156,0,0,1,3.046-3.658c-.37-.289-.74-.572-1.116-.861a23.85,23.85,0,0,1-3.994,4.236l1,1A16.928,16.928,0,0,1,66.2,33l-.968-.968c-1,1.338-1.99,2.669-2.979,4.008l1.224.713a19.96,19.96,0,0,1,3.315-3.819l-1-1a41.327,41.327,0,0,1-4.229,4.034c.37.289.74.572,1.116.861.854-1.58,1.7-3.16,2.555-4.747.316-.585-.35-1.392-.968-.968L59,34.672c.289.37.572.74.861,1.116,1.1-1.284,2.212-2.562,3.315-3.846.491-.565-.161-1.614-.861-1.116q-2.713,1.957-5.433,3.913c.289.37.572.74.861,1.116,1.19-1.257,2.387-2.515,3.577-3.772.538-.565-.161-1.56-.861-1.116q-3.419,2.2-6.845,4.391c.289.37.572.74.861,1.116a46.79,46.79,0,0,0,5.352-5.036c.511-.565-.175-1.614-.861-1.116L51.3,35.909c.289.37.572.74.861,1.116a29.866,29.866,0,0,0,4.216-4.283c.471-.585-.128-1.58-.861-1.116q-2.784,1.765-5.561,3.537c.289.37.572.74.861,1.116q1.412-1.6,2.824-3.2c.437-.5.027-1.426-.693-1.183A12.825,12.825,0,0,0,48.04,34.84c-.565.545.2,1.607.861,1.116a3.921,3.921,0,0,0,1.688-3.214.72.72,0,0,0-1.069-.612,37.866,37.866,0,0,1-3.671,1.6c.3.229.6.457.9.686.007-.6.013-1.19.007-1.789a.71.71,0,0,0-.706-.706,2.951,2.951,0,0,0-2.535,4.384c1.237,2.219,4.075,2.078,5.742.464-.4-.108-.793-.208-1.183-.316a2.289,2.289,0,0,0,3.571,1.352c-.289-.37-.572-.74-.861-1.116a13.76,13.76,0,0,1-2.051,1.419l1.042.8c.081-.323.168-.646.249-.968a.721.721,0,0,0-.5-.874,4.74,4.74,0,0,0-.975-.087c-.847.02-1.1.034-.605-.941a19.808,19.808,0,0,1,2.219-2.824c.39-.5.054-1.446-.693-1.183a4.048,4.048,0,0,0-1.378.773c-.269.229-.5.491-.753.733-.061.061-1.634,1.385-1.439.175.047-.282,1.849-.6,2.125-.666a23.156,23.156,0,0,1,2.952-.511c-.121-.444-.235-.881-.356-1.325a19.138,19.138,0,0,0-3.449,2.7.714.714,0,0,0,.861,1.116A50.7,50.7,0,0,1,55.322,31.6c-.229-.4-.457-.793-.693-1.183A25.526,25.526,0,0,1,51.4,33.395c-.679.531.188,1.426.861,1.116a35.573,35.573,0,0,0,5.124-2.9c-.235-.41-.477-.814-.713-1.224a17.5,17.5,0,0,0-3.133,2.972.714.714,0,0,0,.693,1.183A36.4,36.4,0,0,0,59.955,32.7l-.8-1.042c-.464.814-.935,1.621-1.4,2.434a.713.713,0,0,0,.968.968,1.6,1.6,0,0,1,1.9-.007c-.094.551.484,1.183,1.042.8a22.292,22.292,0,0,0,5.742-5.628c-.43-.054-.867-.114-1.3-.168a3.844,3.844,0,0,1-.679,3.766c.289-.034.572-.074.861-.108l-1.217-.854c-.746-.524-1.459.706-.713,1.224l1.217.854a.712.712,0,0,0,.861-.108,5.293,5.293,0,0,0,1.049-5.144.72.72,0,0,0-1.3-.168,20.3,20.3,0,0,1-5.238,5.124l1.042.8a1.794,1.794,0,0,0-.9-2.017c-1.029-.585-2.138-.081-3.086.424l.968.968c.464-.814.935-1.621,1.4-2.434.282-.484-.2-1.291-.8-1.042a36.175,36.175,0,0,1-5.722,1.849c.229.4.457.793.693,1.183a15.773,15.773,0,0,1,2.851-2.75c.713-.531.054-1.748-.713-1.224a35.937,35.937,0,0,1-5.124,2.9c.289.37.572.74.861,1.116a26.563,26.563,0,0,0,3.228-2.979c.437-.477.02-1.452-.693-1.183a53.124,53.124,0,0,0-7.625,3.564c.289.37.572.74.861,1.116a18.124,18.124,0,0,1,3.16-2.474c.551-.336.383-1.405-.356-1.325a22.179,22.179,0,0,0-4.983,1.029c-.908.323-1.889.9-1.768,2.017A1.917,1.917,0,0,0,46.3,35.708c1.58-.1,2.2-1.822,3.571-2.3-.229-.4-.457-.793-.693-1.183-.8,1.015-1.594,2.031-2.394,3.046a2.77,2.77,0,0,0-.888,1.768c.114,1.775,2.179,1.217,3.268,1.412-.168-.289-.329-.585-.5-.874-.081.323-.168.646-.249.968a.717.717,0,0,0,1.042.8A15.24,15.24,0,0,0,51.8,37.7c.612-.511-.215-1.607-.861-1.116a.885.885,0,0,1-1.486-.5.715.715,0,0,0-1.183-.316,2.19,2.19,0,0,1-3.154.256,1.527,1.527,0,0,1,.955-2.683l-.706-.706c0,.6,0,1.19-.007,1.789a.717.717,0,0,0,.9.686,41.457,41.457,0,0,0,4.008-1.742c-.356-.2-.713-.41-1.069-.612a2.4,2.4,0,0,1-.988,1.99c.289.37.572.74.861,1.116a11.1,11.1,0,0,1,4.283-2.575c-.229-.4-.457-.793-.693-1.183q-1.412,1.6-2.824,3.2c-.511.578.148,1.567.861,1.116q2.784-1.765,5.561-3.537c-.289-.37-.572-.74-.861-1.116a29.866,29.866,0,0,1-4.216,4.283c-.612.511.208,1.587.861,1.116l7.666-5.588c-.289-.37-.572-.74-.861-1.116A46.79,46.79,0,0,1,53.494,35.5c-.625.5.188,1.547.861,1.116q3.419-2.2,6.845-4.391c-.289-.37-.572-.74-.861-1.116-1.19,1.257-2.387,2.515-3.577,3.772-.531.558.182,1.607.861,1.116q2.713-1.957,5.433-3.913c-.289-.37-.572-.74-.861-1.116-1.1,1.284-2.212,2.562-3.315,3.846-.491.572.148,1.594.861,1.116L65,32.366,64.03,31.4c-.854,1.58-1.7,3.16-2.555,4.747a.714.714,0,0,0,1.116.861,41.326,41.326,0,0,0,4.229-4.034.709.709,0,0,0-1-1,21.272,21.272,0,0,0-3.537,4.108c-.518.773.693,1.432,1.224.713,1-1.338,1.99-2.669,2.979-4.008.437-.592-.4-1.311-.968-.968a18.074,18.074,0,0,0-4.566,3.86.709.709,0,0,0,1,1,24.872,24.872,0,0,0,4.216-4.519c.491-.666-.551-1.4-1.116-.861a22.671,22.671,0,0,0-3.268,3.94c-.444.672.558,1.439,1.116.861a21.992,21.992,0,0,0,4.31-6.516l-.612.35c.861.081.518,1.715.39,2.152a5.724,5.724,0,0,1-1.136,2.058,6.509,6.509,0,0,1-3.671,2.172c-1.614.309-3.107-.343-4.68-.585a5.713,5.713,0,0,0-3.752.706c-1.217.666-2.34,1.708-3.752,1.943a4.774,4.774,0,0,1-4.041-1.358c-1.876-1.869-.827-5.379-3.544-6.6-.827-.37-1.547.854-.713,1.224h0Z" transform="translate(-18.679 -9.325)"/>
    <path id="패스_49" data-name="패스 49" d="M78.644,80.59a29.131,29.131,0,0,1,7.78-3.046c.888-.208.511-1.58-.377-1.365a30.586,30.586,0,0,0-8.116,3.187.709.709,0,0,0,.713,1.224Z" transform="translate(-30.556 -24.943)"/>
    <path id="패스_50" data-name="패스 50" d="M79.151,88.535a8.624,8.624,0,0,1,4.754.726c.82.383,1.54-.834.713-1.224a9.892,9.892,0,0,0-5.467-.921c-.894.108-.908,1.526,0,1.419Z" transform="translate(-30.847 -28.511)"/>
    <path id="패스_51" data-name="패스 51" d="M79.245,94.7a19.851,19.851,0,0,1,4.377,4.176c.558.719,1.553-.289,1-1a21,21,0,0,0-4.667-4.4c-.753-.524-1.459.706-.713,1.224Z" transform="translate(-30.995 -30.576)"/>
    <path id="패스_52" data-name="패스 52" d="M39.816,79.364a13.343,13.343,0,0,0-8.533-.767c-.888.215-.511,1.58.377,1.365a11.741,11.741,0,0,1,7.444.619c.827.356,1.553-.861.713-1.224h0Z" transform="translate(-15.222 -25.621)"/>
    <path id="패스_53" data-name="패스 53" d="M38.947,87.1a12.242,12.242,0,0,0-6.6,1.217c-.82.4-.1,1.621.713,1.224a10.836,10.836,0,0,1,5.884-1.022c.908.087.9-1.331,0-1.419h0Z" transform="translate(-15.617 -28.511)"/>
    <path id="패스_54" data-name="패스 54" d="M38.352,93.265a20,20,0,0,0-6.637,5.87c-.538.74.693,1.446,1.224.713a18.4,18.4,0,0,1,6.126-5.359c.8-.437.087-1.661-.713-1.224h0Z" transform="translate(-15.486 -30.518)"/>
    <path id="패스_55" data-name="패스 55" d="M106.856,70.889c-2.374-.962-4.256,2-4.465,4.014a6.2,6.2,0,0,0,.733,3.288c.518,1.2.222,1.8-.572,2.73-.565.666-1.19,1.284-1.748,1.957-1.439,1.755-2.6,4.438-1.022,6.5,2.031,2.663,6.966,1.2,8.136,4.875.276.867,1.647.5,1.365-.377-.659-2.078-2.454-3.16-4.445-3.772-1.318-.4-3.449-.524-4.149-1.916-.719-1.419.148-3.086,1.022-4.2,1.143-1.452,3.6-3.194,3.154-5.332-.222-1.076-1.049-1.849-1.1-3-.054-1.21.914-4.135,2.7-3.409.847.343,1.217-1.029.377-1.365h0Z" transform="translate(-37.58 -23.157)"/>
    <path id="패스_56" data-name="패스 56" d="M109.333,94.162c.222-.719.437-1.432.659-2.152.168-.551-.538-1.183-1.042-.8a3.03,3.03,0,0,0-.867.935c.444.121.881.235,1.325.356a8.121,8.121,0,0,1,.646-3.214c.282-.666-.551-1.547-1.116-.861-.746.9-1.486,1.8-2.232,2.7.37.289.74.572,1.116.861a35.939,35.939,0,0,0,1.54-4.377.714.714,0,0,0-1.183-.693c-.733.719-1.473,1.432-2.206,2.152.37.289.74.572,1.116.861a29.262,29.262,0,0,0,1.95-4.552c.235-.713-.693-1.13-1.183-.693-1.325,1.177-2.643,2.353-3.967,3.537.37.289.74.572,1.116.861,1-1.654,2-3.308,2.992-4.962a.714.714,0,0,0-1.116-.861q-2.169,2.148-4.33,4.3c.37.289.74.572,1.116.861l3.873-5.769c.471-.7-.538-1.372-1.116-.861q-2.955,2.622-5.9,5.252c.37.289.74.572,1.116.861q1.987-3,3.981-5.991c.383-.572-.39-1.385-.968-.968a15.844,15.844,0,0,0-4.129,4.283c-.437.659.612,1.5,1.116.861.652-.834,1.3-1.674,1.957-2.508-.4-.229-.793-.457-1.183-.693-.592,1.984-2.743,3.449-2.226,5.742.417,1.856,2.743,2.421,4.4,2.138a4.171,4.171,0,0,0,3.026-2.932,53.238,53.238,0,0,0,1.809-7.605.718.718,0,0,0-1.042-.8c-.767.417-1.533.814-2.313,1.19.356.2.713.41,1.069.612a3.56,3.56,0,0,1,.834-2.259c-.37-.289-.74-.572-1.116-.861a11.208,11.208,0,0,1-1.728,2.172c.37.289.74.572,1.116.861a29.169,29.169,0,0,0,1.8-5.742c.108-.531-.5-1.21-1.042-.8a5.585,5.585,0,0,0-1.426,1.547l1.224.713a19.032,19.032,0,0,0,1.439-3.537.716.716,0,0,0-1.042-.8,8.266,8.266,0,0,0-2.562,2.138l1.183.693c.39-1.089.787-2.185,1.177-3.275.282-.787-.881-1.2-1.3-.545a19.128,19.128,0,0,0-2,4.122.719.719,0,0,0,.323.8,2.586,2.586,0,0,0,1.237.336c.908.067.908-1.352,0-1.419l-.524-.141c.108.269.215.531.323.8a17.428,17.428,0,0,1,1.849-3.779l-1.3-.545c-.39,1.089-.787,2.185-1.177,3.275-.235.646.746,1.237,1.183.693a7.433,7.433,0,0,1,2.273-1.916l-1.042-.8a17.769,17.769,0,0,1-1.3,3.194.708.708,0,0,0,1.224.713,2.94,2.94,0,0,1,.914-1.036l-1.042-.8a27.515,27.515,0,0,1-1.647,5.4c-.3.7.5,1.473,1.116.861a12.728,12.728,0,0,0,1.95-2.454c.41-.672-.6-1.493-1.116-.861a5.23,5.23,0,0,0-1.251,3.261.72.72,0,0,0,1.069.612c.78-.383,1.553-.78,2.313-1.19l-1.042-.8-1.109,5.023c-.276,1.264-.5,2.838-1.412,3.826-1.3,1.419-4.586.619-3.819-1.634.471-1.378,1.641-2.374,2.071-3.8.188-.639-.733-1.264-1.183-.693-.652.834-1.3,1.674-1.957,2.508.37.289.74.572,1.116.861a14.1,14.1,0,0,1,3.618-3.772l-.968-.968q-1.987,3-3.981,5.991c-.464.7.538,1.372,1.116.861q2.955-2.622,5.9-5.252c-.37-.289-.74-.572-1.116-.861l-3.873,5.769c-.457.679.551,1.419,1.116.861q2.169-2.148,4.33-4.3c-.37-.289-.74-.572-1.116-.861-1,1.654-2,3.308-2.992,4.962a.714.714,0,0,0,1.116.861c1.325-1.177,2.643-2.353,3.967-3.537-.4-.229-.793-.457-1.183-.693a26.731,26.731,0,0,1-1.809,4.209.714.714,0,0,0,1.116.861c.733-.719,1.473-1.432,2.206-2.152-.4-.229-.793-.457-1.183-.693a30.436,30.436,0,0,1-1.4,4.034c-.282.666.551,1.547,1.116.861.746-.9,1.486-1.8,2.232-2.7-.37-.289-.74-.572-1.116-.861a10.028,10.028,0,0,0-.841,3.934.716.716,0,0,0,1.325.356c.121-.141.235-.289.356-.43l-1.042-.8c-.222.719-.437,1.432-.659,2.152-.269.874,1.1,1.251,1.365.377h0Z" transform="translate(-37.932 -23.326)"/>
    <path id="패스_57" data-name="패스 57" d="M8.245,76.479a9.379,9.379,0,0,0,3.147,2.427,3.734,3.734,0,0,1,1.9,2.011,5.8,5.8,0,0,1-.289,3.093c-.867,3.154-1.3,6.106.78,8.923,1.7,2.306,8,4.5,5.709,8.15-1.19,1.9-3.631,2.152-5.668,2-1.426-.1-2.885-.6-4.055.464-.679.619.329,1.614,1,1,.719-.652,2.7-.047,3.55-.02a10.5,10.5,0,0,0,2.636-.2,5.9,5.9,0,0,0,3.759-2.535c2.071-3.342-1.022-5.951-3.557-7.692a7.359,7.359,0,0,1-3.5-5.2c-.276-2.138.753-4.014,1.069-6.079a4.513,4.513,0,0,0-1.157-4.082c-1.217-1.2-3.08-1.587-4.1-2.986-.531-.733-1.762-.027-1.224.713h0Z" transform="translate(-7.797 -24.712)"/>
    <path id="패스_58" data-name="패스 58" d="M11.277,80.13a5.747,5.747,0,0,0-1.56,3.376c-.087.686.8.834,1.21.5A10.262,10.262,0,0,0,12.891,81.9c-.41-.235-.814-.477-1.224-.713a11.5,11.5,0,0,0-1.9,4.357.715.715,0,0,0,1.183.693c.908-.746,1.816-1.486,2.723-2.232-.37-.289-.74-.572-1.116-.861A54.428,54.428,0,0,0,9.838,89.49c-.256.726.693,1.109,1.183.693a13.156,13.156,0,0,0,3.16-3.954l-1.3-.545a49.621,49.621,0,0,1-2.864,8.049c-.377.82.82,1.54,1.224.713A15.855,15.855,0,0,1,13.6,90.889l-1.21-.5A22.373,22.373,0,0,1,10.5,96.92c-.316.686.531,1.493,1.116.861l2.441-2.643c-.4-.229-.793-.457-1.183-.693a23.1,23.1,0,0,1-3.033,6.186c-.451.659.6,1.479,1.116.861l3.618-4.324c-.37-.289-.74-.572-1.116-.861q-1.392,2.754-2.777,5.5c-.35.693.531,1.466,1.116.861q2.39-2.5,4.781-5c-.37-.289-.74-.572-1.116-.861a69.211,69.211,0,0,1-3.665,6.3c-.43.666.605,1.493,1.116.861a73.458,73.458,0,0,1,5.366-6.011c-.37-.289-.74-.572-1.116-.861q-1.987,3.157-3.981,6.321a.714.714,0,0,0,1.116.861l4.4-4.552c-.4-.229-.793-.457-1.183-.693a16.256,16.256,0,0,1-2,3.813c-.457.652.612,1.493,1.116.861A24.8,24.8,0,0,1,20.4,99.879l-1.21-.5A5.962,5.962,0,0,1,17.86,102.6c-.565.693.383,1.694,1,1,.646-.719,1.3-1.439,1.943-2.165l-1.183-.693a11.819,11.819,0,0,1-.908,2.965c.43.054.867.114,1.3.168l-.531-1.547c-.3-.861-1.668-.491-1.365.377l.531,1.547c.182.518,1.022.767,1.3.168a13.3,13.3,0,0,0,1.049-3.3c.114-.639-.666-1.264-1.183-.693-.646.719-1.3,1.439-1.943,2.165l1,1a7.718,7.718,0,0,0,1.748-4.229c.067-.679-.793-.847-1.21-.5a24.8,24.8,0,0,0-3.772,3.833c.37.289.74.572,1.116.861A17.644,17.644,0,0,0,18.9,99.4c.249-.679-.713-1.177-1.183-.693q-2.2,2.279-4.4,4.552c.37.289.74.572,1.116.861q1.987-3.157,3.981-6.321a.714.714,0,0,0-1.116-.861,71.043,71.043,0,0,0-5.366,6.011c.37.289.74.572,1.116.861a70.817,70.817,0,0,0,3.665-6.3c.356-.693-.531-1.466-1.116-.861q-2.39,2.5-4.781,5c.37.289.74.572,1.116.861q1.392-2.754,2.777-5.5c.343-.672-.565-1.513-1.116-.861l-3.618,4.324c.37.289.74.572,1.116.861a24.135,24.135,0,0,0,3.174-6.522.714.714,0,0,0-1.183-.693l-2.441,2.643c.37.289.74.572,1.116.861a24.645,24.645,0,0,0,2.078-7.255c.081-.612-.827-.935-1.21-.5A17.134,17.134,0,0,0,10.04,93.7c.41.235.814.477,1.224.713a51.5,51.5,0,0,0,3.012-8.385.712.712,0,0,0-1.3-.545,12.155,12.155,0,0,1-2.938,3.671c.4.229.793.457,1.183.693A52.646,52.646,0,0,1,13.8,83.835a.714.714,0,0,0-1.116-.861c-.908.746-1.816,1.486-2.723,2.232.4.229.793.457,1.183.693A10.7,10.7,0,0,1,12.9,81.885c.531-.746-.7-1.452-1.224-.713a8.955,8.955,0,0,1-1.742,1.822l1.21.5a4.135,4.135,0,0,1,1.143-2.374c.625-.666-.377-1.668-1-1h0Z" transform="translate(-8.321 -26.171)"/>
    <path id="패스_59" data-name="패스 59" d="M16.707,94.805A8.985,8.985,0,0,0,14,97.071c.4.229.793.457,1.183.693.229-1.036.982-2.918-.572-3.281-1.271-.3-1.889.881-2.078,1.93a.716.716,0,0,0,1.183.693,2.215,2.215,0,0,1,1.318-.518c-.3-.229-.6-.457-.9-.686-.061,1.237-.121,2.481-.175,3.718a7.609,7.609,0,0,0,0,2.918c.605,1.513,2.871.511,3.954.282l-.874-.874a2.609,2.609,0,0,1-2.737,1.7c-.572,0-2.468-.121-2.844-.706a7.111,7.111,0,0,1-.034-1.654c-.007-.457-.02-.921-.027-1.378-.02-1.009-.04-2.024-.067-3.033l-.262-12.144a.71.71,0,0,0-1.419,0c-.013.854-.034,1.715-.047,2.569-.013.773,1.284,1,1.392.188a35.126,35.126,0,0,1,.941-4.794c.155-.545.551-1.836.847-.632a4.348,4.348,0,0,1-.323,2.777h1.365a11.464,11.464,0,0,0-2.34-5.03c-.41-.518-1.183-.054-1.21.5a3.839,3.839,0,0,0,.592,2.293c.471.78,1.7.067,1.224-.713a2.525,2.525,0,0,1-.4-1.573l-1.21.5a10,10,0,0,1,1.977,4.4c.148.773,1.13.565,1.365,0,.538-1.284,1-5.527-1.459-5.245-.921.108-1.4,1.056-1.661,1.829A28.6,28.6,0,0,0,9.62,87.133c.464.061.928.128,1.392.188.013-.854.034-1.715.047-2.569H9.64c.128,5.884.195,11.781.377,17.664.027.807,0,1.473.753,1.943a7.59,7.59,0,0,0,3.261.733,4.067,4.067,0,0,0,4.364-2.737.719.719,0,0,0-.874-.874,10.994,10.994,0,0,1-1.789.377c-.39.013-.276.121-.464-.087-.148-.161.054-1.123.061-1.325.074-1.506.141-3.012.215-4.512a.725.725,0,0,0-.9-.686,3.811,3.811,0,0,0-1.943.881l1.183.693c.195-1.089-.027.336-.087.6-.141.625.706,1.284,1.183.693A7.869,7.869,0,0,1,17.4,96.069c.8-.444.087-1.668-.713-1.224h0Z" transform="translate(-8.285 -26.067)"/>
  </g>
</svg>
