<svg id="Logo" xmlns="http://www.w3.org/2000/svg" width="182.155" height="72" viewBox="0 0 182.155 72">
  <path id="패스_1" data-name="패스 1" d="M101.707,182.016a1.043,1.043,0,0,1-.381-.071,1.074,1.074,0,0,1-.626-1.384c1.16-3.072-1.225-6.494-1.249-6.528a1.07,1.07,0,0,1-.2-.62v-8.535l-4.3,3.02a1.077,1.077,0,0,1-1.031.114c-2.118-.881-5.718-.264-6.927.049a1.083,1.083,0,0,1-.872-.15l-4.558-3.078v8.1a1.111,1.111,0,0,1-.08.408,17.368,17.368,0,0,0-.819,7.473,1.073,1.073,0,0,1-2.13.27,19.5,19.5,0,0,1,.881-8.354v-9.913a1.075,1.075,0,0,1,1.676-.89l5.843,3.947c1.246-.267,4.625-.859,7.234-.046l5.533-3.888a1.076,1.076,0,0,1,1.694.881V173.1c.663,1.056,2.649,4.677,1.307,8.228a1.073,1.073,0,0,1-1,.694Z" transform="translate(-54.354 -112.1)" fill="#fbf0dc"/>
  <ellipse id="타원_1" data-name="타원 1" cx="1.375" cy="1.375" rx="1.375" ry="1.375" transform="translate(30.921 62.569)" fill="#fbf0dc"/>
  <ellipse id="타원_2" data-name="타원 2" cx="1.375" cy="1.375" rx="1.375" ry="1.375" transform="translate(38.612 62.569)" fill="#fbf0dc"/>
  <path id="패스_2" data-name="패스 2" d="M173.637,150.174H173.6a1.072,1.072,0,0,1-1.04-1.1,11,11,0,0,0-2.753-6.97,3.9,3.9,0,0,1-1.037-3.038c.273-3.041,3.79-6.034,5.291-7.179a1.071,1.071,0,0,0,.267-.3,4.237,4.237,0,0,0-.8-5.693,1.075,1.075,0,1,1,1.455-1.584,6.414,6.414,0,0,1,1.2,8.379,3.246,3.246,0,0,1-.807.905c-1.955,1.492-4.3,3.87-4.456,5.662a1.716,1.716,0,0,0,.485,1.4,13.006,13.006,0,0,1,3.315,8.48,1.073,1.073,0,0,1-1.074,1.04Z" transform="translate(-116.963 -85.963)" fill="#fbf0dc"/>
  <ellipse id="타원_3" data-name="타원 3" cx="1.375" cy="1.375" rx="1.375" ry="1.375" transform="translate(36.807 19.731)" fill="#fbf0dc"/>
  <path id="패스_3" data-name="패스 3" d="M41.729,81.5H41.71a1.074,1.074,0,0,1-1.056-1.093L40.9,65.475a1.049,1.049,0,0,1,.1-.433c1.482-3.2,8.256-3.766,9.324-3.833,6.694-1.249,11.079-3.588,13.031-6.958a7.924,7.924,0,0,0,.954-5.426L50.675,48.54a1.078,1.078,0,0,1-.905-.534l-4.3-7.418H28.6c-2.839,0-3.784,3.33-3.87,3.655L21.157,62.428a1.051,1.051,0,0,1-.23.482L9.878,76.082A1.074,1.074,0,1,1,8.233,74.7L19.1,61.74,22.633,43.8a.245.245,0,0,1,.009-.046c.448-1.838,2.268-5.313,5.96-5.313H46.087a1.075,1.075,0,0,1,.93.534l4.312,7.43,13.844.292a1.077,1.077,0,0,1,.988.709,9.947,9.947,0,0,1-.918,7.881c-2.274,3.971-7.182,6.681-14.587,8.05a.966.966,0,0,1-.132.015c-2.618.157-6.555,1.01-7.476,2.425l-.242,14.67A1.074,1.074,0,0,1,41.732,81.5Z" transform="translate(-5.532 -26.643)" fill="#fbf0dc"/>
  <path id="패스_4" data-name="패스 4" d="M66.924,117.836a.934.934,0,0,1-.16-.012l-21.87-3.278a1.074,1.074,0,0,1,.319-2.124l21.87,3.278a1.074,1.074,0,0,1-.16,2.136Z" transform="translate(-30.482 -77.911)" fill="#fbf0dc"/>
  <path id="패스_5" data-name="패스 5" d="M128.832,99.728c-9.183,0-12.687-5.2-12.838-5.435a1.074,1.074,0,0,1,1.8-1.179c.141.212,3.382,4.877,12.209,4.435a1.074,1.074,0,1,1,.107,2.145C129.67,99.715,129.247,99.728,128.832,99.728Z" transform="translate(-80.274 -64.203)" fill="#fbf0dc"/>
  <path id="패스_6" data-name="패스 6" d="M176.179,75.925a1.074,1.074,0,0,1-.985-.644l-3.879-8.851a1.074,1.074,0,1,1,1.967-.862l3.879,8.851a1.078,1.078,0,0,1-.982,1.507Z" transform="translate(-118.674 -44.998)" fill="#fbf0dc"/>
  <path id="패스_7" data-name="패스 7" d="M51.909,58.846c-.3,0-.485-.009-.519-.012l.132-2.145c.589.034,14.48.663,17.193-15.348l2.118.359c-1.584,9.351-6.783,13.519-10.868,15.37A20.227,20.227,0,0,1,51.909,58.846Z" transform="translate(-35.618 -28.653)" fill="#fbf0dc"/>
  <path id="패스_8" data-name="패스 8" d="M118.5,131.57a3.051,3.051,0,0,1,0,6.1" transform="translate(-82.132 -91.19)" fill="#fbf0dc"/>
  <g id="circle">
    <path id="패스_9" data-name="패스 9" d="M36,2.148A33.85,33.85,0,0,1,59.936,59.936,33.85,33.85,0,1,1,12.064,12.064,33.619,33.619,0,0,1,36,2.148M36,0A36,36,0,1,0,72,36,36,36,0,0,0,36,0Z" fill="#fbf0dc"/>
  </g>
  <g id="그룹_3" data-name="그룹 3" transform="translate(87.045 18.967)">
    <path id="패스_10" data-name="패스 10" d="M251.04,94.025V61.8h12.267a8.5,8.5,0,0,1,4.558,1.2,8.222,8.222,0,0,1,3.038,3.382,11.184,11.184,0,0,1,1.1,5.088,10.5,10.5,0,0,1-1.1,4.947,8.533,8.533,0,0,1-3.057,3.382,8.282,8.282,0,0,1-4.539,1.243h-8.28V94.022H251.04Zm3.987-17.079h7.9a4.781,4.781,0,0,0,3.683-1.473,5.656,5.656,0,0,0,1.369-4.005,5.539,5.539,0,0,0-1.369-3.959,4.781,4.781,0,0,0-3.683-1.473h-7.9Z" transform="translate(-251.04 -61.8)" fill="#fbf0dc"/>
    <path id="패스_11" data-name="패스 11" d="M332.84,94.025V61.8h19.6v4.235H336.83V75.7h10.18v4.1H336.83v9.99h15.763v4.235H332.843Z" transform="translate(-307.735 -61.8)" fill="#fbf0dc"/>
    <path id="패스_12" data-name="패스 12" d="M413.1,94.025V66.081H403.76V61.8h22.674v4.281h-9.342V94.025h-3.987Z" transform="translate(-356.889 -61.8)" fill="#fbf0dc"/>
    <path id="패스_13" data-name="패스 13" d="M515.448,113.407a12.2,12.2,0,0,1-4.69-.9,10.606,10.606,0,0,1-3.778-2.6l2.05-3.038a11.458,11.458,0,0,0,3.1,2.21,7.506,7.506,0,0,0,3.21.737,5.505,5.505,0,0,0,3.342-.945,2.96,2.96,0,0,0,1.292-2.507,2.7,2.7,0,0,0-.758-2.026,4.405,4.405,0,0,0-2.354-1.013l-3.5-.6a7.108,7.108,0,0,1-4.349-2.164,6.553,6.553,0,0,1-1.424-4.419,7.123,7.123,0,0,1,.948-3.683,6.4,6.4,0,0,1,2.658-2.486,8.549,8.549,0,0,1,3.95-.875,11.356,11.356,0,0,1,4.063.715,11.96,11.96,0,0,1,3.723,2.277l-1.9,3.038a12.966,12.966,0,0,0-3.115-1.887,8.048,8.048,0,0,0-3.038-.6,4.211,4.211,0,0,0-2.811.9,2.9,2.9,0,0,0-1.062,2.323,2.528,2.528,0,0,0,.758,2,5.1,5.1,0,0,0,2.394.988l3.532.644a7.144,7.144,0,0,1,4.367,2.118,6.382,6.382,0,0,1,1.482,4.419,6.773,6.773,0,0,1-1.083,3.75,7.663,7.663,0,0,1-2.888,2.646,8.594,8.594,0,0,1-4.122.967Z" transform="translate(-428.431 -80.721)" fill="#fbf0dc"/>
  </g>
  <path id="패스_14" data-name="패스 14" d="M484.035,70.34,482.4,69.1a10.622,10.622,0,0,0,1.139-1.476,4.476,4.476,0,0,0,.577-1.378,6.111,6.111,0,0,0,.16-1.378l1.037.758H482.16V61.2h4.429v3.032a9.734,9.734,0,0,1-.239,2.194,7.164,7.164,0,0,1-.8,1.995,9.518,9.518,0,0,1-1.516,1.915Z" transform="translate(-321.183 -42.417)" fill="#fbf0dc"/>
</svg>
