<svg xmlns="http://www.w3.org/2000/svg" width="101.583" height="92.793" viewBox="0 0 101.583 92.793">
  <g id="love_icon" transform="translate(-0.009 0.002)">
    <path id="패스_72" data-name="패스 72" d="M18.311,120.462c8.165,2.779,16.972,3.895,25.5,5.324-.089.855-.167,1.71-.224,2.565-.073,1.105,6.658,1.074,6.763-.454.042-.6.094-1.21.156-1.82a3.573,3.573,0,0,0,.5-.2c.97-.469,1.231-1.058-.089-1.293-.083-.016-.167-.026-.245-.042,1.736-14.719,7.691-32.108-3.217-44.429-2.378-2.685-5.1-4.27-8.749-4.208-3.723.063-6.924,1.319-8.572,4.828-1.559,3.316-1.668,7.075-1.45,10.673.167,2.758.433,5.511.709,8.269-1.95-1.194-3.921-2.357-5.918-3.467-3.488-1.94-7.029-4.1-11.08-4.521-3.462-.36-8.488.01-10.835,2.972-2.325,2.936-1.653,7.769-.448,11,2.821,7.56,9.844,12.3,17.206,14.808ZM7,101.864c-.01-.068-.021-.136-.026-.209a19.316,19.316,0,0,0,4.291,3.519,95.748,95.748,0,0,0,8.259,5.224c3.415,1.976,6.862,3.905,10.147,6.074q-8.431-2.385-17.04-4.093a22.28,22.28,0,0,1-1.564-1.715A18.327,18.327,0,0,1,7,101.864ZM29.417,104.8a167.264,167.264,0,0,0-16.883-6.491c-.855-.271-4.145-.6-5.595.13.209-2.6,1.027-5.365,3.28-4.641,3.551,1.147,6.9,3.363,10.1,5.235q4.646,2.73,9.1,5.767Zm17.592-6.434c-.735-.756-1.47-1.517-2.206-2.273a43.161,43.161,0,0,1-5.928-6.763,47.709,47.709,0,0,1,6.653,1.7c.156.052.318.094.48.13a34.962,34.962,0,0,1,1,7.2ZM36.1,99.575c-.235-1.82-.469-3.671-.636-5.527.7.756,1.434,1.5,2.164,2.247q2.206,2.268,4.406,4.541c-1.361-.4-2.722-.787-4.083-1.184A10.572,10.572,0,0,0,36.1,99.57ZM46.8,105.2c-.146,1.6-.344,3.2-.579,4.8q-2.495-3.2-5-6.392,2.534.735,5.063,1.465c.167.047.339.089.511.125Zm-8.7,3.629q-3.535-1.7-7.1-3.316a13.224,13.224,0,0,0,4.484-.031C36.351,106.593,37.227,107.709,38.1,108.825ZM44.918,87.7c.042.1.073.209.109.308a57.4,57.4,0,0,0-8.864-1.189c-.083,0-.4,0-.824.021a25.227,25.227,0,0,1,.454-3.222,14.862,14.862,0,0,1,.678-2.325c.334-.855,1.2-1.7,1.45-2.524l.193-.209a12.406,12.406,0,0,1,1.345.97A21.109,21.109,0,0,1,44.918,87.7ZM17.476,116.119q9.815,2.417,19.37,5.777a8.558,8.558,0,0,0,4.249.089c.2-.037,2.633-.527,1.887-1.21-4.844-4.416-10.543-7.6-16.19-10.85-2.826-1.627-5.642-3.285-8.311-5.157-.735-.516-1.9-1.215-2.972-2.039,9.672,3.759,18.979,8.405,28.25,13.072a4.538,4.538,0,0,0,1.512.156c-.422,2.492-.845,4.985-1.173,7.461-5.188-.871-10.386-1.752-15.486-2.982a39.678,39.678,0,0,1-11.132-4.322Z" transform="translate(0 -36.329)" fill="#ac1f40"/>
    <path id="패스_73" data-name="패스 73" d="M107.345,26.851A50.6,50.6,0,0,0,119.619,50.9c-.031.026-.063.047-.094.073-.266.209,1.184,1.611,2.763,2.581a7.754,7.754,0,0,0,3.41,1.684c1.09.141,1.58-.2.636-1.126-.1-.094-.188-.2-.287-.292,6.783-5.287,14.333-10.324,20-16.826,4.672-5.365,8.395-13.515,5.329-20.58-2.362-5.433-9.828-10.543-15.819-8.1-4.422,1.8-7.659,6.2-9.938,10.887a65.338,65.338,0,0,0-8.567-16.315c-.954-1.324-3.811-3.2-5.506-2.847-4.359.9-4.677,8.958-4.985,12.446a49.925,49.925,0,0,0,.793,14.365Zm31.446-13.609.083.349c-.073-.063-.162-.136-.261-.214.057-.047.12-.094.177-.141Zm-5.172,9.464a11.333,11.333,0,0,0-1.564-1.116q.555-1.04,1.184-2.033C133.337,20.605,133.467,21.658,133.618,22.706Zm9.364,7.148a30.531,30.531,0,0,1-2.039,2.826q-.532-3.293-1.058-6.58c-.235-1.444-.464-2.883-.626-4.328q1.807,3.652,3.332,7.451a2.437,2.437,0,0,0,.391.631Zm-8.744,9.49c-1.231,1.053-2.482,2.08-3.744,3.1-.292-1.934-.563-3.869-.782-5.814a7.557,7.557,0,0,0,3.139,2.2,10.6,10.6,0,0,0,1.392.516Zm-6.9,5.584-1.543,1.2c-.083-.8-.151-1.59-.209-2.388A9.781,9.781,0,0,0,127.341,44.929Zm-4.8-17.441a2.147,2.147,0,0,0,.751.939c.057,1,.136,2,.224,2.988-.474-.292-.97-.568-1.439-.8-.944-4.854-1.773-9.735-2.56-14.62a64.082,64.082,0,0,1,3.024,11.5Zm23.687-5.741c-.021.109-.047.219-.068.328q-1.283-5.381-2.56-10.767a2.444,2.444,0,0,1,.626.026c-.141.162.746,1.361.725,1.324a13.628,13.628,0,0,1,1.283,9.083ZM136.293,37.54c-.313.282-.631.558-.949.834q-.571-3.074-.881-6.163c.443.85.892,1.7,1.33,2.555a4.8,4.8,0,0,0,1.653,1.695c-.381.365-.766.725-1.152,1.079ZM121.944,49.095c-.068-.089-.136-.172-.2-.261.109.057.219.115.323.167l-.125.094Z" transform="translate(-50.898 0)" fill="#ac1f40"/>
  </g>
</svg>
