<svg xmlns="http://www.w3.org/2000/svg" width="22" height="22.131" viewBox="0 0 22 22.131">
  <path id="export_notes_FILL0_wght200_GRAD0_opsz40" d="M175.478-780.3l3.132-3.132v2.593h.846v-4.041h-4.042v.845h2.608l-3.147,3.132Zm-13.692-.152a1.719,1.719,0,0,1-1.258-.527,1.718,1.718,0,0,1-.528-1.258v-15.979a1.721,1.721,0,0,1,.528-1.259,1.719,1.719,0,0,1,1.258-.527h15.98a1.718,1.718,0,0,1,1.258.527,1.721,1.721,0,0,1,.528,1.259v7.839c-.178-.06-.353-.111-.524-.152s-.341-.084-.51-.131v-7.556a.72.72,0,0,0-.235-.518.719.719,0,0,0-.517-.234h-15.98a.72.72,0,0,0-.517.234.72.72,0,0,0-.235.518v15.979a.718.718,0,0,0,.235.517.721.721,0,0,0,.517.235h7.551q.049.283.1.541a2.659,2.659,0,0,0,.155.492Zm-.752-2.32v0Zm3.243-2.238h5.284c.059-.172.122-.342.19-.512s.144-.344.228-.521h-5.7Zm0-4.7h8.982q.423-.205.765-.356c.228-.1.473-.2.734-.287v-.391H164.277Zm0-4.7h11v-1.033h-11Zm12.952,16.539a4.575,4.575,0,0,1-3.376-1.4,4.613,4.613,0,0,1-1.391-3.364,4.618,4.618,0,0,1,1.39-3.4,4.61,4.61,0,0,1,3.386-1.388,4.6,4.6,0,0,1,3.368,1.388,4.613,4.613,0,0,1,1.393,3.4,4.608,4.608,0,0,1-1.393,3.364A4.583,4.583,0,0,1,177.229-777.87Z" transform="translate(-160 800.001)" fill="#fbf0dc"/>
</svg>
