<svg xmlns="http://www.w3.org/2000/svg" width="21" height="21.129" viewBox="0 0 21 21.129">
  <path id="search_FILL0_wght200_GRAD0_opsz40" d="M172.455-788.255l-7-7.125a7.287,7.287,0,0,1-2.415,1.412,8.148,8.148,0,0,1-2.764.49,7.7,7.7,0,0,1-5.658-2.311,7.663,7.663,0,0,1-2.315-5.639,7.684,7.684,0,0,1,2.311-5.643,7.664,7.664,0,0,1,5.637-2.314,7.727,7.727,0,0,1,5.652,2.31,7.659,7.659,0,0,1,2.325,5.642,7.973,7.973,0,0,1-.516,2.818,7.551,7.551,0,0,1-1.411,2.388l7,7.1Zm-12.18-6.4a6.554,6.554,0,0,0,4.813-1.957,6.54,6.54,0,0,0,1.963-4.815,6.529,6.529,0,0,0-1.963-4.812,6.549,6.549,0,0,0-4.813-1.96,6.565,6.565,0,0,0-4.821,1.96,6.524,6.524,0,0,0-1.966,4.813,6.535,6.535,0,0,0,1.966,4.815A6.57,6.57,0,0,0,160.275-794.66Z" transform="translate(-152.307 809.384)" fill="#fbf0dc"/>
</svg>
