<svg xmlns="http://www.w3.org/2000/svg" xmlns:xlink="http://www.w3.org/1999/xlink" width="164.049" height="164.049" viewBox="0 0 164.049 164.049">
  <defs>
    <clipPath id="clip-path">
      <rect id="사각형_53" data-name="사각형 53" width="116" height="116" fill="#f9d5a5"/>
    </clipPath>
  </defs>
  <g id="그룹_37" data-name="그룹 37" transform="translate(0 82.024) rotate(-45)" style="mix-blend-mode: difference;isolation: isolate">
    <path id="패스_132" data-name="패스 132" d="M69.205,9.3l.04-6.245.842.242L70,8.27l2.77-4.2.761.219.1,5.025,2.587-4.25.807.233-3.3,5.305-.82-.237-.1-5.036L70.035,9.541Z" transform="translate(-0.389)" fill="#f9d5a5"/>
    <g id="그룹_36" data-name="그룹 36" transform="translate(0 0)">
      <g id="그룹_35" data-name="그룹 35" clip-path="url(#clip-path)">
        <path id="패스_133" data-name="패스 133" d="M78.352,12.595A3.019,3.019,0,0,1,77.1,11.577a3.088,3.088,0,0,1-.284-3.086,3.122,3.122,0,0,1,1-1.261,3.005,3.005,0,0,1,1.424-.577,2.773,2.773,0,0,1,1.531.237,2.6,2.6,0,0,1,1.141.968,2.978,2.978,0,0,1,.47,1.432,3.233,3.233,0,0,1-.3,1.578l-.111.251L77.5,9.1a2.416,2.416,0,0,0-.089,1.115A2.2,2.2,0,0,0,78.7,11.9a2.953,2.953,0,0,0,.885.243,2.078,2.078,0,0,0,.843-.067l.26.761a3.821,3.821,0,0,1-1.18.077,3.62,3.62,0,0,1-1.159-.319m-.541-4.128,3.646,1.645a2.247,2.247,0,0,0,.073-1.023,2.089,2.089,0,0,0-.362-.9,1.772,1.772,0,0,0-.737-.6,1.905,1.905,0,0,0-.957-.169,2.079,2.079,0,0,0-.927.31,2.328,2.328,0,0,0-.735.737" transform="translate(-0.401 -0.02)" fill="#f9d5a5"/>
        <path id="패스_134" data-name="패스 134" d="M86.108,17a2.945,2.945,0,0,1-1.042-1.209,3.06,3.06,0,0,1-.281-1.544,3.112,3.112,0,0,1,.55-1.534,3.066,3.066,0,0,1,1.219-1.072,3.1,3.1,0,0,1,1.536-.306,2.927,2.927,0,0,1,1.509.522,3.366,3.366,0,0,1,.907.916,3.265,3.265,0,0,1,.5,1.183l-.827.218a2.416,2.416,0,0,0-.351-.94,2.374,2.374,0,0,0-.672-.7,2.073,2.073,0,0,0-1.085-.369,2.226,2.226,0,0,0-1.114.239,2.322,2.322,0,0,0-.9.8,2.386,2.386,0,0,0-.415,1.135,2.212,2.212,0,0,0,.191,1.136,2.109,2.109,0,0,0,.746.878,2.286,2.286,0,0,0,.872.362,2.787,2.787,0,0,0,.992,0l.118.8a3.539,3.539,0,0,1-1.284-.022A3.158,3.158,0,0,1,86.108,17" transform="translate(-0.444 -0.034)" fill="#f9d5a5"/>
        <path id="패스_135" data-name="패스 135" d="M90.089,20.07a2.767,2.767,0,0,1-.718-.93,1.88,1.88,0,0,1-.169-.99,1.62,1.62,0,0,1,.41-.9,1.582,1.582,0,0,1,1.364-.585,2.812,2.812,0,0,1,1.634.779,3.778,3.778,0,0,1,1.056,1.462l.517-.6a1.376,1.376,0,0,0,.4-1.082,1.714,1.714,0,0,0-.653-1.054,3.235,3.235,0,0,0-.752-.492,5.5,5.5,0,0,0-1-.348l.195-.733a6.645,6.645,0,0,1,1.2.443,4.4,4.4,0,0,1,.923.615,2.6,2.6,0,0,1,.964,1.558,1.946,1.946,0,0,1-.548,1.569l-2.644,3.038-.648-.566L92,20.821a2.831,2.831,0,0,1-1.013-.193,3.108,3.108,0,0,1-.9-.557m.176-2.276a.976.976,0,0,0-.218.9,1.786,1.786,0,0,0,.614.959,2.755,2.755,0,0,0,.849.518,2.284,2.284,0,0,0,.948.131l.737-.848a2.61,2.61,0,0,0-.354-.794,3.552,3.552,0,0,0-.636-.707,1.854,1.854,0,0,0-1.067-.511.99.99,0,0,0-.872.356" transform="translate(-0.467 -0.044)" fill="#f9d5a5"/>
        <path id="패스_136" data-name="패스 136" d="M93.173,22.7l4.455-4,.589.66-.524.471a2.354,2.354,0,0,1,1.872.857,2.421,2.421,0,0,1,.583,1.091,2.092,2.092,0,0,1-.064,1.149,2.448,2.448,0,0,1-.707,1.03l-2.818,2.529-.582-.651,2.686-2.41a1.734,1.734,0,0,0,.64-1.176,1.639,1.639,0,0,0-.474-1.221,1.886,1.886,0,0,0-.815-.552,1.941,1.941,0,0,0-.969-.063l-3.28,2.946Z" transform="translate(-0.488 -0.057)" fill="#f9d5a5"/>
        <path id="패스_137" data-name="패스 137" d="M98.815,29.475,105.94,25.1l.634.648-2.739,1.682a2.667,2.667,0,0,1,1.625,1.26,2.9,2.9,0,0,1,.447,1.521,3.062,3.062,0,0,1-1.5,2.663,3.131,3.131,0,0,1-1.548.481,3.06,3.06,0,0,1-1.511-.343,2.917,2.917,0,0,1-1.156-1.1,3.027,3.027,0,0,1-.413-2.006l-.51.313Zm2,1.97a2.152,2.152,0,0,0,.852.81,2.226,2.226,0,0,0,1.117.247,2.351,2.351,0,0,0,1.156-.366,2.388,2.388,0,0,0,.854-.869,2.208,2.208,0,0,0,.292-1.113,2.162,2.162,0,0,0-.332-1.129,2.483,2.483,0,0,0-.734-.777,2.109,2.109,0,0,0-.94-.356l-2.524,1.549a2.158,2.158,0,0,0-.1,1,2.491,2.491,0,0,0,.354,1" transform="translate(-0.518 -0.076)" fill="#f9d5a5"/>
        <path id="패스_138" data-name="패스 138" d="M103.333,37.939a3,3,0,0,1-.256-1.593,3.183,3.183,0,0,1,3.426-2.763,3.016,3.016,0,0,1,1.446.522,2.78,2.78,0,0,1,.981,1.2,2.6,2.6,0,0,1,.208,1.484,2.987,2.987,0,0,1-.6,1.382,3.217,3.217,0,0,1-1.27.977l-.251.112-1.992-4.493a2.418,2.418,0,0,0-.808.771,2.22,2.22,0,0,0-.158,2.12,2.946,2.946,0,0,0,.5.773,2.075,2.075,0,0,0,.671.512l-.312.742a3.883,3.883,0,0,1-.931-.732,3.68,3.68,0,0,1-.651-1.013m2.343-3.438,1.623,3.663a2.272,2.272,0,0,0,.735-.714,2.11,2.11,0,0,0,.327-.911,1.8,1.8,0,0,0-.149-.941,1.9,1.9,0,0,0-.6-.767,2.075,2.075,0,0,0-.9-.387,2.343,2.343,0,0,0-1.04.057" transform="translate(-0.54 -0.102)" fill="#f9d5a5"/>
        <path id="패스_139" data-name="패스 139" d="M105.971,45.55a2.761,2.761,0,0,1-.059-1.174,1.86,1.86,0,0,1,.428-.908,1.622,1.622,0,0,1,.847-.5,1.587,1.587,0,0,1,1.452.3,2.829,2.829,0,0,1,.9,1.576,3.789,3.789,0,0,1,.03,1.8l.765-.19a1.376,1.376,0,0,0,.95-.657,1.72,1.72,0,0,0,.068-1.237,3.265,3.265,0,0,0-.337-.834,5.36,5.36,0,0,0-.627-.86l.58-.491a6.626,6.626,0,0,1,.729,1.052,4.329,4.329,0,0,1,.4,1.034,2.583,2.583,0,0,1-.1,1.83,1.937,1.937,0,0,1-1.345.971l-3.9.974-.208-.836.568-.142a2.822,2.822,0,0,1-.718-.738,3.078,3.078,0,0,1-.422-.975m1.443-1.766a.974.974,0,0,0-.69.61,1.775,1.775,0,0,0-.044,1.14,2.8,2.8,0,0,0,.4.911,2.265,2.265,0,0,0,.7.65l1.088-.271a2.618,2.618,0,0,0,.164-.854,3.629,3.629,0,0,0-.118-.945,1.871,1.871,0,0,0-.583-1.032,1,1,0,0,0-.919-.208" transform="translate(-0.555 -0.129)" fill="#f9d5a5"/>
        <path id="패스_140" data-name="패스 140" d="M107.4,52.823l4.841-.413-.117-1.383,1.356-.115L113.6,52.3l.595-.051a2.049,2.049,0,0,1,1.659.477,2.55,2.55,0,0,1,.694,1.7,4.4,4.4,0,0,1,.013.515,2.122,2.122,0,0,1-.051.448l-1.356.117c.02-.147.033-.276.039-.388a2.521,2.521,0,0,0-.008-.373,1.06,1.06,0,0,0-.254-.674.749.749,0,0,0-.633-.185l-.56.047.142,1.681-1.357.115-.14-1.68-4.841.412Z" transform="translate(-0.563 -0.155)" fill="#f9d5a5"/>
        <path id="패스_141" data-name="패스 141" d="M107.557,58.553a2.707,2.707,0,0,1,.274-1.166,1.948,1.948,0,0,1,.7-.784,1.752,1.752,0,0,1,1-.262,1.633,1.633,0,0,1,1.373.706,3.092,3.092,0,0,1,.448,1.878,4.626,4.626,0,0,1-.289,1.525l.454.011a.99.99,0,0,0,.82-.314,1.511,1.511,0,0,0,.3-.974,3.185,3.185,0,0,0-.1-.851,7.12,7.12,0,0,0-.361-1.063L113.4,56.7a9.171,9.171,0,0,1,.455,1.424,5.616,5.616,0,0,1,.131,1.344,2.916,2.916,0,0,1-.652,1.958,2.134,2.134,0,0,1-1.718.65l-4.035-.1.042-1.614.441.01a2.668,2.668,0,0,1-.4-.834,3.51,3.51,0,0,1-.105-.985m1.963-.656a.647.647,0,0,0-.573.3,1.433,1.433,0,0,0-.231.819,2.726,2.726,0,0,0,.077.75,1.87,1.87,0,0,0,.293.636l.907.023a2.575,2.575,0,0,0,.2-.617,4.138,4.138,0,0,0,.072-.692,1.615,1.615,0,0,0-.181-.884.644.644,0,0,0-.565-.332" transform="translate(-0.564 -0.171)" fill="#f9d5a5"/>
        <path id="패스_142" data-name="패스 142" d="M107.639,62.916l6.1,1.205-.317,1.607-.468-.092a2.526,2.526,0,0,1-.179,2.733,2.138,2.138,0,0,1-.826.641,2.581,2.581,0,0,1,.5,1.028,2.769,2.769,0,0,1,.011,1.183,2.387,2.387,0,0,1-.547,1.143,2.27,2.27,0,0,1-1.018.652,2.615,2.615,0,0,1-1.318.051l-3.793-.749.314-1.609,3.549.7a1.383,1.383,0,0,0,1-.125,1.1,1.1,0,0,0,.511-.772,1.511,1.511,0,0,0-.016-.692,1.326,1.326,0,0,0-.363-.6c-.071-.007-.143-.012-.216-.018a1.9,1.9,0,0,1-.224-.033l-3.8-.75.316-1.608,3.548.7a1.381,1.381,0,0,0,1-.125,1.091,1.091,0,0,0,.51-.771,1.524,1.524,0,0,0-.012-.679,1.317,1.317,0,0,0-.326-.57l-4.275-.845Z" transform="translate(-0.554 -0.191)" fill="#f9d5a5"/>
        <path id="패스_143" data-name="패스 143" d="M105.279,73.243l5.883,2.021-.53,1.55-5.883-2.02Zm6.322,3.032a.888.888,0,0,1,.472-.533.908.908,0,0,1,.721-.043.878.878,0,0,1,.527.472.947.947,0,0,1-.428,1.249.88.88,0,0,1-.7.044.92.92,0,0,1-.546-.472.886.886,0,0,1-.044-.717" transform="translate(-0.549 -0.223)" fill="#f9d5a5"/>
        <path id="패스_144" data-name="패스 144" d="M104.333,75.929l7.753,3.121-.355,1.624-8.009-3.225Z" transform="translate(-0.543 -0.231)" fill="#f9d5a5"/>
        <path id="패스_145" data-name="패스 145" d="M100.763,77.853c.066-.129.133-.247.2-.359a1.178,1.178,0,0,1,.2-.252l1.24.642a2.786,2.786,0,0,0-.3.479,1.251,1.251,0,0,0,.184,1.5l.181.2,6.68.724-.833,1.616-4.472-.577,2.96,3.51L106,86.9l-4.657-5.641a5.042,5.042,0,0,1-.742-1.178A2.314,2.314,0,0,1,100.409,79a3.007,3.007,0,0,1,.354-1.143" transform="translate(-0.526 -0.235)" fill="#f9d5a5"/>
        <path id="패스_146" data-name="패스 146" d="M98.991,85.824a1.56,1.56,0,0,1,1.026-.689,1.53,1.53,0,0,1,1.195.239,1.613,1.613,0,1,1-1.8,2.68,1.534,1.534,0,0,1-.672-1.017,1.563,1.563,0,0,1,.25-1.213" transform="translate(-0.517 -0.259)" fill="#f9d5a5"/>
        <path id="패스_147" data-name="패스 147" d="M95.148,91.165l5.459,2.97-.607.626-4.322-2.411,2.382,4.409-.55.567-4.455-2.275,2.516,4.273-.583.6-3.1-5.4.59-.607L96.939,96.2l-2.391-4.418Z" transform="translate(-0.481 -0.277)" fill="#f9d5a5"/>
        <path id="패스_148" data-name="패스 148" d="M87.929,97.658a3.008,3.008,0,0,1,1.486-.623,3.068,3.068,0,0,1,2.846,1.208,3.123,3.123,0,0,1,.638,1.479,3.051,3.051,0,0,1-.165,1.531,2.814,2.814,0,0,1-.933,1.237,2.589,2.589,0,0,1-1.392.552,2.968,2.968,0,0,1-1.48-.263,3.233,3.233,0,0,1-1.248-1.009l-.166-.217,3.89-3a2.442,2.442,0,0,0-.938-.606,2.208,2.208,0,0,0-1.077-.1,2.182,2.182,0,0,0-1.015.443,2.941,2.941,0,0,0-.633.668,2.074,2.074,0,0,0-.34.774l-.79-.129a3.855,3.855,0,0,1,.488-1.08,3.677,3.677,0,0,1,.83-.872m3.885,1.474-3.171,2.442a2.241,2.241,0,0,0,.866.548,2.078,2.078,0,0,0,.96.1,1.778,1.778,0,0,0,.877-.367,1.9,1.9,0,0,0,.6-.765,2.078,2.078,0,0,0,.164-.964,2.328,2.328,0,0,0-.3-1" transform="translate(-0.454 -0.295)" fill="#f9d5a5"/>
        <path id="패스_149" data-name="패스 149" d="M88.547,104.833l.775,2.5-.8.515-.555-2.642Z" transform="translate(-0.461 -0.319)" fill="#f9d5a5"/>
        <path id="패스_150" data-name="패스 150" d="M82.787,101.229l4.135,7.278-.666.614-4.236-7.454Z" transform="translate(-0.43 -0.308)" fill="#f9d5a5"/>
        <path id="패스_151" data-name="패스 151" d="M80.784,102.333l3.8,7.457-.694.583L80,102.734Z" transform="translate(-0.419 -0.311)" fill="#f9d5a5"/>
        <path id="패스_152" data-name="패스 152" d="M76.516,104.385,79.24,112.3l-.77.482-1.047-3.043a2.675,2.675,0,0,1-1.58,1.317,2.878,2.878,0,0,1-1.578.11A3.056,3.056,0,0,1,72,109.123a3.118,3.118,0,0,1-.133-1.618,3.052,3.052,0,0,1,.66-1.4,2.909,2.909,0,0,1,1.321-.893,2.974,2.974,0,0,1,1.023-.163,3.007,3.007,0,0,1,1.02.191l-.194-.564Zm-2.353,1.533a2.141,2.141,0,0,0-.973.659,2.219,2.219,0,0,0-.481,1.04,2.356,2.356,0,0,0,.107,1.209,2.38,2.38,0,0,0,.662,1.024,2.2,2.2,0,0,0,1.02.527,2.138,2.138,0,0,0,1.173-.082,2.493,2.493,0,0,0,.914-.55,2.106,2.106,0,0,0,.55-.842l-.963-2.8a2.147,2.147,0,0,0-.953-.31,2.483,2.483,0,0,0-1.055.13" transform="translate(-0.376 -0.318)" fill="#f9d5a5"/>
        <path id="패스_153" data-name="패스 153" d="M67.264,106.972a2.989,2.989,0,0,1,1.608.1,3.082,3.082,0,0,1,2.024,2.343,3.133,3.133,0,0,1-.079,1.609,3.041,3.041,0,0,1-.823,1.3,2.794,2.794,0,0,1-1.382.7,2.6,2.6,0,0,1-1.491-.121,2.974,2.974,0,0,1-1.214-.889,3.245,3.245,0,0,1-.676-1.457l-.054-.27,4.809-.971a2.449,2.449,0,0,0-.575-.957,2.22,2.22,0,0,0-.924-.565,2.19,2.19,0,0,0-1.105-.05,2.937,2.937,0,0,0-.863.32,2.057,2.057,0,0,0-.644.545l-.655-.466a3.8,3.8,0,0,1,.914-.753,3.67,3.67,0,0,1,1.129-.417m2.839,3.039-3.92.792a2.247,2.247,0,0,0,.535.874,2.1,2.1,0,0,0,.817.518,1.779,1.779,0,0,0,.949.059,1.89,1.89,0,0,0,.877-.422,2.08,2.08,0,0,0,.571-.793,2.333,2.333,0,0,0,.171-1.029" transform="translate(-0.342 -0.325)" fill="#f9d5a5"/>
        <path id="패스_154" data-name="패스 154" d="M59.275,107.888a2.757,2.757,0,0,1,1.156.2,1.848,1.848,0,0,1,.792.616,1.628,1.628,0,0,1,.3.937A1.594,1.594,0,0,1,60.913,111a2.809,2.809,0,0,1-1.729.533,3.767,3.767,0,0,1-1.765-.366l.019.791a1.384,1.384,0,0,0,.432,1.074,1.72,1.72,0,0,0,1.19.335,3.3,3.3,0,0,0,.887-.147,5.424,5.424,0,0,0,.974-.425l.351.674a6.558,6.558,0,0,1-1.183.483,4.274,4.274,0,0,1-1.094.169,2.558,2.558,0,0,1-1.762-.5,1.936,1.936,0,0,1-.652-1.527l-.1-4.031.86-.021.013.585a2.878,2.878,0,0,1,.877-.541,3.085,3.085,0,0,1,1.041-.2m1.4,1.8a.98.98,0,0,0-.443-.81,1.784,1.784,0,0,0-1.1-.29,2.767,2.767,0,0,0-.974.19,2.232,2.232,0,0,0-.787.546l.027,1.125a2.6,2.6,0,0,0,.8.345,3.544,3.544,0,0,0,.945.091,1.865,1.865,0,0,0,1.133-.345,1,1,0,0,0,.4-.852" transform="translate(-0.296 -0.328)" fill="#f9d5a5"/>
        <path id="패스_155" data-name="패스 155" d="M51.885,107.7l-.657,4.824,1.371.186-.183,1.352-1.374-.188-.08.594a2.057,2.057,0,0,1-.827,1.517,2.538,2.538,0,0,1-1.806.307,4.5,4.5,0,0,1-.5-.1,2.215,2.215,0,0,1-.427-.149l.185-1.351c.136.05.261.091.369.123a2.661,2.661,0,0,0,.362.074,1.065,1.065,0,0,0,.713-.1.746.746,0,0,0,.319-.578l.075-.556-1.666-.228.184-1.351,1.668.227.657-4.824Z" transform="translate(-0.248 -0.327)" fill="#f9d5a5"/>
        <path id="패스_156" data-name="패스 156" d="M46.249,106.591a2.7,2.7,0,0,1,1.076.52,1.94,1.94,0,0,1,.611.851A1.733,1.733,0,0,1,47.974,109a1.632,1.632,0,0,1-.985,1.189,3.068,3.068,0,0,1-1.926.029,4.568,4.568,0,0,1-1.423-.615l-.109.441a.993.993,0,0,0,.126.87,1.51,1.51,0,0,0,.882.505,3.29,3.29,0,0,0,.854.084,7,7,0,0,0,1.113-.122l.271,1.326a9.045,9.045,0,0,1-1.485.134,5.462,5.462,0,0,1-1.337-.163,2.909,2.909,0,0,1-1.765-1.065,2.147,2.147,0,0,1-.26-1.822l.98-3.923,1.563.392-.106.429a2.6,2.6,0,0,1,.9-.205,3.416,3.416,0,0,1,.981.112m.212,2.062a.652.652,0,0,0-.163-.626,1.451,1.451,0,0,0-.749-.4,2.663,2.663,0,0,0-.746-.088,1.886,1.886,0,0,0-.684.148l-.22.882a2.582,2.582,0,0,0,.557.332,4.251,4.251,0,0,0,.659.22,1.62,1.62,0,0,0,.9.016.647.647,0,0,0,.447-.481" transform="translate(-0.219 -0.322)" fill="#f9d5a5"/>
        <path id="패스_157" data-name="패스 157" d="M41.942,105.722l-2.487,5.713-1.5-.655.193-.439a2.512,2.512,0,0,1-2.625-.762,2.154,2.154,0,0,1-.449-.946,2.557,2.557,0,0,1-1.109.272,2.758,2.758,0,0,1-1.156-.245,2.35,2.35,0,0,1-1-.781,2.273,2.273,0,0,1-.417-1.136,2.613,2.613,0,0,1,.235-1.3l1.545-3.554,1.5.655-1.445,3.323a1.4,1.4,0,0,0-.1,1.01,1.093,1.093,0,0,0,.643.665,1.518,1.518,0,0,0,.679.134,1.343,1.343,0,0,0,.664-.226c.021-.068.043-.137.064-.206s.048-.14.079-.213l1.546-3.552,1.5.654-1.444,3.324a1.375,1.375,0,0,0-.095,1.009,1.091,1.091,0,0,0,.641.666,1.5,1.5,0,0,0,.664.135,1.314,1.314,0,0,0,.627-.2l1.741-4Z" transform="translate(-0.164 -0.31)" fill="#f9d5a5"/>
        <path id="패스_158" data-name="패스 158" d="M28.073,106.726a.941.941,0,0,1,.306,1.292.87.87,0,0,1-.571.415.944.944,0,0,1-1.128-.685.886.886,0,0,1,.107-.7.927.927,0,0,1,.575-.435.9.9,0,0,1,.71.11m4.3-5.544-3.223,5.332-1.4-.849,3.222-5.332Z" transform="translate(-0.14 -0.305)" fill="#f9d5a5"/>
        <path id="패스_159" data-name="패스 159" d="M29.975,99.693l-4.729,6.9-1.5-.7,4.884-7.131Z" transform="translate(-0.124 -0.3)" fill="#f9d5a5"/>
        <path id="패스_160" data-name="패스 160" d="M28.85,95.784c.109.093.211.185.3.279a1.178,1.178,0,0,1,.2.253l-.9,1.074a2.492,2.492,0,0,0-.4-.4,1.239,1.239,0,0,0-1.5-.149l-.235.131-2.166,6.376-1.391-1.168,1.54-4.247-4.067,2.128-1.354-1.138,6.512-3.32a4.975,4.975,0,0,1,1.31-.468,2.293,2.293,0,0,1,1.1.05,3.032,3.032,0,0,1,1.035.6" transform="translate(-0.099 -0.289)" fill="#f9d5a5"/>
        <path id="패스_161" data-name="패스 161" d="M21.5,92.312a1.561,1.561,0,0,1,.447,1.153,1.539,1.539,0,0,1-.494,1.116,1.614,1.614,0,1,1-2.217-2.345,1.536,1.536,0,0,1,1.137-.435,1.554,1.554,0,0,1,1.128.51" transform="translate(-0.098 -0.279)" fill="#f9d5a5"/>
        <path id="패스_162" data-name="패스 162" d="M17.1,87.41l-4.08,4.7-.477-.73,3.287-3.7L11.02,89.046l-.434-.66,3.181-3.864L9.062,86.054l-.459-.7,5.931-1.866L15,84.2l-3.19,3.871,4.821-1.38Z" transform="translate(-0.045 -0.254)" fill="#f9d5a5"/>
        <path id="패스_163" data-name="패스 163" d="M12.333,78.944a3.018,3.018,0,0,1,.285,1.589,3.079,3.079,0,0,1-1.794,2.523,3.107,3.107,0,0,1-1.578.3,3.016,3.016,0,0,1-1.455-.494,2.764,2.764,0,0,1-1-1.179A2.6,2.6,0,0,1,6.551,80.2a2.987,2.987,0,0,1,.576-1.392,3.245,3.245,0,0,1,1.252-1l.249-.116L10.7,82.149a2.434,2.434,0,0,0,.793-.787,2.222,2.222,0,0,0,.117-2.123,2.888,2.888,0,0,0-.514-.763,2.071,2.071,0,0,0-.681-.5l.3-.747a3.783,3.783,0,0,1,.944.713,3.657,3.657,0,0,1,.671,1m-2.276,3.482L8.365,78.8a2.262,2.262,0,0,0-.723.728,2.14,2.14,0,0,0-.309.918,1.774,1.774,0,0,0,.168.937,1.888,1.888,0,0,0,.615.756,2.1,2.1,0,0,0,.9.369,2.349,2.349,0,0,0,1.039-.077" transform="translate(-0.034 -0.235)" fill="#f9d5a5"/>
        <path id="패스_164" data-name="패스 164" d="M9.543,71.321A3.94,3.94,0,0,1,9.68,72.73,3.421,3.421,0,0,1,9.32,74l-.7-.365a3.16,3.16,0,0,0,.322-1.047,2.634,2.634,0,0,0-.074-1.046,2.076,2.076,0,0,0-.6-1.05.9.9,0,0,0-.869-.23.753.753,0,0,0-.52.425,1.73,1.73,0,0,0-.069.894l.14,1.042a2.444,2.444,0,0,1-.16,1.429,1.425,1.425,0,0,1-.941.716,1.481,1.481,0,0,1-.939-.036,1.941,1.941,0,0,1-.812-.6,2.828,2.828,0,0,1-.53-1.063,3.889,3.889,0,0,1-.145-1.238A4.083,4.083,0,0,1,3.7,70.589l.7.289a4.031,4.031,0,0,0-.228,1.076,3,3,0,0,0,.1.971,1.691,1.691,0,0,0,.533.894A.844.844,0,0,0,5.6,74a.737.737,0,0,0,.521-.419,1.786,1.786,0,0,0,.055-.9l-.138-1.041A2.451,2.451,0,0,1,6.184,70.2a1.426,1.426,0,0,1,.949-.73,1.487,1.487,0,0,1,.984.061,2.174,2.174,0,0,1,.865.66,3.055,3.055,0,0,1,.56,1.129" transform="translate(-0.018 -0.211)" fill="#f9d5a5"/>
        <path id="패스_165" data-name="패스 165" d="M8.593,68.25l-8.255,1.3L0,68.711,3.244,68.2A2.363,2.363,0,0,1,2.136,66.46a2.406,2.406,0,0,1,.1-1.233,2.1,2.1,0,0,1,.675-.931,2.429,2.429,0,0,1,1.15-.478L7.8,63.227l.135.862-3.561.564a1.718,1.718,0,0,0-1.175.638,1.642,1.642,0,0,0-.264,1.283,1.9,1.9,0,0,0,.385.908,1.973,1.973,0,0,0,.78.58l4.351-.688Z" transform="translate(0 -0.192)" fill="#f9d5a5"/>
        <path id="패스_166" data-name="패스 166" d="M7.736,59.193a3,3,0,0,1-.374,1.56,3.043,3.043,0,0,1-1.089,1.134,3.1,3.1,0,0,1-1.566.444,3.073,3.073,0,0,1-1.584-.369,3.026,3.026,0,0,1-1.142-1.08,3.13,3.13,0,0,1-.076-3.1A3.046,3.046,0,0,1,3,56.652a3.078,3.078,0,0,1,1.566-.445,3.1,3.1,0,0,1,1.585.369A3.052,3.052,0,0,1,7.289,57.65a2.977,2.977,0,0,1,.448,1.543m-.787.02a2.04,2.04,0,0,0-.337-1.1,2.262,2.262,0,0,0-.854-.769,2.35,2.35,0,0,0-1.177-.266,2.368,2.368,0,0,0-1.17.322,2.3,2.3,0,0,0-.809.809,2.137,2.137,0,0,0,.053,2.213,2.285,2.285,0,0,0,.848.77,2.353,2.353,0,0,0,1.183.265,2.38,2.38,0,0,0,1.164-.321,2.278,2.278,0,0,0,.815-.811,2.033,2.033,0,0,0,.285-1.114" transform="translate(-0.008 -0.171)" fill="#f9d5a5"/>
        <path id="패스_167" data-name="패스 167" d="M7.986,52.894a2.437,2.437,0,0,1-.422,1.17,2.071,2.071,0,0,1-.894.726,2.414,2.414,0,0,1-1.235.161l-3.764-.41.1-.867,3.584.39a1.716,1.716,0,0,0,1.3-.316,1.633,1.633,0,0,0,.588-1.163,1.861,1.861,0,0,0-.748-1.742l-4.368-.475.1-.881,5.946.647-.1.88-.687-.075a2.37,2.37,0,0,1,.6,1.955" transform="translate(-0.009 -0.151)" fill="#f9d5a5"/>
        <path id="패스_168" data-name="패스 168" d="M8.451,48.809l-8.2-1.623-.028-.907,8.4,1.661Z" transform="translate(-0.001 -0.141)" fill="#f9d5a5"/>
        <path id="패스_169" data-name="패스 169" d="M9.705,44a2.916,2.916,0,0,1-.824,1.347,3.007,3.007,0,0,1-1.37.732,3.106,3.106,0,0,1-1.619-.059,3.036,3.036,0,0,1-2.142-2.182,2.948,2.948,0,0,1,.037-1.591,3.058,3.058,0,0,1,.452-.926,3,3,0,0,1,.739-.719l-2.841-.834.055-.906L10.4,41.275l-.246.838-.608-.177A2.748,2.748,0,0,1,9.705,44m-.72-.3a2.478,2.478,0,0,0,.082-1.068A2.118,2.118,0,0,0,8.7,41.7l-2.84-.835a2.175,2.175,0,0,0-.8.593,2.478,2.478,0,0,0-.506.943,2.184,2.184,0,0,0-.031,1.168,2.155,2.155,0,0,0,.558,1,2.365,2.365,0,0,0,1.046.613,2.4,2.4,0,0,0,1.218.053A2.252,2.252,0,0,0,8.37,44.7a2.152,2.152,0,0,0,.615-1" transform="translate(-0.011 -0.118)" fill="#f9d5a5"/>
        <path id="패스_170" data-name="패스 170" d="M11.783,37.79,4.33,34l.22-.881,2.862,1.457a2.689,2.689,0,0,1,.221-2.048,2.9,2.9,0,0,1,1.059-1.179,3.04,3.04,0,0,1,3.048-.113A3.092,3.092,0,0,1,12.96,32.3a3.038,3.038,0,0,1,.5,1.469,2.946,2.946,0,0,1-.329,1.564,3.04,3.04,0,0,1-1.488,1.4l.533.271Zm.624-2.741a2.161,2.161,0,0,0,.241-1.152,2.218,2.218,0,0,0-.375-1.083,2.348,2.348,0,0,0-.916-.795,2.374,2.374,0,0,0-1.186-.273,2.186,2.186,0,0,0-1.1.333,2.148,2.148,0,0,0-.785.874,2.52,2.52,0,0,0-.276,1.035,2.128,2.128,0,0,0,.19.988l2.64,1.342a2.146,2.146,0,0,0,.9-.442,2.512,2.512,0,0,0,.666-.827" transform="translate(-0.023 -0.094)" fill="#f9d5a5"/>
        <path id="패스_171" data-name="패스 171" d="M16.649,29.5a3.02,3.02,0,0,1-1.226,1.051,3.067,3.067,0,0,1-3.079-.275,3.139,3.139,0,0,1-1.06-1.211,3.054,3.054,0,0,1-.31-1.507,2.8,2.8,0,0,1,.509-1.466,2.575,2.575,0,0,1,1.155-.952,2.948,2.948,0,0,1,1.49-.206,3.234,3.234,0,0,1,1.5.575l.225.156-2.784,4.05A2.436,2.436,0,0,0,14.143,30a2.206,2.206,0,0,0,1.887-.971,2.913,2.913,0,0,0,.4-.83,2.081,2.081,0,0,0,.086-.84l.793-.122a3.8,3.8,0,0,1-.135,1.178,3.7,3.7,0,0,1-.52,1.086m-4.15-.207,2.269-3.3a2.237,2.237,0,0,0-.991-.254,2.1,2.1,0,0,0-.946.2,1.786,1.786,0,0,0-.724.619,1.909,1.909,0,0,0-.337.914,2.063,2.063,0,0,0,.138.968,2.351,2.351,0,0,0,.591.858" transform="translate(-0.057 -0.076)" fill="#f9d5a5"/>
        <path id="패스_172" data-name="패스 172" d="M21.767,23.276a2.706,2.706,0,0,1-.972.661,1.842,1.842,0,0,1-.995.11,1.624,1.624,0,0,1-.868-.465,1.592,1.592,0,0,1-.5-1.4,2.812,2.812,0,0,1,.875-1.587,3.792,3.792,0,0,1,1.522-.967l-.56-.553a1.375,1.375,0,0,0-1.055-.472,1.718,1.718,0,0,0-1.089.586,3.339,3.339,0,0,0-.535.722,5.6,5.6,0,0,0-.408.985l-.719-.24a6.76,6.76,0,0,1,.516-1.171,4.33,4.33,0,0,1,.67-.883,2.566,2.566,0,0,1,1.611-.869,1.933,1.933,0,0,1,1.528.645l2.862,2.832-.6.613-.417-.412a2.846,2.846,0,0,1-.256,1,3.083,3.083,0,0,1-.609.866m-2.256-.315a.975.975,0,0,0,.879.273,1.772,1.772,0,0,0,.992-.556,2.727,2.727,0,0,0,.569-.817,2.232,2.232,0,0,0,.188-.939l-.8-.79a2.615,2.615,0,0,0-.814.305,3.639,3.639,0,0,0-.744.592,1.88,1.88,0,0,0-.575,1.037,1,1,0,0,0,.3.894" transform="translate(-0.086 -0.054)" fill="#f9d5a5"/>
        <path id="패스_173" data-name="패스 173" d="M27.208,18.277l-2.877-3.925-1.115.822-.806-1.1,1.116-.82-.354-.483a2.061,2.061,0,0,1-.459-1.667A2.548,2.548,0,0,1,23.8,9.625a4.742,4.742,0,0,1,.432-.281,2.178,2.178,0,0,1,.409-.189l.807,1.1q-.2.088-.352.167a2.834,2.834,0,0,0-.311.2,1.068,1.068,0,0,0-.443.571.757.757,0,0,0,.172.638l.331.452,1.357-1,.806,1.1-1.356,1,2.875,3.924Z" transform="translate(-0.117 -0.028)" fill="#f9d5a5"/>
        <path id="패스_174" data-name="패스 174" d="M32.023,15.158a2.686,2.686,0,0,1-1.136.375,1.926,1.926,0,0,1-1.03-.184,1.738,1.738,0,0,1-.744-.716A1.636,1.636,0,0,1,29,13.092a3.078,3.078,0,0,1,1.364-1.365,4.561,4.561,0,0,1,1.448-.548l-.228-.395a.99.99,0,0,0-.7-.535,1.494,1.494,0,0,0-.984.253,3.243,3.243,0,0,0-.672.533,7.286,7.286,0,0,0-.715.863L27.4,11.137A9.118,9.118,0,0,1,28.371,10a5.574,5.574,0,0,1,1.075-.816,2.9,2.9,0,0,1,2.006-.466A2.141,2.141,0,0,1,32.9,9.851l2.02,3.5-1.4.809-.22-.384a2.594,2.594,0,0,1-.5.776,3.469,3.469,0,0,1-.781.606m-1.585-1.335a.651.651,0,0,0,.553.336,1.448,1.448,0,0,0,.817-.232,2.8,2.8,0,0,0,.6-.457,1.912,1.912,0,0,0,.387-.583l-.455-.788a2.644,2.644,0,0,0-.631.151,4.108,4.108,0,0,0-.626.3,1.614,1.614,0,0,0-.658.615.648.648,0,0,0,.013.656" transform="translate(-0.144 -0.026)" fill="#f9d5a5"/>
        <path id="패스_175" data-name="패스 175" d="M35.726,12.786,33.554,6.944l1.533-.573.166.449a2.356,2.356,0,0,1,1.313-1.128,2.326,2.326,0,0,1,1.1-.151,2.148,2.148,0,0,1,.979.369,2.546,2.546,0,0,1,.607-.967,2.757,2.757,0,0,1,1-.63,2.333,2.333,0,0,1,1.256-.131,2.247,2.247,0,0,1,1.088.525,2.652,2.652,0,0,1,.732,1.1L44.685,9.44l-1.533.572-1.263-3.4a1.38,1.38,0,0,0-.631-.793,1.088,1.088,0,0,0-.923-.032,1.493,1.493,0,0,0-.579.376,1.322,1.322,0,0,0-.322.625c.033.065.065.129.1.193a1.749,1.749,0,0,1,.091.208l1.35,3.633-1.532.571L38.177,8a1.387,1.387,0,0,0-.633-.792,1.086,1.086,0,0,0-.922-.032,1.5,1.5,0,0,0-.572.366,1.308,1.308,0,0,0-.312.577l1.52,4.093Z" transform="translate(-0.176 -0.013)" fill="#f9d5a5"/>
        <path id="패스_176" data-name="패스 176" d="M44.992,2.419a.887.887,0,0,1-.7-.121.917.917,0,0,1-.417-.592A.885.885,0,0,1,44,1.01.941.941,0,0,1,45.283.716a.887.887,0,0,1,.407.575A.925.925,0,0,1,45.577,2a.89.89,0,0,1-.585.416M45.75,9.4,44.364,3.325l1.6-.366,1.385,6.077Z" transform="translate(-0.23 -0.002)" fill="#f9d5a5"/>
        <path id="패스_177" data-name="패스 177" d="M48.522,8.8,47.125.546,48.693,0l1.441,8.528Z" transform="translate(-0.247 0)" fill="#f9d5a5"/>
        <path id="패스_178" data-name="패스 178" d="M52.029,10.84c-.142.011-.281.014-.412.012a1.133,1.133,0,0,1-.319-.043l-.1-1.4a2.688,2.688,0,0,0,.563.007,1.245,1.245,0,0,0,1.176-.937l.077-.258L50.143,2.137l1.81-.132,1.84,4.123,1.444-4.364L57,1.639,54.629,8.564a4.988,4.988,0,0,1-.616,1.25,2.287,2.287,0,0,1-.828.732,2.994,2.994,0,0,1-1.157.294" transform="translate(-0.263 -0.005)" fill="#f9d5a5"/>
        <path id="패스_179" data-name="패스 179" d="M59.165,8.145a1.166,1.166,0,0,1-.847-.378,1.148,1.148,0,0,1-.323-.854,1.214,1.214,0,1,1,1.17,1.232" transform="translate(-0.304 -0.017)" fill="#f9d5a5"/>
      </g>
    </g>
  </g>
</svg>
